<svg xmlns="http://www.w3.org/2000/svg" xmlns:xlink="http://www.w3.org/1999/xlink" width="362" height="272" viewBox="0 0 362 272">
  <defs>
    <linearGradient id="linear-gradient" x2="1" y2="1" gradientUnits="objectBoundingBox">
      <stop offset="0" stop-color="#286ecd"/>
      <stop offset="1" stop-color="#84c2c1"/>
    </linearGradient>
    <clipPath id="clip-path">
      <rect id="Rectangle_27838" data-name="Rectangle 27838" width="241.908" height="221.861" fill="none"/>
    </clipPath>
    <clipPath id="clip-path-4">
      <rect id="Rectangle_27832" data-name="Rectangle 27832" width="27.451" height="22.334" fill="none"/>
    </clipPath>
    <clipPath id="clip-path-5">
      <rect id="Rectangle_27833" data-name="Rectangle 27833" width="3.967" height="8.316" fill="none"/>
    </clipPath>
    <clipPath id="clip-path-6">
      <rect id="Rectangle_27834" data-name="Rectangle 27834" width="1.944" height="2.14" fill="none"/>
    </clipPath>
    <clipPath id="clip-path-7">
      <rect id="Rectangle_27835" data-name="Rectangle 27835" width="8.25" height="5.299" fill="none"/>
    </clipPath>
  </defs>
  <g id="Group_48284" data-name="Group 48284" transform="translate(0.324)">
    <path id="Rectangle_27379" data-name="Rectangle 27379" d="M10,0H352a10,10,0,0,1,10,10V272a0,0,0,0,1,0,0H0a0,0,0,0,1,0,0V10A10,10,0,0,1,10,0Z" transform="translate(-0.324)" fill="url(#linear-gradient)"/>
    <g id="Group_47753" data-name="Group 47753" transform="translate(59.929 24.088)">
      <g id="Group_47771" data-name="Group 47771" clip-path="url(#clip-path)">
        <g id="Group_47754" data-name="Group 47754">
          <g id="Group_47753-2" data-name="Group 47753" clip-path="url(#clip-path)">
            <path id="Path_44597" data-name="Path 44597" d="M328.2,71.862a14.874,14.874,0,0,0-4.649-7.631,14.29,14.29,0,0,0-7.893-3.774,11.536,11.536,0,0,0-12,7.242A11.524,11.524,0,0,0,290.7,63.557a14.293,14.293,0,0,0-6.925,5.346,14.872,14.872,0,0,0-2.944,8.437,18.1,18.1,0,0,0,3.413,10.837,25.614,25.614,0,0,0,9.646,7.29c6.1,2.846,14.107,6.37,14.107,6.37s5.874-5.449,11.242-9.51a25.606,25.606,0,0,0,7.9-9.151A18.1,18.1,0,0,0,328.2,71.862" transform="translate(-112.834 -24.264)" fill="#ebebeb"/>
            <path id="Path_44598" data-name="Path 44598" d="M385.446,32.174a8.765,8.765,0,0,0-1.4-5.073,8.421,8.421,0,0,0-3.861-3.412,6.8,6.8,0,0,0-7.968,2.164,6.788,6.788,0,0,0-6.672-4.438,8.418,8.418,0,0,0-4.786,1.909,8.758,8.758,0,0,0-3.029,4.3,10.658,10.658,0,0,0,.183,6.689A15.086,15.086,0,0,0,362.2,40c3,2.6,6.962,5.885,6.962,5.885s4.207-2.138,7.9-3.573a15.074,15.074,0,0,0,5.953-3.908,10.663,10.663,0,0,0,2.429-6.236" transform="translate(-143.55 -8.602)" fill="#ebebeb"/>
            <path id="Path_44599" data-name="Path 44599" d="M377,138.585a6.407,6.407,0,0,0-1.974-3.3,6.152,6.152,0,0,0-3.383-1.65,4.963,4.963,0,0,0-5.19,3.075,4.959,4.959,0,0,0-5.562-1.826,6.147,6.147,0,0,0-3,2.277,6.4,6.4,0,0,0-1.3,3.62,7.788,7.788,0,0,0,1.432,4.674,11.024,11.024,0,0,0,4.126,3.169c2.615,1.245,6.049,2.789,6.049,2.789s2.546-2.325,4.869-4.054a11.024,11.024,0,0,0,3.431-3.911,7.788,7.788,0,0,0,.5-4.864" transform="translate(-143.277 -53.68)" fill="#ebebeb"/>
            <rect id="Rectangle_27827" data-name="Rectangle 27827" width="42.114" height="43.9" transform="translate(190.261 109.386)" fill="#e0e0e0"/>
            <rect id="Rectangle_27828" data-name="Rectangle 27828" width="42.114" height="43.9" transform="translate(187.409 109.386)" fill="#fafafa"/>
            <path id="Path_44600" data-name="Path 44600" d="M355.4,226.759h-42.14V182.833H355.4Zm-42.114-.026h42.087V182.859H313.285Z" transform="translate(-125.863 -73.46)" fill="#e0e0e0"/>
            <rect id="Rectangle_27829" data-name="Rectangle 27829" width="30.791" height="32.097" transform="translate(193.071 115.288)" fill="#fff"/>
            <path id="Path_44601" data-name="Path 44601" d="M318.97,246.731a5.059,5.059,0,0,1-.76.884c-.492.519-1.183,1.221-1.957,1.984s-1.487,1.443-2.012,1.925a4.9,4.9,0,0,1-.89.741,4.887,4.887,0,0,1,.755-.879c.492-.519,1.185-1.223,1.962-1.988s1.49-1.447,2.015-1.929a4.807,4.807,0,0,1,.886-.738" transform="translate(-125.9 -99.132)" fill="#e0e0e0"/>
            <path id="Path_44602" data-name="Path 44602" d="M374.216,246.6a5.058,5.058,0,0,1,.884.76c.519.492,1.221,1.183,1.984,1.957s1.443,1.487,1.926,2.012a4.942,4.942,0,0,1,.741.89,4.853,4.853,0,0,1-.88-.756c-.519-.492-1.223-1.184-1.988-1.962s-1.446-1.491-1.929-2.015a4.83,4.83,0,0,1-.738-.886" transform="translate(-150.354 -99.08)" fill="#e0e0e0"/>
            <path id="Path_44603" data-name="Path 44603" d="M374.075,189.146a5.063,5.063,0,0,1,.76-.884c.492-.519,1.183-1.221,1.957-1.984s1.487-1.443,2.012-1.926a4.912,4.912,0,0,1,.89-.741,4.89,4.89,0,0,1-.756.879c-.492.519-1.184,1.223-1.962,1.988s-1.49,1.446-2.015,1.929a4.8,4.8,0,0,1-.886.738" transform="translate(-150.298 -73.772)" fill="#e0e0e0"/>
            <path id="Path_44604" data-name="Path 44604" d="M318.886,189.22a5.026,5.026,0,0,1-.884-.76c-.519-.492-1.221-1.183-1.984-1.957s-1.443-1.487-1.925-2.012a4.878,4.878,0,0,1-.741-.89,4.888,4.888,0,0,1,.879.756c.519.492,1.223,1.184,1.988,1.962s1.446,1.491,1.929,2.015a4.8,4.8,0,0,1,.738.886" transform="translate(-125.9 -73.768)" fill="#e0e0e0"/>
            <path id="Path_44605" data-name="Path 44605" d="M353.36,224.726a1.518,1.518,0,0,1-.007-.156c0-.109,0-.257-.007-.447,0-.4-.008-.982-.014-1.733-.007-1.521-.017-3.733-.031-6.541-.014-5.621-.035-13.63-.06-23.219l.119.118-30.7.018h0l.136-.136c-.007,11.781-.014,22.8-.019,32.1l-.117-.117,22.234.059,6.245.03,1.652.014.426.007a1.388,1.388,0,0,1,.149.007.869.869,0,0,1-.136.007l-.414.007-1.63.014-6.218.03-22.309.06h-.117v-.117c-.005-9.3-.012-20.316-.019-32.1v-.136h.139l30.7.017h.119v.119c-.025,9.62-.046,17.655-.06,23.3-.014,2.8-.024,5-.031,6.515-.006.742-.011,1.313-.014,1.71,0,.185,0,.328-.007.435a.954.954,0,0,1-.007.142" transform="translate(-129.583 -77.341)" fill="#e0e0e0"/>
            <rect id="Rectangle_27830" data-name="Rectangle 27830" width="10.275" height="10.274" transform="translate(203.328 126.199)" fill="#ebebeb"/>
            <path id="Path_44606" data-name="Path 44606" d="M182.531,202.506H105.051c-7.728,0-13.992-5.9-13.992-13.174V13.175C91.059,5.9,97.323,0,105.051,0h77.481c7.728,0,13.992,5.9,13.992,13.175V189.332c0,7.276-6.264,13.174-13.992,13.174" transform="translate(-36.586)" fill="#eaeaeb"/>
            <path id="Path_44607" data-name="Path 44607" d="M226.805,64.9V32.885a18.527,18.527,0,0,0-18.526-18.528H139.254a18.529,18.529,0,0,0-18.528,18.528V208.513a18.528,18.528,0,0,0,18.527,18.528h69.023a18.527,18.527,0,0,0,18.53-18.525V64.9Z" transform="translate(-48.506 -5.768)" fill="#fff"/>
            <path id="Path_44608" data-name="Path 44608" d="M211.577,23.147h-3.47c.006,0-57.543.016-57.608,0h-8.27a13.838,13.838,0,0,0-13.837,13.837v175.37A13.838,13.838,0,0,0,142.23,226.19h69.347a13.837,13.837,0,0,0,13.837-13.837V36.984a13.837,13.837,0,0,0-13.837-13.837" transform="translate(-51.587 -9.3)" fill="none" stroke="#d3e1f0" stroke-width="1"/>
            <path id="Path_44609" data-name="Path 44609" d="M148.361,64.905a1.147,1.147,0,0,1,.163-.012l.452-.017,1.664-.043-.053.053c-.006-.37-.013-.774-.021-1.208,0-.225-.02-.434,0-.7a.65.65,0,0,1,.567-.521c.27-.005.5-.018.8,0a.656.656,0,0,1,.555.653c.007.564.014,1.152.021,1.762l-.088-.087,2.1-.022-.091.092c-.008-.846-.016-1.722-.023-2.619,0-.224,0-.446-.006-.667a.668.668,0,0,0-.292-.489l-.919-.906-.886-.875-.43-.424c-.149-.144-.263-.288-.43-.322a.557.557,0,0,0-.474.09c-.125.106-.262.26-.39.383l-.754.76c-.474.492-.971.944-1.328,1.366a1.482,1.482,0,0,0-.105.779q0,.389,0,.74-.006.677-.01,1.192c0,.3-.007.552-.01.764a2.33,2.33,0,0,1-.012.276,1.755,1.755,0,0,1-.016-.251c-.007-.208-.014-.455-.023-.75q-.013-.521-.03-1.2-.007-.357-.015-.756c0-.135,0-.273-.007-.414a.874.874,0,0,1,.117-.444c.391-.48.852-.9,1.331-1.408l.748-.767c.135-.133.244-.263.407-.4a.725.725,0,0,1,.618-.122,1.147,1.147,0,0,1,.51.363l.431.422.89.872.921.9a.852.852,0,0,1,.348.616q0,.334.006.671c.007.9.014,1.773.02,2.619v.092h-.092l-2.1.013h-.087v-.087c0-.61-.006-1.2-.008-1.762a.5.5,0,0,0-.417-.5c-.238-.013-.526,0-.76,0a.507.507,0,0,0-.446.4c-.02.208,0,.456-.01.67q0,.651,0,1.208v.054h-.053l-1.7-.016-.44-.009a.681.681,0,0,1-.144-.01" transform="translate(-59.573 -23.449)" fill="#263238"/>
            <path id="Path_44610" data-name="Path 44610" d="M221.063,324.086h-76.77a1.165,1.165,0,0,1-1.165-1.165v-12.14a1.165,1.165,0,0,1,1.165-1.165h76.77a1.165,1.165,0,0,1,1.165,1.165v12.14a1.165,1.165,0,0,1-1.165,1.165" transform="translate(-57.507 -124.399)" fill="#006ceb"/>
          </g>
        </g>
        <path id="Path_44784" data-name="Path 44784" d="M.465-3.445V1.472H1.2V-.348H2.435a1.423,1.423,0,0,0,1.5-1.541,1.437,1.437,0,0,0-1.5-1.556ZM1.2-1.019V-2.774H2.42a.792.792,0,0,1,.778.885.79.79,0,0,1-.806.871Zm5.809-.343a1.3,1.3,0,0,0-1.156-.585A1.665,1.665,0,0,0,4.2-.2a1.671,1.671,0,0,0,1.62,1.755A1.35,1.35,0,0,0,7.009.908v.564h.7V-1.861h-.7ZM5.946.9A1.064,1.064,0,0,1,4.911-.2,1.06,1.06,0,0,1,5.931-1.29,1.092,1.092,0,0,1,7-.2,1.082,1.082,0,0,1,5.946.9Zm4.1-.442L9.093-1.861H8.336L9.671,1.322,8.95,3.092h.742l2.069-4.952h-.756Zm7.036-.35L14.958-3.445h-.714V1.472h.735V-2.111l2.148,3.582h.692V-3.445h-.735Zm3.3,1.449A1.714,1.714,0,0,0,22.137-.2a1.708,1.708,0,0,0-1.755-1.748A1.7,1.7,0,0,0,18.634-.2,1.708,1.708,0,0,0,20.382,1.557Zm0-.657A1.054,1.054,0,0,1,19.333-.2,1.052,1.052,0,0,1,20.382-1.29,1.058,1.058,0,0,1,21.438-.2,1.06,1.06,0,0,1,20.382.9Zm5.83-.485-.8-2.276h-.657L23.964.416l-.8-2.276h-.756l1.263,3.333h.578l.835-2.391.863,2.391h.592l1.22-3.333H27Z" transform="translate(111.849 193.661)" fill="#fff"/>
        <g id="Group_47768" data-name="Group 47768">
          <g id="Group_47767" data-name="Group 47767" clip-path="url(#clip-path)">
            <path id="Path_44611" data-name="Path 44611" d="M275.928,233.546h-.095a1.074,1.074,0,0,1-1.074-1.074V84.648a1.074,1.074,0,0,1,1.074-1.074h.095A1.074,1.074,0,0,1,277,84.648V232.471a1.074,1.074,0,0,1-1.074,1.074" transform="translate(-110.394 -33.579)" fill="#f5f5f5"/>
            <path id="Path_44612" data-name="Path 44612" d="M276.152,107.122h-.065a.733.733,0,0,1-.733-.733V95.765a.733.733,0,0,1,.733-.733h.065a.733.733,0,0,1,.733.733v10.624a.733.733,0,0,1-.733.733" transform="translate(-110.634 -38.183)" fill="#e0e0e0"/>
            <path id="Path_44613" data-name="Path 44613" d="M217.765,114.652h-70.1A2.65,2.65,0,0,1,145.014,112V84.891a2.65,2.65,0,0,1,2.651-2.651h70.1a2.651,2.651,0,0,1,2.651,2.651V112a2.651,2.651,0,0,1-2.651,2.651" transform="translate(-58.265 -33.043)" fill="#fff"/>
            <path id="Path_44614" data-name="Path 44614" d="M183.334,114.69H147.4a2.388,2.388,0,0,1-2.389-2.388V84.724a2.389,2.389,0,0,1,2.389-2.389h35.932Z" transform="translate(-58.264 -33.081)" fill="#006ceb"/>
            <g id="Group_47757" data-name="Group 47757" transform="translate(93.141 56.801)" opacity="0.3">
              <g id="Group_47756" data-name="Group 47756">
                <g id="Group_47755" data-name="Group 47755" clip-path="url(#clip-path-4)">
                  <path id="Path_44615" data-name="Path 44615" d="M180.641,104.891a6.361,6.361,0,0,0,2.149-3.546,3.4,3.4,0,0,0,.13-2.667,3.25,3.25,0,0,0-1.628-1.228,41.711,41.711,0,0,0-7.28-2.5l-18.231,6.5a2.75,2.75,0,0,0,4.1,3.04,19.758,19.758,0,0,1-.838,10.724,1.766,1.766,0,0,0-.116,1.452c.287.505.977.568,1.559.569l18.278.053a2.285,2.285,0,0,0,2.6-3.422q-.9-3.411-1.793-6.823a1.859,1.859,0,0,1-.032-1.25c.2-.437.7-.636,1.1-.9" transform="translate(-155.698 -94.951)"/>
                </g>
              </g>
            </g>
            <path id="Path_44616" data-name="Path 44616" d="M180.729,111.971c-.127-.269-1.744-6.092-1.744-6.092l.3-6.2.294-8.593-4.178-.744c-3.028,1.757-7.807,2.492-10.876,1.064a4.728,4.728,0,0,0-2.478.826c-.315.288.192,2.792.65,5.259.482,2.6,1.833,9.05,1.833,9.05s-2.292,5.536-2.782,7.128c0,0,14.025-2.543,18.722,0,0,0,.994-.14.259-1.7" transform="translate(-64.988 -36.298)" fill="#fff"/>
            <path id="Path_44617" data-name="Path 44617" d="M153.648,96.608l5.23-3.225,1.406,7.2-2.695,2.289s-4.086-2.115-3.942-6.26" transform="translate(-61.732 -37.52)" fill="#fff"/>
            <path id="Path_44618" data-name="Path 44618" d="M190.984,91.585l5.316,2.3s-1.746,6.666-2.767,7.431l-2.7-1.137-.663,2.09-.038-8.364Z" transform="translate(-76.394 -36.798)" fill="#fff"/>
            <path id="Path_44619" data-name="Path 44619" d="M158.552,104.043a.917.917,0,0,1-.267-.125,5.77,5.77,0,0,1-.671-.439,7.43,7.43,0,0,1-1.805-1.932,7.125,7.125,0,0,1-.648-1.312,6.07,6.07,0,0,1-.291-1.159,4.546,4.546,0,0,1-.056-.8.912.912,0,0,1,.026-.294c.035,0,.032.418.158,1.073a6.9,6.9,0,0,0,.322,1.121,7.724,7.724,0,0,0,.645,1.273,8.392,8.392,0,0,0,1.73,1.929c.517.422.875.639.858.666" transform="translate(-62.201 -39.367)" fill="#e0e0e0"/>
            <path id="Path_44620" data-name="Path 44620" d="M161.371,100.662c-.007.011-.077-.025-.2-.1a3.758,3.758,0,0,1-.459-.4,12.531,12.531,0,0,1-1.248-1.56,16.169,16.169,0,0,1-1.037-1.706,2.3,2.3,0,0,1-.3-.772c.025-.009.153.275.417.709s.636,1.027,1.074,1.664.864,1.194,1.193,1.577c.166.19.308.335.408.434s.164.146.157.157" transform="translate(-63.53 -38.62)" fill="#e0e0e0"/>
            <path id="Path_44621" data-name="Path 44621" d="M179.585,92.4a5.336,5.336,0,0,1-.641.167c-.414.1-1.009.263-1.738.485l-2.558.8a20.732,20.732,0,0,1-3.207.745,12.841,12.841,0,0,1-5.918-.585,11.58,11.58,0,0,1-1.664-.72c-.191-.1-.331-.187-.428-.243a.593.593,0,0,1-.142-.1,5.943,5.943,0,0,1,.6.276,13.835,13.835,0,0,0,1.673.661,13.278,13.278,0,0,0,5.852.526,21.772,21.772,0,0,0,3.183-.726c.967-.282,1.834-.557,2.57-.762s1.338-.349,1.759-.43c.209-.043.374-.065.485-.083a.64.64,0,0,1,.172-.015" transform="translate(-65.608 -37.122)" fill="#e0e0e0"/>
            <path id="Path_44622" data-name="Path 44622" d="M180.079,100.506a.65.65,0,0,1-.169.04l-.489.08c-.425.068-1.043.145-1.808.225-1.531.16-3.656.284-6,.288s-4.471-.087-6.007-.165l-1.817-.106-.494-.039a.618.618,0,0,1-.172-.026.591.591,0,0,1,.173-.011l.5,0,1.819.048c1.536.044,3.657.112,6,.11s4.461-.108,5.991-.234c.765-.063,1.384-.12,1.811-.166l.493-.045a.61.61,0,0,1,.173,0" transform="translate(-65.54 -40.38)" fill="#e0e0e0"/>
            <path id="Path_44623" data-name="Path 44623" d="M180.33,105.948a4.176,4.176,0,0,1-.6.193c-.2.061-.438.115-.721.176s-.605.132-.966.187a40.521,40.521,0,0,1-5.666.495c-2.222.063-4.234-.015-5.687-.115-.726-.053-1.312-.116-1.716-.168a4.088,4.088,0,0,1-.623-.112,4.131,4.131,0,0,1,.631.041c.4.03.991.073,1.716.109,1.451.068,3.458.124,5.674.062a47.894,47.894,0,0,0,5.651-.439c.36-.047.683-.1.966-.16s.528-.095.725-.145a4.176,4.176,0,0,1,.62-.123" transform="translate(-66.033 -42.568)" fill="#e0e0e0"/>
            <path id="Path_44624" data-name="Path 44624" d="M180.354,113.335a3.3,3.3,0,0,1-.578.087c-.373.042-.914.093-1.583.147-1.339.105-3.192.209-5.242.237s-3.908-.05-5.247-.17c-.669-.065-1.209-.126-1.58-.191a3.474,3.474,0,0,1-.574-.108,3.54,3.54,0,0,1,.583.037c.372.043.913.084,1.581.132,1.337.087,3.188.145,5.234.117s3.9-.111,5.236-.182l1.586-.089a3.756,3.756,0,0,1,.584-.015" transform="translate(-66.516 -45.534)" fill="#e0e0e0"/>
            <path id="Path_44625" data-name="Path 44625" d="M180.973,120.275a4.21,4.21,0,0,1-.632-.026l-1.717-.12c-1.45-.1-3.456-.194-5.672-.194s-4.223.1-5.673.194l-1.717.12a4.108,4.108,0,0,1-.632.026,4.179,4.179,0,0,1,.625-.1c.4-.053.989-.114,1.714-.179,1.449-.128,3.459-.249,5.682-.248s4.232.118,5.682.248c.725.064,1.311.126,1.714.178a4.214,4.214,0,0,1,.625.1" transform="translate(-66.267 -48.114)" fill="#e0e0e0"/>
            <path id="Path_44626" data-name="Path 44626" d="M193.383,94.661a6.672,6.672,0,0,1-1.744,2.8c-.041-.035.413-.617.891-1.39s.8-1.435.852-1.414" transform="translate(-76.997 -38.033)" fill="#e0e0e0"/>
            <path id="Path_44627" data-name="Path 44627" d="M162.563,97.981a2.322,2.322,0,0,1,.114.453c.069.329.158.745.263,1.242l.86,4.1c.331,1.6.619,3.057.808,4.113.095.528.164.957.206,1.254a2.288,2.288,0,0,1,.043.465,2.266,2.266,0,0,1-.114-.453c-.07-.329-.158-.745-.263-1.242l-.86-4.1c-.331-1.6-.619-3.056-.808-4.113-.094-.528-.163-.957-.205-1.254a2.234,2.234,0,0,1-.043-.465" transform="translate(-65.314 -39.367)" fill="#263238"/>
            <path id="Path_44628" data-name="Path 44628" d="M191.2,101.166a1.438,1.438,0,0,1,.01.359c-.005.23-.019.562-.04.973-.042.821-.112,1.954-.2,3.2s-.18,2.383-.255,3.2c-.037.41-.071.741-.1.97a1.441,1.441,0,0,1-.06.354,1.254,1.254,0,0,1-.011-.358c.005-.23.019-.562.04-.973.041-.821.112-1.955.2-3.207s.18-2.384.255-3.2c.038-.409.071-.741.1-.969a1.285,1.285,0,0,1,.062-.353" transform="translate(-76.556 -40.647)" fill="#263238"/>
            <path id="Path_44629" data-name="Path 44629" d="M196.461,94.54a9.566,9.566,0,0,1-.434,1.058c-.276.648-.633,1.554-.96,2.576s-.559,1.969-.71,2.657a9.566,9.566,0,0,1-.258,1.113.977.977,0,0,1,.012-.309c.019-.2.059-.481.118-.83a20.571,20.571,0,0,1,1.679-5.261c.153-.319.285-.574.384-.745a1.007,1.007,0,0,1,.169-.259" transform="translate(-77.983 -37.985)" fill="#e0e0e0"/>
            <path id="Path_44630" data-name="Path 44630" d="M180.775,126.048a.816.816,0,0,1-.194-.034l-.547-.131c-.236-.062-.526-.133-.866-.2s-.723-.162-1.154-.226-.9-.154-1.409-.21c-.507-.074-1.053-.109-1.627-.158a28.02,28.02,0,0,0-7.453.5c-.562.124-1.1.232-1.592.373-.5.123-.953.264-1.369.4s-.787.264-1.114.377-.606.22-.832.312l-.525.2a.769.769,0,0,1-.188.059.8.8,0,0,1,.173-.093l.512-.235c.222-.1.5-.223.823-.343s.692-.275,1.11-.4.871-.29,1.37-.419c.494-.148,1.032-.262,1.6-.392a26.714,26.714,0,0,1,7.5-.5c.577.053,1.126.1,1.635.176.511.062.983.15,1.413.233s.815.175,1.153.254.628.158.861.23l.538.165a.789.789,0,0,1,.184.069" transform="translate(-65.052 -50.164)" fill="#e0e0e0"/>
            <path id="Path_44631" data-name="Path 44631" d="M209.113,115.215c-.086,0-.156-7.208-.156-16.1s.069-16.1.156-16.1.156,7.207.156,16.1-.069,16.1-.156,16.1" transform="translate(-83.956 -33.355)" fill="#0569cc"/>
            <path id="Path_44632" data-name="Path 44632" d="M217.661,114.547c0-.013.187,0,.538-.071a2.649,2.649,0,0,0,1.943-1.766,4.133,4.133,0,0,0,.124-1.4c0-1.03-.009-2.215-.014-3.549-.012-5.349-.029-13.073-.05-22.618a4.342,4.342,0,0,0-.053-.875,2.567,2.567,0,0,0-.322-.806,2.525,2.525,0,0,0-1.358-1.083,6.175,6.175,0,0,0-1.842-.131l-1.935,0-8.124.009-17.925.014-41.075.013a2.5,2.5,0,0,0-2.137,1.2,2.451,2.451,0,0,0-.359,1.209l0,1.347q0,2.7,0,5.36,0,5.323,0,10.481t0,10.109a2.49,2.49,0,0,0,2.154,2.374c.372.047.8.019,1.195.027l4.793,0,33.547.034,22.617.05,6.148.029,1.6.015c.361.005.545.016.545.016s-.184.011-.545.016l-1.6.016-6.148.029-22.617.05-33.547.034-4.793,0a12.157,12.157,0,0,1-1.234-.029,2.786,2.786,0,0,1-2.411-2.652q0-4.96-.01-10.121t0-10.481q0-2.661,0-5.36l0-1.357a2.759,2.759,0,0,1,.4-1.36,2.815,2.815,0,0,1,2.4-1.354l41.075.012,17.925.014,8.124.009,1.935,0h.952a2.982,2.982,0,0,1,.963.147,2.748,2.748,0,0,1,1.478,1.184,2.8,2.8,0,0,1,.348.878,4.557,4.557,0,0,1,.055.919c-.021,9.545-.038,17.269-.049,22.618-.005,1.334-.01,2.52-.014,3.549a4.2,4.2,0,0,1-.142,1.42,2.728,2.728,0,0,1-.616,1.012,2.669,2.669,0,0,1-1.4.761,2.138,2.138,0,0,1-.544.04" transform="translate(-58.16 -32.938)" fill="#006ceb"/>
            <path id="Path_44633" data-name="Path 44633" d="M227.816,94.556c0,.086-3.091.156-6.9.156s-6.9-.069-6.9-.156,3.09-.156,6.9-.156,6.9.069,6.9.156" transform="translate(-85.986 -37.929)" fill="#0569cc"/>
            <path id="Path_44634" data-name="Path 44634" d="M241.028,101.669c0,.086-6.1.156-13.628.156s-13.629-.069-13.629-.156,6.1-.156,13.629-.156,13.628.069,13.628.156" transform="translate(-85.89 -40.787)" fill="#0569cc"/>
            <path id="Path_44635" data-name="Path 44635" d="M241.028,105.842c0,.086-6.1.156-13.628.156s-13.629-.069-13.629-.156,6.1-.156,13.629-.156,13.628.069,13.628.156" transform="translate(-85.89 -42.463)" fill="#0569cc"/>
            <path id="Path_44636" data-name="Path 44636" d="M251.542,125.656a1.394,1.394,0,0,0-.336-.765,1.335,1.335,0,0,0-.684-.447.8.8,0,0,1-1.513.165,1.094,1.094,0,0,0-.838-.188,1.336,1.336,0,0,0-.708.409,1.389,1.389,0,0,0-.377.745,1.691,1.691,0,0,0,.181,1.047,2.39,2.39,0,0,0,.8.8c.53.34,1.228.766,1.228.766s.612-.431,1.16-.741a2.4,2.4,0,0,0,.846-.75,1.693,1.693,0,0,0,.239-1.035" transform="translate(-99.268 -49.983)" fill="#006ceb"/>
            <path id="Path_44637" data-name="Path 44637" d="M249.249,128.221l-.042-.026c-.007,0-.7-.43-1.228-.766a2.444,2.444,0,0,1-.828-.821,1.765,1.765,0,0,1-.191-1.094,1.483,1.483,0,0,1,.4-.786,1.415,1.415,0,0,1,.748-.431,1.176,1.176,0,0,1,.9.2.292.292,0,0,0,.583-.026,1.171,1.171,0,0,1,.906-.152,1.418,1.418,0,0,1,.724.472,1.47,1.47,0,0,1,.353.807,1.765,1.765,0,0,1-.251,1.082,2.471,2.471,0,0,1-.872.775c-.538.3-1.148.733-1.154.737Zm-.934-3.794a.963.963,0,0,0-.181.017,1.268,1.268,0,0,0-.668.387,1.328,1.328,0,0,0-.358.7,1.611,1.611,0,0,0,.172,1,2.322,2.322,0,0,0,.779.769c.449.288,1.026.642,1.184.739.146-.1.662-.454,1.126-.717a2.308,2.308,0,0,0,.82-.725,1.6,1.6,0,0,0,.227-.988,1.321,1.321,0,0,0-.318-.723,1.267,1.267,0,0,0-.645-.423,1.018,1.018,0,0,0-.788.132,1,1,0,0,0-.331.354l-.066.117-.065-.118a1.016,1.016,0,0,0-.29-.332,1.028,1.028,0,0,0-.6-.193" transform="translate(-99.218 -49.933)" fill="#263238"/>
            <path id="Path_44638" data-name="Path 44638" d="M262.181,127.435a.372.372,0,0,1-.062,0l-.177,0h-.656l-2.2-.014h-.018l0-.018-.047-.365c-.136-1.07-.257-2.024-.336-2.648l.013.012-.586-.012-.156,0a.347.347,0,0,1-.054,0,.287.287,0,0,1,.054,0l.156,0h.6v.011c.083.623.209,1.577.352,2.646.016.125.032.249.047.366l-.02-.019,2.2.028.656.013.177.005a.379.379,0,0,1,.062,0" transform="translate(-103.619 -49.974)" fill="#263238"/>
            <path id="Path_44639" data-name="Path 44639" d="M261.256,127.455l-2.221-.015a.046.046,0,0,1-.044-.039l-.05-.383-.33-2.6-.692-.016c-.063,0-.1,0-.1-.05s.039-.047.1-.048l.743,0a.059.059,0,0,1,.056.038l0,.011.361,2.728c.011.077.02.154.03.228l2.979.045c.072,0,.1,0,.1.05s-.035.047-.105.048l-.178,0Z" transform="translate(-103.589 -49.944)" fill="#263238"/>
            <path id="Path_44640" data-name="Path 44640" d="M259.579,127.1l.016,0h.886l2.285.014-.02.016c.071-.384.148-.8.229-1.229.041-.221.082-.438.12-.645l.02.025-2.693-.033-.8-.014-.215-.006-.056,0-.019,0a.054.054,0,0,1,.019,0l.056,0h1.012l2.693.019h.025l0,.024c-.038.207-.079.424-.12.645-.081.43-.159.845-.23,1.228l0,.017h-.017l-2.285-.029-.663-.013-.177,0-.045,0-.016,0" transform="translate(-104.197 -50.309)" fill="#263238"/>
            <path id="Path_44641" data-name="Path 44641" d="M262.752,127.163h-.017l-3.173-.049c-.015,0-.059,0-.059-.047a.043.043,0,0,1,.014-.032.061.061,0,0,1,.046-.015l.224,0h.663l2.231.014.325-1.744-3.684-.054c-.02,0-.062,0-.062-.047s.047-.046.063-.047l.272,0h.8l2.719.019a.047.047,0,0,1,.034.017.044.044,0,0,1,.009.037l-.125.669c-.051.279-.1.552-.152.814l-.081.431a.045.045,0,0,1-.044.037" transform="translate(-104.167 -50.279)" fill="#263238"/>
            <path id="Path_44642" data-name="Path 44642" d="M260.733,130.632s0-.028-.017-.074a.31.31,0,0,0-.112-.162.3.3,0,0,0-.277-.041.292.292,0,1,0,.273.51.315.315,0,0,0,.115-.16c.014-.046.014-.074.018-.074a.16.16,0,0,1,0,.078.31.31,0,0,1-.114.179.324.324,0,0,1-.309.048.328.328,0,0,1,.006-.618.324.324,0,0,1,.308.054.311.311,0,0,1,.109.181.157.157,0,0,1,0,.078" transform="translate(-104.502 -52.353)" fill="#263238"/>
            <path id="Path_44643" data-name="Path 44643" d="M260.388,130.972a.362.362,0,0,1-.126-.023.372.372,0,0,1,.008-.7.366.366,0,0,1,.351.063.356.356,0,0,1,.125.208.252.252,0,0,1,0,.086.258.258,0,0,1-.005.086.35.35,0,0,1-.13.206.367.367,0,0,1-.226.077m.008-.619a.248.248,0,0,0-.248.244.247.247,0,0,0,.158.233.25.25,0,0,0,.235-.03.257.257,0,0,0,.1-.136.467.467,0,0,0,.013-.052l0-.009,0-.01a.379.379,0,0,0-.011-.052.268.268,0,0,0-.1-.138.252.252,0,0,0-.15-.05" transform="translate(-104.471 -52.323)" fill="#263238"/>
            <path id="Path_44644" data-name="Path 44644" d="M264.064,130.664s0-.028-.017-.074a.31.31,0,0,0-.112-.162.293.293,0,0,0-.47.23.294.294,0,0,0,.465.239.31.31,0,0,0,.115-.16c.014-.046.015-.074.019-.074a.16.16,0,0,1,0,.078.31.31,0,0,1-.114.179.322.322,0,0,1-.309.048.327.327,0,0,1,.006-.617.324.324,0,0,1,.308.054.312.312,0,0,1,.109.181.157.157,0,0,1,0,.078" transform="translate(-105.84 -52.366)" fill="#263238"/>
            <path id="Path_44645" data-name="Path 44645" d="M263.719,131a.372.372,0,0,1-.118-.725.364.364,0,0,1,.351.063.356.356,0,0,1,.125.207.26.26,0,0,1,0,.087.247.247,0,0,1,0,.085.357.357,0,0,1-.129.206.368.368,0,0,1-.227.077m.008-.619a.248.248,0,0,0-.248.244.248.248,0,0,0,.394.2.267.267,0,0,0,.1-.137.429.429,0,0,0,.012-.051l0-.009v-.009a.465.465,0,0,0-.012-.052.26.26,0,0,0-.1-.138.247.247,0,0,0-.15-.05" transform="translate(-105.81 -52.336)" fill="#263238"/>
            <path id="Path_44646" data-name="Path 44646" d="M265.666,124.17a.884.884,0,1,1-.875-.892.884.884,0,0,1,.875.892" transform="translate(-106.031 -49.531)" fill="#263238"/>
            <path id="Path_44647" data-name="Path 44647" d="M265.408,124.968s0,.007.007.02H265.4a3.624,3.624,0,0,1-.006-.446,2.2,2.2,0,0,1,.038-.466,2.176,2.176,0,0,1,.013.467,3.661,3.661,0,0,1-.03.445H265.4c0-.014.005-.02.008-.02" transform="translate(-106.63 -49.852)" fill="#fff"/>
            <path id="Path_44648" data-name="Path 44648" d="M265.591,124.832a2.16,2.16,0,0,1-.465.013,2.137,2.137,0,0,1-.464-.038,4.257,4.257,0,0,1,.929.026" transform="translate(-106.338 -50.139)" fill="#fff"/>
            <path id="Path_44649" data-name="Path 44649" d="M227.842,128.111c0,.086-2.812.156-6.279.156s-6.279-.069-6.279-.156,2.811-.156,6.279-.156,6.279.069,6.279.156" transform="translate(-86.498 -51.411)" fill="#0569cc"/>
            <path id="Path_44650" data-name="Path 44650" d="M217.765,177.284h-70.1a2.65,2.65,0,0,1-2.651-2.651v-27.11a2.65,2.65,0,0,1,2.651-2.651h70.1a2.651,2.651,0,0,1,2.651,2.651v27.11a2.651,2.651,0,0,1-2.651,2.651" transform="translate(-58.265 -58.208)" fill="#f5f5f5"/>
            <path id="Path_44651" data-name="Path 44651" d="M183.334,177.322H147.4a2.389,2.389,0,0,1-2.389-2.389V147.356a2.389,2.389,0,0,1,2.389-2.389h35.932Z" transform="translate(-58.264 -58.246)" fill="#fff"/>
            <path id="Path_44652" data-name="Path 44652" d="M209.113,177.847c-.086,0-.156-7.208-.156-16.1s.069-16.1.156-16.1.156,7.207.156,16.1-.069,16.1-.156,16.1" transform="translate(-83.956 -58.519)" fill="#e0e0e0"/>
            <path id="Path_44653" data-name="Path 44653" d="M217.661,177.179c0-.013.187,0,.538-.071a2.649,2.649,0,0,0,1.943-1.766,4.133,4.133,0,0,0,.124-1.4c0-1.03-.009-2.215-.014-3.549-.012-5.349-.029-13.074-.05-22.618a4.342,4.342,0,0,0-.053-.875,2.567,2.567,0,0,0-.322-.806,2.525,2.525,0,0,0-1.358-1.083,6.175,6.175,0,0,0-1.842-.131l-1.935,0-8.124.009-17.925.014-41.075.013a2.5,2.5,0,0,0-2.137,1.2,2.451,2.451,0,0,0-.359,1.209l0,1.347q0,2.7,0,5.36,0,5.323,0,10.481t0,10.109a2.489,2.489,0,0,0,2.154,2.374c.372.047.8.019,1.195.027l4.793,0,33.547.033,22.617.05,6.148.029,1.6.015c.361.005.545.016.545.016s-.184.011-.545.016l-1.6.015-6.148.029-22.617.05-33.547.033-4.793,0a12.165,12.165,0,0,1-1.234-.029,2.786,2.786,0,0,1-2.411-2.652q0-4.96-.01-10.121t0-10.481q0-2.661,0-5.36l0-1.357a2.759,2.759,0,0,1,.4-1.36,2.814,2.814,0,0,1,2.4-1.354l41.075.012,17.925.014,8.124.009,1.935,0h.952a2.981,2.981,0,0,1,.963.147,2.748,2.748,0,0,1,1.478,1.184,2.8,2.8,0,0,1,.348.878,4.555,4.555,0,0,1,.055.919c-.021,9.545-.038,17.269-.049,22.618-.005,1.334-.01,2.52-.014,3.549a4.2,4.2,0,0,1-.142,1.42,2.728,2.728,0,0,1-.616,1.012,2.669,2.669,0,0,1-1.4.761,2.137,2.137,0,0,1-.544.04" transform="translate(-58.16 -58.103)" fill="#e0e0e0"/>
            <path id="Path_44654" data-name="Path 44654" d="M227.816,157.188c0,.086-3.091.156-6.9.156s-6.9-.069-6.9-.156,3.09-.156,6.9-.156,6.9.069,6.9.156" transform="translate(-85.986 -63.093)" fill="#263238"/>
            <path id="Path_44655" data-name="Path 44655" d="M241.028,164.3c0,.086-6.1.156-13.628.156s-13.629-.069-13.629-.156,6.1-.156,13.629-.156,13.628.069,13.628.156" transform="translate(-85.89 -65.951)" fill="#e0e0e0"/>
            <path id="Path_44656" data-name="Path 44656" d="M241.028,168.474c0,.086-6.1.156-13.628.156s-13.629-.069-13.629-.156,6.1-.156,13.629-.156,13.628.069,13.628.156" transform="translate(-85.89 -67.628)" fill="#e0e0e0"/>
            <path id="Path_44657" data-name="Path 44657" d="M251.542,188.288a1.394,1.394,0,0,0-.336-.765,1.335,1.335,0,0,0-.684-.447.8.8,0,0,1-1.513.165,1.094,1.094,0,0,0-.838-.188,1.336,1.336,0,0,0-.708.409,1.389,1.389,0,0,0-.377.745,1.691,1.691,0,0,0,.181,1.047,2.39,2.39,0,0,0,.8.8c.53.34,1.228.766,1.228.766s.612-.431,1.16-.741a2.4,2.4,0,0,0,.846-.75,1.693,1.693,0,0,0,.239-1.035" transform="translate(-99.268 -75.147)" fill="#006ceb"/>
            <path id="Path_44658" data-name="Path 44658" d="M249.249,190.852l-.042-.026c-.007,0-.7-.43-1.228-.766a2.434,2.434,0,0,1-.828-.821,1.765,1.765,0,0,1-.191-1.094,1.483,1.483,0,0,1,.4-.786,1.415,1.415,0,0,1,.748-.431,1.176,1.176,0,0,1,.9.2.292.292,0,0,0,.583-.026,1.174,1.174,0,0,1,.906-.152,1.4,1.4,0,0,1,.724.472,1.47,1.47,0,0,1,.353.807,1.765,1.765,0,0,1-.251,1.082,2.464,2.464,0,0,1-.872.774c-.538.3-1.148.733-1.154.738Zm-.934-3.794a.966.966,0,0,0-.181.017,1.268,1.268,0,0,0-.668.387,1.326,1.326,0,0,0-.358.7,1.611,1.611,0,0,0,.172,1,2.317,2.317,0,0,0,.779.769c.449.288,1.026.642,1.184.739.146-.1.662-.454,1.126-.717a2.307,2.307,0,0,0,.82-.725,1.6,1.6,0,0,0,.227-.988,1.321,1.321,0,0,0-.318-.723,1.262,1.262,0,0,0-.645-.423,1,1,0,0,0-1.119.486l-.066.117-.065-.118a1,1,0,0,0-.888-.524" transform="translate(-99.218 -75.097)" fill="#263238"/>
            <path id="Path_44659" data-name="Path 44659" d="M262.181,190.067a.41.41,0,0,1-.062,0l-.177,0h-.656l-2.2-.014h-.018l0-.018-.047-.365c-.136-1.07-.257-2.024-.336-2.648l.013.012-.586-.012-.156,0a.352.352,0,0,1-.054,0,.289.289,0,0,1,.054,0l.156,0h.6v.011c.083.623.209,1.577.352,2.646.016.125.032.249.047.365l-.02-.019,2.2.028.656.013.177.005a.347.347,0,0,1,.062,0" transform="translate(-103.619 -75.139)" fill="#263238"/>
            <path id="Path_44660" data-name="Path 44660" d="M261.256,190.087l-2.22-.014a.045.045,0,0,1-.044-.039l-.38-2.982-.692-.016c-.061,0-.1,0-.1-.049s.037-.047.1-.048l.744,0a.059.059,0,0,1,.056.038l0,.011.36,2.717c.011.081.021.161.031.239l2.978.045c.073,0,.105,0,.105.05s-.035.047-.105.048l-.178,0Z" transform="translate(-103.589 -75.108)" fill="#263238"/>
            <path id="Path_44661" data-name="Path 44661" d="M259.579,189.729l.016,0h.045l.177,0h.663l2.285.015-.02.016c.071-.384.148-.8.229-1.229.041-.221.082-.438.12-.645l.02.025-2.693-.033-.8-.014-.215-.006-.056,0c-.012,0-.019,0-.019,0h.019l.056,0h1.012l2.693.019h.025l0,.025c-.038.207-.079.424-.12.645l-.23,1.229,0,.017h-.017l-2.285-.03-.663-.012-.177,0-.045,0-.016,0" transform="translate(-104.197 -75.474)" fill="#263238"/>
            <path id="Path_44662" data-name="Path 44662" d="M262.752,189.795h-.017l-3.172-.049c-.049,0-.059-.026-.059-.047a.043.043,0,0,1,.014-.032.059.059,0,0,1,.045-.014l.225,0h.663l2.231.014.325-1.744-3.684-.054c-.02,0-.062,0-.062-.047s.047-.046.063-.047l.272,0,.8,0,2.719.019a.045.045,0,0,1,.034.017.043.043,0,0,1,.009.036l-.125.669c-.051.275-.1.543-.15.8l-.083.443a.045.045,0,0,1-.044.037" transform="translate(-104.167 -75.443)" fill="#263238"/>
            <path id="Path_44663" data-name="Path 44663" d="M260.733,193.264s0-.027-.017-.074a.31.31,0,0,0-.112-.162.3.3,0,0,0-.277-.041.292.292,0,1,0,.273.51.315.315,0,0,0,.115-.16c.014-.046.014-.074.018-.074a.16.16,0,0,1,0,.078.31.31,0,0,1-.114.179.324.324,0,0,1-.309.048.328.328,0,0,1,.006-.618.324.324,0,0,1,.308.054.312.312,0,0,1,.109.181.157.157,0,0,1,0,.078" transform="translate(-104.502 -77.518)" fill="#263238"/>
            <path id="Path_44664" data-name="Path 44664" d="M260.388,193.6a.362.362,0,0,1-.126-.023.372.372,0,0,1,.008-.7.366.366,0,0,1,.351.062.359.359,0,0,1,.125.208.253.253,0,0,1,0,.086.257.257,0,0,1-.005.086.348.348,0,0,1-.13.206.364.364,0,0,1-.226.078m.008-.619a.24.24,0,0,0-.084.015.246.246,0,0,0-.005.461.251.251,0,0,0,.235-.029.256.256,0,0,0,.1-.137.5.5,0,0,0,.013-.051l0-.01,0-.01a.4.4,0,0,0-.011-.051.269.269,0,0,0-.1-.138.255.255,0,0,0-.15-.05" transform="translate(-104.471 -77.488)" fill="#263238"/>
            <path id="Path_44665" data-name="Path 44665" d="M264.064,193.3s0-.028-.017-.074a.31.31,0,0,0-.112-.162.293.293,0,0,0-.47.23.294.294,0,0,0,.465.239.31.31,0,0,0,.115-.16c.014-.046.015-.074.019-.074a.16.16,0,0,1,0,.078.31.31,0,0,1-.114.179.324.324,0,0,1-.309.048.328.328,0,0,1,.006-.618.324.324,0,0,1,.308.054.312.312,0,0,1,.109.181.157.157,0,0,1,0,.078" transform="translate(-105.84 -77.531)" fill="#263238"/>
            <path id="Path_44666" data-name="Path 44666" d="M263.719,193.635a.358.358,0,0,1-.126-.023.372.372,0,0,1,.008-.7.364.364,0,0,1,.351.062.359.359,0,0,1,.125.208.256.256,0,0,1,0,.086.272.272,0,0,1,0,.086.355.355,0,0,1-.13.206.361.361,0,0,1-.226.078m.008-.619a.24.24,0,0,0-.084.015.252.252,0,0,0-.163.229.249.249,0,0,0,.394.2.269.269,0,0,0,.1-.137.434.434,0,0,0,.012-.052l0-.009v-.008a.435.435,0,0,0-.012-.052.263.263,0,0,0-.1-.139.254.254,0,0,0-.15-.05" transform="translate(-105.81 -77.5)" fill="#263238"/>
            <path id="Path_44667" data-name="Path 44667" d="M265.666,186.8a.884.884,0,1,1-.875-.892.884.884,0,0,1,.875.892" transform="translate(-106.031 -74.696)" fill="#263238"/>
            <path id="Path_44668" data-name="Path 44668" d="M265.408,187.6s0,.007.007.02H265.4a3.624,3.624,0,0,1-.006-.446,2.2,2.2,0,0,1,.038-.466,2.175,2.175,0,0,1,.013.467,3.66,3.66,0,0,1-.03.445H265.4c0-.014.005-.02.008-.02" transform="translate(-106.63 -75.017)" fill="#fff"/>
            <path id="Path_44669" data-name="Path 44669" d="M265.591,187.464a2.16,2.16,0,0,1-.465.013,2.136,2.136,0,0,1-.464-.038,4.255,4.255,0,0,1,.929.026" transform="translate(-106.338 -75.304)" fill="#fff"/>
            <path id="Path_44670" data-name="Path 44670" d="M227.842,190.743c0,.086-2.812.156-6.279.156s-6.279-.069-6.279-.156,2.811-.156,6.279-.156,6.279.069,6.279.156" transform="translate(-86.498 -76.575)" fill="#263238"/>
            <path id="Path_44671" data-name="Path 44671" d="M217.765,239.141h-70.1a2.65,2.65,0,0,1-2.651-2.651V209.38a2.65,2.65,0,0,1,2.651-2.651h70.1a2.651,2.651,0,0,1,2.651,2.651v27.11a2.651,2.651,0,0,1-2.651,2.651" transform="translate(-58.265 -83.061)" fill="#f5f5f5"/>
            <path id="Path_44672" data-name="Path 44672" d="M183.334,239.179H147.4a2.388,2.388,0,0,1-2.389-2.388V209.213a2.389,2.389,0,0,1,2.389-2.389h35.932Z" transform="translate(-58.264 -83.099)" fill="#fff"/>
            <path id="Path_44673" data-name="Path 44673" d="M209.113,239.7c-.086,0-.156-7.208-.156-16.1s.069-16.1.156-16.1.156,7.207.156,16.1-.069,16.1-.156,16.1" transform="translate(-83.956 -83.373)" fill="#e0e0e0"/>
            <path id="Path_44674" data-name="Path 44674" d="M217.661,239.036c0-.013.187,0,.538-.071a2.649,2.649,0,0,0,1.943-1.766,4.133,4.133,0,0,0,.124-1.4c0-1.03-.009-2.215-.014-3.549-.012-5.349-.029-13.073-.05-22.618a4.341,4.341,0,0,0-.053-.875,2.567,2.567,0,0,0-.322-.806,2.525,2.525,0,0,0-1.358-1.083,6.176,6.176,0,0,0-1.842-.131l-1.935,0-8.124.009-17.925.014-41.075.013a2.5,2.5,0,0,0-2.137,1.2,2.451,2.451,0,0,0-.359,1.209l0,1.347q0,2.7,0,5.36,0,5.323,0,10.481t0,10.109a2.489,2.489,0,0,0,2.154,2.374c.372.047.8.019,1.195.027l4.793,0,33.547.034,22.617.05,6.148.029,1.6.015c.361.005.545.016.545.016s-.184.011-.545.016l-1.6.016-6.148.029-22.617.05-33.547.033-4.793,0a12.165,12.165,0,0,1-1.234-.029,2.786,2.786,0,0,1-2.411-2.653q0-4.96-.01-10.121t0-10.481q0-2.661,0-5.36l0-1.357a2.761,2.761,0,0,1,.4-1.36,2.815,2.815,0,0,1,2.4-1.354l41.075.012,17.925.014,8.124.009,1.935,0,.952,0a2.965,2.965,0,0,1,.963.147,2.748,2.748,0,0,1,1.478,1.184,2.8,2.8,0,0,1,.348.878,4.557,4.557,0,0,1,.055.919c-.021,9.544-.038,17.269-.049,22.618-.005,1.334-.01,2.52-.014,3.549a4.2,4.2,0,0,1-.142,1.42,2.728,2.728,0,0,1-.616,1.012,2.669,2.669,0,0,1-1.4.761,2.136,2.136,0,0,1-.544.04" transform="translate(-58.16 -82.956)" fill="#e0e0e0"/>
            <path id="Path_44675" data-name="Path 44675" d="M227.816,219.045c0,.086-3.091.156-6.9.156s-6.9-.069-6.9-.156,3.09-.156,6.9-.156,6.9.069,6.9.156" transform="translate(-85.986 -87.947)" fill="#263238"/>
            <path id="Path_44676" data-name="Path 44676" d="M241.028,226.157c0,.086-6.1.156-13.628.156s-13.629-.069-13.629-.156,6.1-.156,13.629-.156,13.628.069,13.628.156" transform="translate(-85.89 -90.804)" fill="#e0e0e0"/>
            <path id="Path_44677" data-name="Path 44677" d="M241.028,230.33c0,.086-6.1.156-13.628.156s-13.629-.07-13.629-.156,6.1-.156,13.629-.156,13.628.069,13.628.156" transform="translate(-85.89 -92.481)" fill="#e0e0e0"/>
            <path id="Path_44678" data-name="Path 44678" d="M251.542,250.145a1.394,1.394,0,0,0-.336-.765,1.334,1.334,0,0,0-.684-.447.8.8,0,0,1-1.513.165,1.094,1.094,0,0,0-.838-.188,1.336,1.336,0,0,0-.708.409,1.389,1.389,0,0,0-.377.745,1.691,1.691,0,0,0,.181,1.047,2.39,2.39,0,0,0,.8.8c.53.34,1.228.766,1.228.766s.612-.431,1.16-.741a2.4,2.4,0,0,0,.846-.75,1.693,1.693,0,0,0,.239-1.035" transform="translate(-99.268 -100.001)" fill="#006ceb"/>
            <path id="Path_44679" data-name="Path 44679" d="M249.249,252.71l-.042-.026c-.007,0-.7-.43-1.228-.767a2.444,2.444,0,0,1-.828-.821,1.766,1.766,0,0,1-.191-1.094,1.482,1.482,0,0,1,.4-.785,1.415,1.415,0,0,1,.748-.431,1.175,1.175,0,0,1,.9.2,1.118,1.118,0,0,1,.269.275,1.156,1.156,0,0,1,.313-.3,1.183,1.183,0,0,1,.906-.152,1.424,1.424,0,0,1,.724.472,1.472,1.472,0,0,1,.353.807,1.764,1.764,0,0,1-.251,1.082,2.454,2.454,0,0,1-.872.774c-.538.3-1.148.733-1.154.738Zm-.934-3.794a.966.966,0,0,0-.181.017,1.264,1.264,0,0,0-.668.387,1.325,1.325,0,0,0-.358.7,1.612,1.612,0,0,0,.173,1,2.3,2.3,0,0,0,.778.769c.449.288,1.026.642,1.184.739.146-.1.662-.455,1.126-.717a2.314,2.314,0,0,0,.82-.725,1.6,1.6,0,0,0,.227-.989,1.32,1.32,0,0,0-.318-.723,1.268,1.268,0,0,0-.645-.424,1.029,1.029,0,0,0-.788.133,1.013,1.013,0,0,0-.33.354l-.066.117-.065-.117a1.009,1.009,0,0,0-.29-.331,1.021,1.021,0,0,0-.6-.193" transform="translate(-99.218 -99.951)" fill="#263238"/>
            <path id="Path_44680" data-name="Path 44680" d="M262.181,251.924a.375.375,0,0,1-.062,0l-.177,0h-.656l-2.2-.014h-.018l0-.018-.047-.365c-.136-1.07-.257-2.024-.336-2.648l.013.012-.586-.012-.156,0a.348.348,0,0,1-.054,0,.284.284,0,0,1,.054,0l.156,0h.6v.011c.083.623.209,1.577.352,2.646.016.125.032.249.047.365l-.02-.019,2.2.028.656.013.177.005a.379.379,0,0,1,.062,0" transform="translate(-103.619 -99.992)" fill="#263238"/>
            <path id="Path_44681" data-name="Path 44681" d="M261.256,251.944l-2.22-.014a.045.045,0,0,1-.044-.039l-.38-2.982-.692-.016c-.059,0-.1,0-.1-.049s.039-.047.1-.048l.156,0h.587a.059.059,0,0,1,.056.038l0,.011.361,2.723c.011.08.02.158.031.233l2.978.045c.073,0,.105,0,.105.05s-.035.047-.105.048l-.178,0Z" transform="translate(-103.589 -99.962)" fill="#263238"/>
            <path id="Path_44682" data-name="Path 44682" d="M259.579,251.586l.016,0h.886l2.285.014-.02.016c.071-.384.148-.8.229-1.229.041-.221.082-.439.12-.645l.02.025-2.693-.033-.8-.014-.215-.006-.056,0-.019,0a.054.054,0,0,1,.019,0l.056,0h1.012l2.693.019h.025l0,.024c-.038.207-.079.424-.12.645-.081.43-.159.845-.23,1.228l0,.017h-.017l-2.285-.03-.663-.012-.177,0-.045,0-.016,0" transform="translate(-104.197 -100.327)" fill="#263238"/>
            <path id="Path_44683" data-name="Path 44683" d="M262.752,251.652h-.017l-2.286-.03-.663-.011-.224-.008c-.038,0-.059-.018-.059-.047a.043.043,0,0,1,.014-.032.06.06,0,0,1,.045-.015h.037l.851,0,2.231.015.325-1.745-2.994-.038-.419-.007-.272-.008c-.041,0-.062-.018-.062-.047s.045-.045.062-.047h.057l.216,0,1.586.008,1.93.013a.044.044,0,0,1,.034.017.043.043,0,0,1,.009.036l-.125.669-.233,1.245a.045.045,0,0,1-.044.037" transform="translate(-104.167 -100.296)" fill="#263238"/>
            <path id="Path_44684" data-name="Path 44684" d="M260.733,255.121s0-.028-.017-.074a.308.308,0,0,0-.112-.162.3.3,0,0,0-.277-.041.292.292,0,1,0,.273.51.315.315,0,0,0,.115-.16c.014-.046.014-.074.018-.074a.16.16,0,0,1,0,.078.31.31,0,0,1-.114.179.322.322,0,0,1-.309.048.327.327,0,0,1,.006-.617.324.324,0,0,1,.308.054.311.311,0,0,1,.109.181.157.157,0,0,1,0,.078" transform="translate(-104.502 -102.371)" fill="#263238"/>
            <path id="Path_44685" data-name="Path 44685" d="M260.388,255.46a.373.373,0,0,1-.371-.377.372.372,0,0,1,.253-.348.363.363,0,0,1,.476.269.266.266,0,0,1,0,.087.26.26,0,0,1-.005.086.351.351,0,0,1-.13.205.362.362,0,0,1-.226.078m.008-.619a.256.256,0,0,0-.084.014.249.249,0,0,0-.163.229.248.248,0,0,0,.393.2.254.254,0,0,0,.1-.136c.007-.023.011-.041.013-.052l0-.01,0-.01a.393.393,0,0,0-.011-.051.26.26,0,0,0-.1-.138.252.252,0,0,0-.151-.05" transform="translate(-104.471 -102.341)" fill="#263238"/>
            <path id="Path_44686" data-name="Path 44686" d="M264.064,255.153s0-.028-.017-.074a.311.311,0,0,0-.112-.162.292.292,0,1,0,0,.469.31.31,0,0,0,.115-.16c.014-.046.015-.074.019-.074a.16.16,0,0,1,0,.078.31.31,0,0,1-.114.179.324.324,0,0,1-.309.048.328.328,0,0,1,.006-.618.324.324,0,0,1,.308.054.312.312,0,0,1,.109.181.157.157,0,0,1,0,.078" transform="translate(-105.84 -102.384)" fill="#263238"/>
            <path id="Path_44687" data-name="Path 44687" d="M263.719,255.492a.373.373,0,0,1-.118-.726.368.368,0,0,1,.351.063.36.36,0,0,1,.125.207.288.288,0,0,1,0,.087.273.273,0,0,1,0,.086.358.358,0,0,1-.129.206.367.367,0,0,1-.227.078m.008-.619a.247.247,0,1,0,.147.446.266.266,0,0,0,.1-.136.436.436,0,0,0,.012-.052l0-.009v-.008a.379.379,0,0,0-.012-.053.261.261,0,0,0-.1-.138.254.254,0,0,0-.151-.05" transform="translate(-105.81 -102.354)" fill="#263238"/>
            <path id="Path_44688" data-name="Path 44688" d="M265.666,248.659a.884.884,0,1,1-.875-.892.884.884,0,0,1,.875.892" transform="translate(-106.031 -99.549)" fill="#263238"/>
            <path id="Path_44689" data-name="Path 44689" d="M265.408,249.457s0,.007.007.02H265.4a3.633,3.633,0,0,1-.006-.446,2.2,2.2,0,0,1,.038-.466,2.175,2.175,0,0,1,.013.467,3.662,3.662,0,0,1-.03.445H265.4c0-.014.005-.02.008-.02" transform="translate(-106.63 -99.87)" fill="#fff"/>
            <path id="Path_44690" data-name="Path 44690" d="M265.591,249.321a2.159,2.159,0,0,1-.465.013,2.134,2.134,0,0,1-.464-.038,4.258,4.258,0,0,1,.929.026" transform="translate(-106.338 -100.157)" fill="#fff"/>
            <path id="Path_44691" data-name="Path 44691" d="M227.842,252.6c0,.086-2.812.156-6.279.156s-6.279-.069-6.279-.156,2.811-.156,6.279-.156,6.279.069,6.279.156" transform="translate(-86.498 -101.428)" fill="#263238"/>
            <path id="Path_44692" data-name="Path 44692" d="M158.393,156.572s-4.765,11-4.529,16.978l12.4,3.733,2.118-4.028,1.793,4.028s9.581-2.339,12.18-4.677c0,0-2.537-12.865-4.517-15.983,0,0,1.234-2.6.276-2.729s-2.516.13-3.686,0-1.56.185-2.989-.037-1.308,1.6-3.058,1.207-1.759-.763-3.573-1.226-2.845.987-4.009.6a17.671,17.671,0,0,0-2.528-.542,1.27,1.27,0,0,0-1.458.971.451.451,0,0,0,.332.589,2.03,2.03,0,0,1,1.246,1.119" transform="translate(-61.817 -61.773)" fill="#263238"/>
            <path id="Path_44693" data-name="Path 44693" d="M188.91,154.283a2.907,2.907,0,0,1-1.175,2.523,5.533,5.533,0,0,0,1.175-2.523" transform="translate(-75.428 -61.989)" fill="#263238"/>
            <path id="Path_44694" data-name="Path 44694" d="M174.573,166.118a1.819,1.819,0,0,1-.2-.214l-.511-.6-1.768-2.128h.118l-2.407,3v-.109l.062.079,2.346,3.046H172.1l1.768-2.221.511-.627a2.005,2.005,0,0,1,.2-.224,1.363,1.363,0,0,1-.15.226l-.471.64-1.735,2.3-.06.079-.062-.079-2.365-3.032-.062-.08-.043-.055.044-.054,2.426-2.982.06-.074.058.074,1.737,2.207.471.614a1.336,1.336,0,0,1,.15.216" transform="translate(-68.153 -65.494)" fill="#fafafa"/>
            <path id="Path_44695" data-name="Path 44695" d="M189.7,162.93a1.822,1.822,0,0,1-.2-.214l-.511-.6-1.768-2.128h.118l-2.407,3v-.109l.062.079L187.348,166h-.121l1.768-2.221.512-.627a1.977,1.977,0,0,1,.2-.224,1.345,1.345,0,0,1-.15.225l-.471.641-1.735,2.3-.06.079-.062-.079-2.365-3.032-.062-.079-.043-.056.044-.054,2.427-2.982.06-.074.058.074,1.738,2.207.47.614a1.333,1.333,0,0,1,.15.216" transform="translate(-74.233 -64.213)" fill="#fafafa"/>
            <path id="Path_44696" data-name="Path 44696" d="M181.87,154.282a16.274,16.274,0,0,1,1.532,1.832,1.135,1.135,0,1,1-.139,0h0l0,0,0-.006.01-.012.019-.025.038-.048.075-.1.146-.187.279-.351.48-.588a2.782,2.782,0,0,1,.478-.514,2.792,2.792,0,0,1-.379.591l-.45.611-.27.357-.144.188-.074.1-.037.048-.019.025-.01.012,0,.006,0,0h0a1.062,1.062,0,1,1-.141,0,16.221,16.221,0,0,1-1.393-1.941" transform="translate(-73.072 -61.988)" fill="#fafafa"/>
            <path id="Path_44697" data-name="Path 44697" d="M165.123,156.967a3.171,3.171,0,0,1-.513-.547c-.3-.352-.7-.845-1.141-1.4l-.1-.129.145-.01c-.341.574-.653,1.082-.886,1.445a2.86,2.86,0,0,1-.4.566,2.813,2.813,0,0,1,.3-.628c.205-.378.5-.9.838-1.473l.065-.11.08.1.1.129c.438.552.827,1.058,1.1,1.429a3.19,3.19,0,0,1,.416.625" transform="translate(-65.177 -62.15)" fill="#fafafa"/>
            <path id="Path_44698" data-name="Path 44698" d="M184.691,178.862a1.818,1.818,0,0,1-.2-.214l-.511-.6-1.768-2.128h.118l-2.407,3v-.109l.062.079,2.346,3.046h-.121l1.768-2.221.512-.627a1.975,1.975,0,0,1,.2-.224,1.367,1.367,0,0,1-.15.226l-.471.64-1.735,2.3-.06.079-.062-.079L179.849,179l-.062-.079-.043-.056.044-.054,2.427-2.982.06-.074.058.074,1.738,2.207.47.614a1.286,1.286,0,0,1,.15.216" transform="translate(-72.219 -70.614)" fill="#fafafa"/>
            <path id="Path_44699" data-name="Path 44699" d="M166.952,183.055a1.728,1.728,0,0,1-.2-.214l-.511-.6-1.768-2.128h.118c-.7.876-1.528,1.9-2.407,3V183l.061.079,2.346,3.046h-.121l1.769-2.221c.208-.254.377-.463.512-.627a1.839,1.839,0,0,1,.2-.224,1.389,1.389,0,0,1-.151.225q-.184.252-.471.641l-1.735,2.3-.059.079-.062-.079-2.364-3.032-.062-.08-.042-.055.044-.054,2.427-2.981.06-.074.058.074c.706.9,1.3,1.652,1.738,2.207q.284.373.47.614a1.373,1.373,0,0,1,.151.216" transform="translate(-65.091 -72.299)" fill="#fafafa"/>
            <path id="Path_44700" data-name="Path 44700" d="M155.351,172.068a1.274,1.274,0,0,1,.248-.23c.166-.139.411-.336.715-.575.609-.48,1.458-1.132,2.4-1.844l.351-.264-.025.112c-.517-.95-.97-1.8-1.287-2.411a7.289,7.289,0,0,1-.482-1,7.411,7.411,0,0,1,.586.946c.345.6.816,1.436,1.338,2.384l.037.066-.061.046-.349.264c-.944.712-1.8,1.349-2.432,1.8-.314.227-.571.409-.75.531a1.27,1.27,0,0,1-.29.175" transform="translate(-62.418 -66.637)" fill="#fafafa"/>
            <path id="Path_44701" data-name="Path 44701" d="M198.286,175.656a1.215,1.215,0,0,1-.265-.206c-.163-.141-.394-.348-.677-.608-.567-.519-1.341-1.245-2.189-2.055l-.041-.039.019-.053v0c.387-1.108.747-2.107,1.016-2.828.135-.36.246-.65.327-.85a1.23,1.23,0,0,1,.142-.3,1.243,1.243,0,0,1-.078.326c-.061.206-.154.5-.274.869-.239.731-.58,1.737-.967,2.845v0l-.023-.093c.848.809,1.609,1.55,2.153,2.092.272.271.491.493.638.648a1.226,1.226,0,0,1,.218.255" transform="translate(-78.394 -67.786)" fill="#fafafa"/>
            <path id="Path_44702" data-name="Path 44702" d="M181.016,158.036a.842.842,0,0,1-.193.051c-.127.026-.315.074-.561.1a11.171,11.171,0,0,1-2.1.093c-.887-.031-1.937-.151-3.1-.3a26.767,26.767,0,0,0-3.777-.288c-1.344.012-2.622.149-3.785.261s-2.215.209-3.1.236a17.14,17.14,0,0,1-2.1-.05c-.247-.021-.437-.053-.566-.07a.827.827,0,0,1-.2-.038.831.831,0,0,1,.2,0c.13.005.321.026.567.037.493.025,1.207.038,2.088-.007s1.927-.147,3.089-.272,2.444-.264,3.8-.277a25.627,25.627,0,0,1,3.8.3c1.158.158,2.2.29,3.08.337a12.681,12.681,0,0,0,2.084-.036c.49-.05.759-.1.762-.086" transform="translate(-64.908 -63.287)" fill="#263238"/>
            <path id="Path_44703" data-name="Path 44703" d="M163.923,167.434a1.4,1.4,0,0,1,.006-.359c.015-.23.047-.561.1-.97.1-.818.275-1.943.547-3.17s.589-2.322.847-3.1c.129-.391.24-.705.324-.919a1.4,1.4,0,0,1,.146-.327,1.423,1.423,0,0,1-.081.349l-.27.934c-.227.789-.522,1.883-.794,3.105s-.467,2.338-.6,3.149l-.151.961a1.409,1.409,0,0,1-.075.351" transform="translate(-65.859 -63.717)" fill="#263238"/>
            <path id="Path_44704" data-name="Path 44704" d="M166.886,164.115a44.091,44.091,0,0,1,.934-5.508,44.4,44.4,0,0,1-.934,5.508" transform="translate(-67.049 -63.726)" fill="#263238"/>
            <path id="Path_44705" data-name="Path 44705" d="M189.571,172.223a3.278,3.278,0,0,1-.236-.5c-.143-.326-.332-.806-.549-1.4a34.5,34.5,0,0,1-1.977-9.726c-.034-.636-.047-1.151-.043-1.507a3.273,3.273,0,0,1,.022-.553,3.4,3.4,0,0,1,.047.552c.017.355.049.868.1,1.5a40.128,40.128,0,0,0,1.971,9.693c.2.6.372,1.087.5,1.42a3.26,3.26,0,0,1,.172.526" transform="translate(-75.04 -63.696)" fill="#455a64"/>
            <path id="Path_44706" data-name="Path 44706" d="M189.95,163.752a3.009,3.009,0,0,1-.273-.7c-.144-.439-.325-1.051-.5-1.734s-.309-1.307-.394-1.762a3.022,3.022,0,0,1-.1-.743,3.309,3.309,0,0,1,.218.716l.443,1.745.45,1.743a3.322,3.322,0,0,1,.153.733" transform="translate(-75.809 -63.81)" fill="#455a64"/>
            <path id="Path_44707" data-name="Path 44707" d="M166.991,188.055a.441.441,0,0,1-.142-.011c-.092-.015-.228-.032-.4-.07a11.963,11.963,0,0,1-1.44-.4,40.009,40.009,0,0,1-4.495-2.005,19.067,19.067,0,0,0-4.589-1.671,10.213,10.213,0,0,0-1.47-.181,4.112,4.112,0,0,1-.546-.031.445.445,0,0,1,.141-.02c.093,0,.23-.021.407-.017a8.47,8.47,0,0,1,1.491.127,17.581,17.581,0,0,1,4.643,1.634c1.726.844,3.276,1.628,4.46,2.046.589.216,1.076.363,1.415.451a3.938,3.938,0,0,1,.526.148" transform="translate(-61.839 -73.787)" fill="#455a64"/>
            <path id="Path_44708" data-name="Path 44708" d="M192.663,182.468a3.015,3.015,0,0,1-.434.295c-.285.182-.706.431-1.233.726a39.015,39.015,0,0,1-8.729,3.547c-.583.156-1.059.272-1.39.34a2.919,2.919,0,0,1-.517.092,2.97,2.97,0,0,1,.5-.158c.325-.089.794-.223,1.372-.394,1.155-.342,2.737-.862,4.44-1.553s3.2-1.423,4.264-1.984c.533-.28.963-.511,1.257-.675a2.993,2.993,0,0,1,.469-.236" transform="translate(-72.466 -73.313)" fill="#455a64"/>
            <path id="Path_44709" data-name="Path 44709" d="M190.546,156.1a2.49,2.49,0,0,1-1.329,1.481c-.029-.043.326-.314.687-.72a9.01,9.01,0,0,1,.642-.761" transform="translate(-76.024 -62.717)" fill="#263238"/>
            <path id="Path_44710" data-name="Path 44710" d="M168.81,154.55c.053,0,.087.522.307,1.118s.526,1.022.484,1.054a2.607,2.607,0,0,1-.791-2.172" transform="translate(-67.811 -62.096)" fill="#263238"/>
            <path id="Path_44711" data-name="Path 44711" d="M153.205,229.8s4.653-12.714,5.8-13.47a39.3,39.3,0,0,1,5.924-2.107l3.556,11.718,4.235-11.9s4.476,1.351,5.763,3.361,4.592,12.423,4.592,12.423L176,232.535l.9,4.277-17.855-.233,1.079-3.668Z" transform="translate(-61.556 -85.996)" fill="#006ceb"/>
            <g id="Group_47760" data-name="Group 47760" transform="translate(97.748 129.419)" opacity="0.3">
              <g id="Group_47759" data-name="Group 47759">
                <g id="Group_47758" data-name="Group 47758" clip-path="url(#clip-path-5)">
                  <path id="Path_44712" data-name="Path 44712" d="M166.994,223.02a12.512,12.512,0,0,1-1.806-6.678l-1.788.686a13.676,13.676,0,0,0,2.091,6.727,2.133,2.133,0,0,0,.741.8.812.812,0,0,0,1-.141c.306-.4.02-.961-.24-1.39" transform="translate(-163.4 -216.342)"/>
                </g>
              </g>
            </g>
            <g id="Group_47763" data-name="Group 47763" transform="translate(101.765 142.582)" opacity="0.3">
              <g id="Group_47762" data-name="Group 47762">
                <g id="Group_47761" data-name="Group 47761" clip-path="url(#clip-path-6)">
                  <path id="Path_44713" data-name="Path 44713" d="M171.933,238.775a.757.757,0,0,0-.616-.409h.005a1.044,1.044,0,0,0-1.021.494,1.03,1.03,0,0,0,1,1.615.841.841,0,0,0,.523-.29,1.126,1.126,0,0,0,.2-.532,1.406,1.406,0,0,0-.1-.879" transform="translate(-170.115 -238.347)"/>
                </g>
              </g>
            </g>
            <g id="Group_47766" data-name="Group 47766" transform="translate(106.607 144.179)" opacity="0.3">
              <g id="Group_47765" data-name="Group 47765">
                <g id="Group_47764" data-name="Group 47764" clip-path="url(#clip-path-7)">
                  <path id="Path_44714" data-name="Path 44714" d="M186.215,244.17a7.378,7.378,0,0,1-2.4,1.806,3.371,3.371,0,0,1-2.956-.005c-.416-.231-.819-.59-1.291-.535-.342.039-.673.3-1,.181a.587.587,0,0,1-.352-.456.971.971,0,0,1,.522-.967,1.878,1.878,0,0,1,1.143-.162c.388.048.766.159,1.153.215,1.575.226,3.465-1.009,4.587-2.263l.834-.967-.417,2.314Z" transform="translate(-178.209 -241.016)"/>
                </g>
              </g>
            </g>
            <path id="Path_44715" data-name="Path 44715" d="M192.569,234.821a57.6,57.6,0,0,1-1.26,6.066,57.123,57.123,0,0,1,1.26-6.066" transform="translate(-76.863 -94.348)" fill="#263238"/>
            <path id="Path_44716" data-name="Path 44716" d="M188.83,217.557a1,1,0,0,1-.062.306,4.2,4.2,0,0,1-.327.787,4.731,4.731,0,0,1-4.721,2.484,4.107,4.107,0,0,1-.833-.177.98.98,0,0,1-.288-.122c.009-.031.427.13,1.132.181a4.86,4.86,0,0,0,4.607-2.424c.357-.61.462-1.046.492-1.036" transform="translate(-73.366 -87.411)" fill="#fff"/>
            <path id="Path_44717" data-name="Path 44717" d="M189.941,219.549a1.359,1.359,0,0,1-.147.34,5.439,5.439,0,0,1-.552.847,6.14,6.14,0,0,1-5.974,2.25,5.44,5.44,0,0,1-.974-.272,1.384,1.384,0,0,1-.335-.159c.011-.032.5.187,1.329.314a6.328,6.328,0,0,0,5.863-2.209c.541-.645.762-1.129.791-1.113" transform="translate(-73.108 -88.212)" fill="#fff"/>
            <path id="Path_44718" data-name="Path 44718" d="M172.094,231.731a1.853,1.853,0,0,1-.369.156c-.242.087-.587.224-1.009.4a17.751,17.751,0,0,0-5.851,4.042c-.318.33-.568.605-.735.8a1.839,1.839,0,0,1-.276.29,1.856,1.856,0,0,1,.226-.331c.153-.208.39-.5.7-.84a15.784,15.784,0,0,1,5.892-4.07c.43-.167.784-.288,1.033-.357a1.85,1.85,0,0,1,.39-.094" transform="translate(-65.833 -93.105)" fill="#fff"/>
            <path id="Path_44719" data-name="Path 44719" d="M171.364,229.522a1.735,1.735,0,0,1-.367.132c-.239.072-.584.182-1.007.323a27.421,27.421,0,0,0-6.266,3.008c-.374.242-.675.443-.882.584a1.758,1.758,0,0,1-.332.2,1.733,1.733,0,0,1,.294-.257c.194-.158.486-.374.855-.629a22.584,22.584,0,0,1,6.3-3.023c.43-.127.781-.22,1.025-.273a1.726,1.726,0,0,1,.384-.069" transform="translate(-65.294 -92.218)" fill="#fff"/>
            <path id="Path_44720" data-name="Path 44720" d="M196.279,240.289a9.506,9.506,0,0,0-3.477-2.168,1.73,1.73,0,0,1,.6.127,6.083,6.083,0,0,1,2.5,1.557,1.761,1.761,0,0,1,.379.484" transform="translate(-77.465 -95.672)" fill="#fff"/>
            <path id="Path_44721" data-name="Path 44721" d="M156.579,239.157a11.054,11.054,0,0,1-1.378-3.912c.048-.011.28.888.662,1.966s.76,1.925.716,1.947" transform="translate(-62.355 -94.518)" fill="#fff"/>
            <path id="Path_44722" data-name="Path 44722" d="M167.578,250.5a12.863,12.863,0,0,1-3.533-2c.027-.04.8.446,1.769,1s1.784.963,1.764,1.006" transform="translate(-65.911 -99.842)" fill="#fff"/>
            <path id="Path_44723" data-name="Path 44723" d="M174.755,228.8a3.67,3.67,0,0,1-.211-.522c-.126-.339-.3-.833-.513-1.444-.424-1.223-.991-2.917-1.59-4.8s-1.114-3.593-1.475-4.836c-.18-.621-.322-1.125-.415-1.475a3.572,3.572,0,0,1-.129-.548,3.694,3.694,0,0,1,.191.529l.466,1.459c.4,1.258.931,2.95,1.521,4.819s1.14,3.556,1.543,4.812c.189.6.345,1.089.462,1.46a3.673,3.673,0,0,1,.15.543" transform="translate(-68.472 -86.455)" fill="#263238"/>
            <path id="Path_44724" data-name="Path 44724" d="M179.131,237.986a3.477,3.477,0,0,1-1.517.008,3.476,3.476,0,0,1,1.517-.008" transform="translate(-71.363 -95.588)" fill="#263238"/>
            <path id="Path_44725" data-name="Path 44725" d="M184.676,214.663c.059-.259-.869,2.954-2.112,6.885s-2.287,7.108-2.331,7.094.928-3.212,2.171-7.145,2.271-6.835,2.271-6.835" transform="translate(-72.415 -86.243)" fill="#263238"/>
            <path id="Path_44726" data-name="Path 44726" d="M163.662,240.97c-.045.011-.441-1.52-.886-3.418s-.767-3.446-.722-3.456.441,1.519.885,3.418.768,3.446.723,3.456" transform="translate(-65.109 -94.056)" fill="#263238"/>
            <path id="Path_44727" data-name="Path 44727" d="M265.152,60.9c0,.051-1.746.108-3.9.126s-3.9-.01-3.9-.061,1.746-.108,3.9-.126,3.9.01,3.9.061" transform="translate(-103.399 -24.442)" fill="#263238"/>
            <path id="Path_44728" data-name="Path 44728" d="M265.18,64.237c0,.051-1.746.108-3.9.126s-3.9-.01-3.9-.061,1.746-.108,3.9-.126,3.9.01,3.9.061" transform="translate(-103.41 -25.783)" fill="#263238"/>
            <path id="Path_44729" data-name="Path 44729" d="M265.207,67.575c0,.051-1.746.108-3.9.126s-3.9-.01-3.9-.061,1.746-.108,3.9-.126,3.9.01,3.9.061" transform="translate(-103.421 -27.124)" fill="#263238"/>
          </g>
        </g>
        <path id="Path_44783" data-name="Path 44783" d="M2.214,2.211A1.725,1.725,0,0,0,4.082.543c0-.81-.585-1.283-1.515-1.531l-.7-.192c-.7-.184-.754-.545-.754-.721a.916.916,0,0,1,.986-.85.9.9,0,0,1,.978.882H3.9A1.633,1.633,0,0,0,2.126-3.5,1.71,1.71,0,0,0,.29-1.886c0,.457.192,1.154,1.371,1.451l.705.176c.449.12.89.353.89.842a.936.936,0,0,1-1.042.874A1.057,1.057,0,0,1,1.068.527H.25A1.808,1.808,0,0,0,2.214,2.211Zm5.4-1.8A1.02,1.02,0,0,1,6.535,1.473a.876.876,0,0,1-.85-.986V-1.629H4.9V.511c-.008,1.066.561,1.7,1.507,1.7a1.4,1.4,0,0,0,1.21-.665v.569H8.4V-1.629H7.617Zm6.421-2.132a1.38,1.38,0,0,0-1.283.786,1.306,1.306,0,0,0-1.226-.786,1.252,1.252,0,0,0-1.17.681v-.585H9.573V2.114h.786V.1a.966.966,0,0,1,.986-1.074c.465,0,.786.377.786.986v2.1h.794V.247c0-.786.321-1.226.938-1.218.505,0,.826.377.826.986v2.1h.794V-.026C15.481-1.092,14.976-1.725,14.038-1.725Zm7.03,0a1.38,1.38,0,0,0-1.283.786,1.306,1.306,0,0,0-1.226-.786,1.252,1.252,0,0,0-1.17.681v-.585H16.6V2.114h.786V.1a.966.966,0,0,1,.986-1.074c.465,0,.786.377.786.986v2.1h.794V.247c0-.786.321-1.226.938-1.218.505,0,.826.377.826.986v2.1h.794V-.026C22.511-1.092,22.006-1.725,21.068-1.725Zm5.475.657a1.462,1.462,0,0,0-1.3-.657A1.87,1.87,0,0,0,23.393.239a1.877,1.877,0,0,0,1.82,1.972,1.517,1.517,0,0,0,1.331-.729v.633h.786V-1.629h-.786ZM25.349,1.473A1.2,1.2,0,0,1,24.187.239,1.191,1.191,0,0,1,25.333-.988a1.226,1.226,0,0,1,1.2,1.226A1.215,1.215,0,0,1,25.349,1.473Zm5-3.2c-.481,0-.858.281-1.05.938v-.842h-.794V2.114H29.3V.768c0-1.01.321-1.74,1-1.74a1.328,1.328,0,0,1,.553.128l.136-.746A1.441,1.441,0,0,0,30.351-1.725Zm2.758,2.7L32.035-1.629h-.85l1.5,3.575-.81,1.988h.834l2.325-5.563h-.85Z" transform="translate(105.999 36.547)"/>
        <g id="Group_47770" data-name="Group 47770">
          <g id="Group_47769" data-name="Group 47769" clip-path="url(#clip-path)">
            <path id="Path_44730" data-name="Path 44730" d="M141.344,370.593c0,.066-31.644.119-70.669.119S0,370.659,0,370.593s31.637-.119,70.675-.119,70.669.053,70.669.119" transform="translate(0 -148.851)" fill="#263238"/>
            <path id="Path_44731" data-name="Path 44731" d="M85.027,343.971l-.922,9.61s10.475,3.914,10.588,5.849l-19.8.054.011-1.448.831-4.944,1.224-9.6Z" transform="translate(-30.09 -138.009)" fill="#455a64"/>
            <path id="Path_44732" data-name="Path 44732" d="M79.931,357.843a.828.828,0,0,0-.575.943.8.8,0,0,0,.93.578.873.873,0,0,0,.6-1,.826.826,0,0,0-1.034-.494" transform="translate(-31.877 -143.763)" fill="#e0e0e0"/>
            <path id="Path_44733" data-name="Path 44733" d="M74.89,369.254l.011-1.448,18.994.364s.9.395.8,1.03Z" transform="translate(-30.09 -147.779)" fill="#263238"/>
            <path id="Path_44734" data-name="Path 44734" d="M89.6,360.126c0,.1-.5.142-.986.459s-.748.732-.839.693c-.091-.019.058-.61.655-.984s1.192-.259,1.17-.168" transform="translate(-35.257 -144.656)" fill="#263238"/>
            <path id="Path_44735" data-name="Path 44735" d="M93.488,361.64c.022.1-.407.263-.744.681s-.435.86-.534.855c-.093.016-.161-.564.269-1.076s1.007-.555,1.009-.461" transform="translate(-37.021 -145.286)" fill="#263238"/>
            <path id="Path_44736" data-name="Path 44736" d="M96.321,364.779c-.09.021-.227-.474.029-1.015s.719-.756.761-.674-.246.371-.449.82-.242.86-.341.869" transform="translate(-38.653 -145.878)" fill="#263238"/>
            <path id="Path_44737" data-name="Path 44737" d="M90.6,356.085c-.042.09-.5-.048-1.055-.011s-1,.212-1.047.127.369-.437,1.028-.471,1.123.277,1.074.355" transform="translate(-35.556 -142.926)" fill="#263238"/>
            <path id="Path_44738" data-name="Path 44738" d="M44.529,344.463l-.848,9.446s10.314,3.781,10.438,5.683l-19.455.172,0-1.423.786-4.862,1.145-9.441Z" transform="translate(-13.928 -138.23)" fill="#455a64"/>
            <path id="Path_44739" data-name="Path 44739" d="M39.545,358.128a.812.812,0,0,0-.559.93.781.781,0,0,0,.916.562.857.857,0,0,0,.587-.988.811.811,0,0,0-1.018-.479" transform="translate(-15.657 -143.877)" fill="#e0e0e0"/>
            <path id="Path_44740" data-name="Path 44740" d="M34.663,369.372l0-1.423,18.662.243s.888.383.79,1.007Z" transform="translate(-13.927 -147.837)" fill="#263238"/>
            <path id="Path_44741" data-name="Path 44741" d="M49.059,360.309c0,.1-.489.143-.966.458s-.73.724-.82.686c-.09-.019.053-.6.638-.971s1.17-.261,1.149-.172" transform="translate(-18.984 -144.732)" fill="#263238"/>
            <path id="Path_44742" data-name="Path 44742" d="M52.888,361.774c.023.094-.4.261-.726.674s-.423.847-.52.843c-.091.016-.16-.553.258-1.058s.986-.552.988-.459" transform="translate(-20.721 -145.34)" fill="#263238"/>
            <path id="Path_44743" data-name="Path 44743" d="M55.69,364.842c-.088.021-.226-.464.022-1s.7-.747.744-.666-.239.367-.436.808-.233.846-.33.856" transform="translate(-22.328 -145.914)" fill="#263238"/>
            <path id="Path_44744" data-name="Path 44744" d="M50.016,356.335c-.041.089-.487-.044-1.036,0s-.977.214-1.028.131.36-.432,1.007-.469,1.1.266,1.057.342" transform="translate(-19.264 -143.031)" fill="#263238"/>
            <path id="Path_44745" data-name="Path 44745" d="M78.789,204.584s4.694,13.594,4.856,23.708a324.257,324.257,0,0,1-1.78,43.934c-2.1,17.739-3.075,24.868-3.075,24.868H68.106a209.127,209.127,0,0,1-.971-21.055c.162-9.948.939-13.1-.016-24.039s-2.467-17.514-4.058-20.83a22.831,22.831,0,0,1-4.733-12.432,35.051,35.051,0,0,1,2.221-13.369Z" transform="translate(-23.424 -82.199)" fill="#263238"/>
            <path id="Path_44746" data-name="Path 44746" d="M59.611,224.072c-.178.546-3.348,22.834-5.66,32.665s-4.886,12.432-5.337,20.429a147.851,147.851,0,0,1-3.044,20.343H34.195s1.6-17,3.2-30.291,3.91-29.674,3.555-34.59-1.244-10.986,0-17.872,3.934-8.7,3.934-8.7l9.651-.437Z" transform="translate(-13.739 -82.614)" fill="#263238"/>
            <path id="Path_44747" data-name="Path 44747" d="M58.146,215.156a2.351,2.351,0,0,0-.176.346,6.724,6.724,0,0,0-.386,1.047,13.848,13.848,0,0,0-.375,4.074,26.861,26.861,0,0,0,.936,6,19.168,19.168,0,0,0,1.241,3.375,23.992,23.992,0,0,0,2.055,3.261A19.8,19.8,0,0,1,64.328,240a48.112,48.112,0,0,1,1.08,5.947c.21,1.71.336,3.1.43,4.061l.111,1.105A2.3,2.3,0,0,0,66,251.5a2.468,2.468,0,0,0-.007-.388q-.025-.413-.067-1.11c-.066-.963-.166-2.356-.355-4.073a45.645,45.645,0,0,0-1.034-5.982,29.1,29.1,0,0,0-1.076-3.427,16.992,16.992,0,0,0-.794-1.734,18.173,18.173,0,0,0-1.035-1.667,24.2,24.2,0,0,1-2.042-3.23,19.309,19.309,0,0,1-1.239-3.329,27.554,27.554,0,0,1-.979-5.946,14.493,14.493,0,0,1,.3-4.044,8.187,8.187,0,0,1,.34-1.051,2.369,2.369,0,0,0,.132-.365" transform="translate(-22.981 -86.447)" fill="#455a64"/>
            <path id="Path_44748" data-name="Path 44748" d="M115.606,127.376a.339.339,0,0,1,.155-.184c.132-.054.268.059.365.163l1.1,1.173-1.09,2.073a2.953,2.953,0,0,1-.534-3.225" transform="translate(-46.344 -51.098)" fill="#ffbe9d"/>
            <path id="Path_44749" data-name="Path 44749" d="M112.613,132.587a1.277,1.277,0,0,1,.143-.6.514.514,0,0,1,.518-.265.78.78,0,0,1,.433.4l.983,1.539-1.114,2.423a5.755,5.755,0,0,1-.963-3.5" transform="translate(-45.243 -52.922)" fill="#ffbe9d"/>
            <path id="Path_44750" data-name="Path 44750" d="M111.664,138.086c.044-.172.148-.379.326-.364.133.011.216.146.276.265l.656,1.28L111.961,141a4.313,4.313,0,0,1-.3-2.915" transform="translate(-44.813 -55.335)" fill="#ffbe9d"/>
            <path id="Path_44751" data-name="Path 44751" d="M123.961,126.6l-6.952,17.29a.734.734,0,0,1-.784.453l-7.186-1.012a.734.734,0,0,1-.588-.976l6.2-17.184a.735.735,0,0,1,.774-.48l7.935.906a.734.734,0,0,1,.6,1" transform="translate(-43.556 -50.098)" fill="#263238"/>
            <path id="Path_44752" data-name="Path 44752" d="M123.49,127.23l-6.565,16.325a.2.2,0,0,1-.211.122l-7.329-1.032a.2.2,0,0,1-.158-.263l5.853-16.211a.2.2,0,0,1,.208-.129l8.04.918a.2.2,0,0,1,.161.27" transform="translate(-43.881 -50.641)" fill="#455a64"/>
            <path id="Path_44753" data-name="Path 44753" d="M117.085,136.533l.14-.2a.744.744,0,0,0,.382.21c.169.033.249-.009.264-.085.046-.232-.7-.216-.613-.674.042-.211.246-.352.6-.281a.85.85,0,0,1,.408.194l-.132.2a.7.7,0,0,0-.323-.166c-.17-.034-.248.017-.263.094-.045.228.7.214.613.668-.041.206-.247.349-.6.278a.9.9,0,0,1-.474-.243" transform="translate(-47.043 -54.437)" fill="#fff"/>
            <path id="Path_44754" data-name="Path 44754" d="M119.158,136.437a.694.694,0,0,1,1.263-.185l-.217.133a.406.406,0,0,0-.282-.207.4.4,0,0,0-.158.791.4.4,0,0,0,.34-.084l.15.206a.693.693,0,0,1-1.1-.654" transform="translate(-47.87 -54.609)" fill="#fff"/>
            <path id="Path_44755" data-name="Path 44755" d="M121.973,137.39l-.574-.115-.163.243-.293-.059.8-1.126.282.056.306,1.346-.3-.06Zm-.047-.235-.1-.512-.291.434Z" transform="translate(-48.593 -54.777)" fill="#fff"/>
            <path id="Path_44756" data-name="Path 44756" d="M124.858,136.882l-.246,1.236-.235-.047-.467-.873-.15.75-.282-.056.246-1.236.237.047.464.873.15-.751Z" transform="translate(-49.612 -54.906)" fill="#fff"/>
            <path id="Path_44757" data-name="Path 44757" d="M127.138,139.568l-.769-7.964s-1.172.014-1.522,1.695a30.478,30.478,0,0,0-.364,4.623s-2.075.963-2.683,5.931l-1.406,1.706,3.267,3.273s3.349-6.455,3.476-9.264" transform="translate(-48.373 -52.877)" fill="#ffbe9d"/>
            <path id="Path_44758" data-name="Path 44758" d="M115.249,144.189l3.858.675a.848.848,0,0,0,.294-1.67l-3.854-.681a.848.848,0,0,0-.909.461l0,.007a.848.848,0,0,0,.615,1.209" transform="translate(-46.023 -57.254)" fill="#fd8600"/>
            <path id="Path_44759" data-name="Path 44759" d="M121.3,134.333c-.014.065.319.164.744.223a3.691,3.691,0,0,0,.535.04l.008-.171a1.062,1.062,0,0,0-.141.028v.112c.06-.017.093-.036.093-.056s-.032-.039-.093-.056v.112a1.1,1.1,0,0,0,.14.031l.008-.17a3.636,3.636,0,0,0-.519-.106c-.413-.057-.76-.051-.773.013" transform="translate(-48.736 -53.952)" fill="#fff"/>
            <path id="Path_44760" data-name="Path 44760" d="M116.9,139.376a21.662,21.662,0,0,0,4.458.835,21.682,21.682,0,0,0-4.458-.835" transform="translate(-46.97 -55.993)" fill="#fff"/>
            <path id="Path_44761" data-name="Path 44761" d="M46.919,103.978c.951-6.593,2.633-13.831,12.053-13.158a12.985,12.985,0,0,1,7.791,5.228c1.622,2.52-1.089,19.4-3.223,25.946l-17.76,1.4-2.987-.89s3.534-14.427,4.125-18.526" transform="translate(-17.194 -36.473)" fill="#263238"/>
            <path id="Path_44762" data-name="Path 44762" d="M66.134,94.577l-.589-.562-6.369,2.567A1.778,1.778,0,0,0,57.5,98.3l.056,20.751a5.815,5.815,0,0,0,1.124,3.747l.894,1.181a4.7,4.7,0,0,0,7.849-.5,2.261,2.261,0,0,0,.226-.537,4.152,4.152,0,0,0,.095-.464c.19-1.67.2-3.117.2-3.117.114-1.833.151-2.585.151-2.568,0,0,3.9-.448,4.956-5.456a41.208,41.208,0,0,0,.278-9.288c-.2-4.666-3.441-7.485-7.192-7.481" transform="translate(-23.102 -37.774)" fill="#ffbe9d"/>
            <path id="Path_44763" data-name="Path 44763" d="M70.368,113.342a.647.647,0,0,1-.657.622.619.619,0,0,1-.638-.617.649.649,0,0,1,.656-.622.62.62,0,0,1,.639.617" transform="translate(-27.753 -45.291)" fill="#263238"/>
            <path id="Path_44764" data-name="Path 44764" d="M81.18,113.645a.647.647,0,0,1-.657.622.619.619,0,0,1-.638-.617.649.649,0,0,1,.656-.622.621.621,0,0,1,.639.617" transform="translate(-32.097 -45.413)" fill="#263238"/>
            <path id="Path_44765" data-name="Path 44765" d="M81.126,109.187c-.084.08-.557-.307-1.253-.34s-1.225.29-1.3.2c-.035-.04.054-.188.285-.339a1.78,1.78,0,0,1,1.043-.265,1.708,1.708,0,0,1,.992.376c.206.175.271.331.23.367" transform="translate(-31.568 -43.57)" fill="#263238"/>
            <path id="Path_44766" data-name="Path 44766" d="M69.329,109.213c-.093.071-.523-.363-1.212-.467s-1.248.162-1.309.066c-.031-.043.072-.181.318-.307a1.776,1.776,0,0,1,1.064-.157,1.708,1.708,0,0,1,.948.476c.187.2.236.358.191.389" transform="translate(-26.84 -43.524)" fill="#263238"/>
            <path id="Path_44767" data-name="Path 44767" d="M75.069,114.376a4.635,4.635,0,0,1,1.141-.147c.179-.01.349-.036.385-.157a.9.9,0,0,0-.092-.533q-.219-.658-.458-1.381a23.252,23.252,0,0,1-1-3.6,23.372,23.372,0,0,1,1.291,3.513q.229.726.436,1.388a1.028,1.028,0,0,1,.057.7.446.446,0,0,1-.305.246,1.245,1.245,0,0,1-.3.027,4.553,4.553,0,0,1-1.147-.056" transform="translate(-30.147 -43.617)" fill="#263238"/>
            <path id="Path_44768" data-name="Path 44768" d="M70.728,130.666a12.859,12.859,0,0,1-6.669-2.142s1.525,3.58,6.6,3.36Z" transform="translate(-25.738 -51.639)" fill="#eb996e"/>
            <path id="Path_44769" data-name="Path 44769" d="M73.05,120.714a1.256,1.256,0,0,0-1.1-.523,1.149,1.149,0,0,0-.812.385.726.726,0,0,0-.1.827.842.842,0,0,0,.9.276,2.637,2.637,0,0,0,.917-.486.772.772,0,0,0,.209-.2.233.233,0,0,0,.012-.259" transform="translate(-28.506 -48.291)" fill="#eb996e"/>
            <path id="Path_44770" data-name="Path 44770" d="M71.537,118.919c.114,0,.077.755.7,1.324s1.429.526,1.43.632c.008.048-.187.138-.528.13a1.885,1.885,0,0,1-1.2-.485,1.639,1.639,0,0,1-.537-1.108c-.013-.318.081-.5.132-.494" transform="translate(-28.689 -47.78)" fill="#263238"/>
            <path id="Path_44771" data-name="Path 44771" d="M70,104.764c-.1.177-.772-.017-1.595-.044-.824-.043-1.512.093-1.594-.091-.035-.088.105-.247.4-.388a2.775,2.775,0,0,1,2.429.1c.278.165.406.336.363.42" transform="translate(-26.84 -41.79)" fill="#263238"/>
            <path id="Path_44772" data-name="Path 44772" d="M81.087,104.159c-.13.152-.6-.036-1.178-.073-.575-.057-1.071.053-1.175-.118-.045-.083.039-.237.261-.377a1.709,1.709,0,0,1,1.9.154c.2.172.255.339.2.413" transform="translate(-31.629 -41.534)" fill="#263238"/>
            <path id="Path_44773" data-name="Path 44773" d="M57.043,106.93s3.568,1.11,5.587-7.695a12.128,12.128,0,0,1,3.482-5.449l-1.132-.34s-7.035,1.982-7.153,2.071-1.775,3.638-1.775,3.638Z" transform="translate(-22.521 -37.545)" fill="#263238"/>
            <path id="Path_44774" data-name="Path 44774" d="M56.717,114.47c.018-.376-.372-1.284-.741-1.36-.983-.2-2.774-.214-2.917,2.3-.2,3.44,3.3,2.926,3.311,2.828.009-.077.285-2.472.347-3.771" transform="translate(-21.315 -45.413)" fill="#ffbe9d"/>
            <path id="Path_44775" data-name="Path 44775" d="M55.981,117.61c-.014-.012-.062.038-.166.079a.6.6,0,0,1-.449-.016,1.486,1.486,0,0,1-.61-1.369,1.985,1.985,0,0,1,.216-.849.692.692,0,0,1,.477-.434.3.3,0,0,1,.344.184c.041.1.015.167.033.173s.077-.053.057-.2a.383.383,0,0,0-.123-.224.455.455,0,0,0-.327-.106.843.843,0,0,0-.656.5,2.031,2.031,0,0,0-.263.947,1.559,1.559,0,0,0,.79,1.536.644.644,0,0,0,.553-.06c.111-.078.133-.154.122-.162" transform="translate(-21.903 -46.145)" fill="#eb996e"/>
            <path id="Path_44776" data-name="Path 44776" d="M96.781,147.634a32.361,32.361,0,0,0-2.38,5.458l3.094,4.034s5.248-2.737,6.737-3.622a3.017,3.017,0,0,1,1.281-.449.777.777,0,0,0,.094-1.533,4.716,4.716,0,0,0-1.406.22,4.109,4.109,0,0,1-1.689.243s.252-.285.747-.989c.539-.767,2.952-3.226,3.722-4.443.98-1.549.571-2.484.037-2.278-.664.256-3.629,4.315-4.12,4.158,0,0-.434-.8-.945-.924a2.607,2.607,0,0,0-1.021-.013s-.058-.744-.531-.952a1.855,1.855,0,0,0-1.15.033s-.05-.689-.423-.776-1.135.375-2.047,1.832" transform="translate(-37.929 -57.957)" fill="#ffbe9d"/>
            <path id="Path_44777" data-name="Path 44777" d="M98.726,147.985c-.06.179-8.516,8.837-8.516,8.837s-7.057-7.95-9.205-10.874-4.3-6.51-7.109-7.182-6.322.956-6.322.956l3.485,10.4,6.272,8.623s6.777,8.513,10,9.825,6.379-.572,7.752-2,9.515-13.809,9.515-13.809Z" transform="translate(-27.15 -55.689)" fill="#d44751"/>
            <path id="Path_44778" data-name="Path 44778" d="M50.642,179.554l21.394-1.187s-2.3-9.987-4.324-19.982a76.188,76.188,0,0,0-7.425-19.508l-19.459,3.372s-.7,5.383,1.713,15.2c1.113,4.525,3.733,9.783,6.3,16.2L46.279,179.8Z" transform="translate(-16.366 -55.799)" fill="#d44751"/>
            <path id="Path_44779" data-name="Path 44779" d="M74.175,160.4a2.3,2.3,0,0,0,.316.426l.912,1.115c.771.94,1.816,2.256,2.973,3.709s2.225,2.755,3.031,3.67c.4.458.734.823.971,1.068a2.286,2.286,0,0,0,.386.364,2.3,2.3,0,0,0-.316-.426l-.912-1.114c-.771-.941-1.816-2.256-2.973-3.71s-2.225-2.755-3.03-3.669c-.4-.458-.734-.823-.972-1.068a2.285,2.285,0,0,0-.386-.364" transform="translate(-29.802 -64.447)" fill="#263238"/>
            <path id="Path_44780" data-name="Path 44780" d="M55.914,195.844a12.4,12.4,0,0,0,1.6-.193c.984-.139,2.344-.321,3.851-.48s2.876-.263,3.868-.331a12.587,12.587,0,0,0,1.605-.144,1.518,1.518,0,0,0-.433-.033c-.279-.007-.682,0-1.18.009-1,.026-2.371.1-3.884.263s-2.874.369-3.854.552c-.49.09-.885.172-1.156.236a1.523,1.523,0,0,0-.417.123" transform="translate(-22.465 -78.211)" fill="#263238"/>
            <path id="Path_44781" data-name="Path 44781" d="M41.1,123.227c.558-2.078,2.049-3.253,2.471-5.363.364-1.819-.563-3.97-.214-5.791a38.025,38.025,0,0,1,1.734-4.886,31.822,31.822,0,0,0,1.427-4.442,24.652,24.652,0,0,1,.425-2.666c.252-.865,1.269-2.321,3.378-5.316l6.02,5.994c-.915,4.533-2.707,5.656-2.659,8.448a8.569,8.569,0,0,1-.127,3.18c-.315.839-1.036,1.525-1.137,2.416-.137,1.214.918,2.237,1.138,3.438.228,1.248-.468,2.464-.656,3.719-.288,1.927.628,3.806.974,5.724a3.905,3.905,0,0,1-.31,2.745c-.7,1.127-2.15,1.472-3.452,1.719a6.325,6.325,0,0,1-3.114.063,2.172,2.172,0,0,1-1.592-2.374l-.76,2a2.784,2.784,0,0,1-3.1-.939c-.729-.9-.366-1.985-.294-3.14s-.454-3.408-.154-4.526" transform="translate(-16.475 -38.074)" fill="#263238"/>
            <path id="Path_44782" data-name="Path 44782" d="M48.433,129.365a3.657,3.657,0,0,1-.85-1.211,4.4,4.4,0,0,1-.321-1.7,6.5,6.5,0,0,1,.453-2.253c.294-.809.725-1.652,1.15-2.581a9.223,9.223,0,0,0,.916-3.14,4.924,4.924,0,0,0-.209-1.774,10.091,10.091,0,0,1-.44-1.755,2.37,2.37,0,0,1,.49-1.7,8.2,8.2,0,0,1,1.382-1.338,6.99,6.99,0,0,0,1.387-1.419,3.276,3.276,0,0,0,.537-1.862c0-1.276-.391-2.446-.29-3.568a4.278,4.278,0,0,1,1.454-2.739,15.824,15.824,0,0,1,2.246-1.691,8.786,8.786,0,0,0,2.99-2.795,3.723,3.723,0,0,0,.4-1.046c.026-.126.033-.224.042-.288a.329.329,0,0,0,0-.1,4.524,4.524,0,0,1-.53,1.387,8.962,8.962,0,0,1-3,2.7,15.607,15.607,0,0,0-2.291,1.689,4.469,4.469,0,0,0-1.536,2.864c-.107,1.18.281,2.364.276,3.583a3.043,3.043,0,0,1-.5,1.734,6.809,6.809,0,0,1-1.342,1.368,8.352,8.352,0,0,0-1.42,1.38,2.6,2.6,0,0,0-.531,1.862,10.125,10.125,0,0,0,.453,1.8,4.71,4.71,0,0,1,.209,1.7,9.109,9.109,0,0,1-.878,3.072c-.415.925-.84,1.78-1.129,2.6a6.529,6.529,0,0,0-.427,2.312,4.385,4.385,0,0,0,.368,1.737,3.077,3.077,0,0,0,.634.925,1.65,1.65,0,0,0,.3.248" transform="translate(-18.935 -38.734)" fill="#455a64"/>
          </g>
        </g>
      </g>
    </g>
  </g>
</svg>
