<svg xmlns="http://www.w3.org/2000/svg" xmlns:xlink="http://www.w3.org/1999/xlink" width="363" height="272" viewBox="0 0 363 272">
  <defs>
    <linearGradient id="linear-gradient" x2="1" y2="1" gradientUnits="objectBoundingBox">
      <stop offset="0" stop-color="#286ecd"/>
      <stop offset="1" stop-color="#84c2c1"/>
    </linearGradient>
    <clipPath id="clip-path">
      <rect id="Rectangle_27825" data-name="Rectangle 27825" width="12.934" height="21.643" fill="none"/>
    </clipPath>
  </defs>
  <g id="Group_48285" data-name="Group 48285" transform="translate(0.488)">
    <path id="Rectangle_27379" data-name="Rectangle 27379" d="M10,0H353a10,10,0,0,1,10,10V272a0,0,0,0,1,0,0H0a0,0,0,0,1,0,0V10A10,10,0,0,1,10,0Z" transform="translate(-0.488)" fill="url(#linear-gradient)"/>
    <g id="Group_47745" data-name="Group 47745" transform="translate(-5537.488 570.088)">
      <path id="Path_44356" data-name="Path 44356" d="M400.909,94.6a29.13,29.13,0,0,0,4.1,5.131" transform="translate(5417.91 -588.846)" fill="#fff"/>
      <path id="Path_44358" data-name="Path 44358" d="M350.578,99.535l4.1-5.058" transform="translate(5440.706 -588.791)" fill="#fff"/>
      <g id="Group_47780" data-name="Group 47780" transform="translate(-183.465 109.212)">
        <path id="Path_44587" data-name="Path 44587" d="M0,0H31.3V45.367H0Z" transform="translate(5792.857 -534.587)" fill="#e0e0e0"/>
        <g id="Group_47779" data-name="Group 47779">
          <path id="Path_44586" data-name="Path 44586" d="M0,0H31.3V45.367H0Z" transform="translate(5791.289 -534.587)" fill="#f5f5f5"/>
          <path id="Path_44585" data-name="Path 44585" d="M0,0H23.522V35.54H0Z" transform="translate(5795.177 -529.674)" fill="#fff"/>
          <path id="Path_44355" data-name="Path 44355" d="M404.429,20.862a5.439,5.439,0,0,1-.558.811c-.363.486-.88,1.147-1.468,1.863s-1.14,1.348-1.547,1.8a5.4,5.4,0,0,1-.689.7,5.8,5.8,0,0,1,.6-.781l1.507-1.828,1.505-1.829a5.885,5.885,0,0,1,.653-.736" transform="translate(5418.247 -555.448)" fill="#e0e0e0"/>
          <path id="Path_44357" data-name="Path 44357" d="M405.011,99.729a4.643,4.643,0,0,1-.715-.65,22.968,22.968,0,0,1-2.91-3.64,4.635,4.635,0,0,1-.477-.841,6.559,6.559,0,0,1,.577.774c.345.484.83,1.147,1.4,1.855s1.106,1.326,1.5,1.769a6.545,6.545,0,0,1,.628.733" transform="translate(5417.911 -588.845)" fill="#e0e0e0"/>
          <path id="Path_44359" data-name="Path 44359" d="M354.677,94.477a31.2,31.2,0,0,1-1.984,2.583,31.15,31.15,0,0,1-2.116,2.476,31.322,31.322,0,0,1,1.984-2.583,31.269,31.269,0,0,1,2.116-2.476" transform="translate(5440.707 -588.79)" fill="#e0e0e0"/>
          <path id="Path_44360" data-name="Path 44360" d="M350.585,20.862a28.416,28.416,0,0,1,1.99,2.379,28.357,28.357,0,0,1,1.857,2.485,28.313,28.313,0,0,1-1.99-2.379,28.226,28.226,0,0,1-1.856-2.484" transform="translate(5440.704 -555.448)" fill="#e0e0e0"/>
          <path id="Path_44584" data-name="Path 44584" d="M0,0H7.876V22.363H0Z" transform="translate(5803.495 -522.458)" fill="#e0e0e0"/>
        </g>
      </g>
      <path id="Path_44361" data-name="Path 44361" d="M40.453,159.472a4.614,4.614,0,0,1-.659,1.363,6.085,6.085,0,0,1-3.305,2.421,6.166,6.166,0,0,1-2.871.168A6.254,6.254,0,0,1,30.637,162a6.26,6.26,0,0,1-1.945-3.083,6.236,6.236,0,0,1,2.671-6.931,6.257,6.257,0,0,1,3.511-.981,6.254,6.254,0,0,1,3.163.946,6.169,6.169,0,0,1,2.015,2.052,6.088,6.088,0,0,1,.826,4.013,4.613,4.613,0,0,1-.426,1.452c-.042-.013.184-.513.29-1.469a6.094,6.094,0,0,0-.9-3.866,5.973,5.973,0,0,0-4.974-2.806,5.971,5.971,0,0,0-3.32.948,5.922,5.922,0,0,0-2.525,6.551,5.971,5.971,0,0,0,1.825,2.93,5.974,5.974,0,0,0,5.57,1.258,6.093,6.093,0,0,0,3.263-2.262c.562-.781.731-1.3.771-1.285" transform="translate(5586.597 -614.393)" fill="#e0e0e0"/>
      <path id="Path_44362" data-name="Path 44362" d="M37.384,156.184a1.31,1.31,0,0,1,.214.019l.647.08,2.553.342-.06.035,2.018-5.327.033.106-2.866-1.9-.052-.034.007-.062a13.941,13.941,0,0,0-.1-3.684l-.011-.069.056-.042,2.756-2.066-.039.151-2.322-5.2.153.079-3.378.673-.086.017-.055-.068a13.84,13.84,0,0,0-2.665-2.53l-.074-.054.013-.091c.153-1.056.321-2.221.493-3.407l.1.168-5.319-2.042.194-.061-1.914,2.86-.056.084-.1-.011a13.926,13.926,0,0,0-3.668.1l-.1.016-.062-.083-2.059-2.761.207.054-5.207,2.312.1-.193c.211,1.067.438,2.219.667,3.379l.021.1-.083.066A13.838,13.838,0,0,0,14.8,139.79v0h0l-.168.071h-.01l-.013,0-.027,0-.054-.008-.107-.015-.214-.032-.428-.062-.854-.125-1.7-.248.189-.111-2.05,5.316-.065-.206,2.858,1.917.086.058-.011.1a13.786,13.786,0,0,0,.089,3.668l.016.1-.083.061L9.5,152.33l.053-.2,2.3,5.209-.179-.093,3.379-.662.094-.019.059.074a13.826,13.826,0,0,0,2.656,2.537l.074.055-.013.09c-.172,1.168-.34,2.3-.5,3.405l-.092-.157,5.312,2.06-.16.05,1.924-2.855.043-.063.075.009a13.922,13.922,0,0,0,3.681-.083l.069-.011.042.056,2.048,2.768-.125-.033,5.218-2.287-.045.087-.645-3.383-.006-.034.026-.021a14.505,14.505,0,0,0,2.009-1.937l.44-.533a1.482,1.482,0,0,1,.148-.175,1.735,1.735,0,0,1-.124.193c-.089.124-.224.312-.419.553a13.54,13.54,0,0,1-1.983,1.988l.02-.055c.188.921.414,2.026.688,3.374l.013.061-.058.026-5.2,2.333-.075.034-.05-.067-2.066-2.754.111.045a14.088,14.088,0,0,1-3.745.105l.118-.055-1.91,2.864-.059.089-.1-.038-5.32-2.039-.108-.042.016-.115.492-3.407.061.145a14.1,14.1,0,0,1-2.723-2.587l.153.056-3.378.671-.126.025-.053-.118-2.315-5.2-.054-.122.107-.08L12.057,150l-.066.163a14.121,14.121,0,0,1-.1-3.758l.075.161-2.86-1.915-.115-.077.05-.13,2.047-5.317.05-.131.139.02,1.7.248.854.125.428.062.214.031.107.016.054.008.027,0,.013,0h.01l-.166.07h0a14.152,14.152,0,0,1,2.592-2.721l-.062.17c-.228-1.16-.455-2.312-.666-3.379l-.027-.137.127-.056,5.209-2.308.126-.056.082.11,2.056,2.763-.163-.066a14.2,14.2,0,0,1,3.758-.091l-.156.073,1.92-2.857.073-.108.122.047,5.313,2.055.117.045-.018.124c-.176,1.186-.347,2.349-.5,3.4l-.061-.144a14.11,14.11,0,0,1,2.714,2.593l-.141-.051,3.38-.66.108-.021.045.1,2.3,5.213.04.091-.08.059-2.768,2.05.045-.111a14.088,14.088,0,0,1,.082,3.743l-.045-.1,2.851,1.928.059.04-.026.066-2.079,5.3-.017.042-.044-.007-2.522-.4-.652-.109a1.718,1.718,0,0,1-.224-.045" transform="translate(5595.417 -605.297)" fill="#e0e0e0"/>
      <path id="Path_44363" data-name="Path 44363" d="M96.909,130.26a11.627,11.627,0,0,1-2.125,2.232l.553,2.8-4.321,1.916-1.707-2.291a11.593,11.593,0,0,1-3.081.078l-1.59,2.372-4.411-1.7.413-2.826a11.55,11.55,0,0,1-2.232-2.125l-2.8.553-1.916-4.32,2.291-1.707a11.6,11.6,0,0,1-.077-3.081l-2.372-1.59,1.7-4.411,2.826.413a11.578,11.578,0,0,1,2.125-2.232l-.553-2.8,4.32-1.916,1.707,2.291a11.612,11.612,0,0,1,3.08-.078l1.59-2.372,4.411,1.7-.413,2.826a11.552,11.552,0,0,1,2.232,2.125l2.8-.553,1.916,4.32-2.291,1.707a11.574,11.574,0,0,1,.077,3.081l2.372,1.59-1.7,4.41Zm-4.772-4.819a5.071,5.071,0,1,0-6.555,2.908,5.071,5.071,0,0,0,6.555-2.908" transform="translate(5566.187 -595.58)" fill="#e0e0e0" fill-rule="evenodd"/>
      <path id="Path_44364" data-name="Path 44364" d="M51.882,72.347a18.188,18.188,0,0,1-3.332,3.5l.867,4.4-6.776,3.006-2.677-3.593a18.139,18.139,0,0,1-4.831.122L32.639,83.5l-6.916-2.666L26.37,76.4a18.145,18.145,0,0,1-3.5-3.333l-4.4.867L15.47,67.158l3.592-2.677a18.162,18.162,0,0,1-.121-4.831l-3.72-2.494,2.665-6.917,4.432.648a18.14,18.14,0,0,1,3.332-3.5l-.867-4.4,6.776-3.006,2.677,3.593a18.2,18.2,0,0,1,4.831-.121l2.494-3.72L48.477,42.4l-.647,4.431a18.13,18.13,0,0,1,3.5,3.333l4.4-.867,3.006,6.775-3.593,2.677a18.162,18.162,0,0,1,.121,4.831l3.72,2.494-2.665,6.916ZM44.4,64.79a7.951,7.951,0,1,0-10.279,4.56A7.952,7.952,0,0,0,44.4,64.79" transform="translate(5592.597 -563.998)" fill="#e0e0e0" fill-rule="evenodd"/>
      <path id="Path_44365" data-name="Path 44365" d="M191.686,438.263c0,.066-42.914.119-95.839.119C42.9,438.381,0,438.328,0,438.263s42.9-.119,95.847-.119c52.925,0,95.839.053,95.839.119" transform="translate(5640.59 -762.399)" fill="#263238"/>
      <path id="Path_44366" data-name="Path 44366" d="M210.343,226.789H128.568a10.909,10.909,0,0,1-10.909-10.909V22.775a10.909,10.909,0,0,1,10.909-10.909h81.775a10.909,10.909,0,0,1,10.909,10.909v193.1a10.909,10.909,0,0,1-10.909,10.909" transform="translate(5553.444 -551.374)" fill="#e0e0e0"/>
      <path id="Path_44367" data-name="Path 44367" d="M191.719,215.183H109.944a10.909,10.909,0,0,1-10.909-10.909V11.169A10.909,10.909,0,0,1,109.944.26h81.775a10.909,10.909,0,0,1,10.909,10.909v193.1a10.909,10.909,0,0,1-10.909,10.909" transform="translate(5554.636 -546.118)" fill="#fafafa"/>
      <path id="Path_44368" data-name="Path 44368" d="M191.6,215.066s.135-.012.4-.028a8.546,8.546,0,0,0,1.186-.115,10.83,10.83,0,0,0,4.335-1.646,11.418,11.418,0,0,0,2.541-2.3,10.677,10.677,0,0,0,1.93-3.646c.088-.365.2-.731.271-1.113.048-.386.14-.775.155-1.178.057-.8.041-1.645.041-2.511q0-2.6-.006-5.535c-.011-15.646-.026-38.283-.045-66.253s-.019-61.278-.031-98.26q0-6.934,0-14.038,0-3.551,0-7.142a11.924,11.924,0,0,0-.506-3.508,10.971,10.971,0,0,0-4.206-5.644,10.979,10.979,0,0,0-3.27-1.49,11.267,11.267,0,0,0-1.78-.327C192.008.3,191.4.268,190.785.28H187.09l-14.955,0-62.3,0a10.794,10.794,0,0,0-10.708,9.55c-.119,1.288-.057,2.618-.073,3.927V17.7q0,3.926,0,7.824,0,15.592,0,30.7c0,20.127-.006,39.541-.009,58.036s-.009,36.068-.013,52.515q0,12.335-.008,23.8,0,5.725,0,11.217c.008.913-.019,1.829.017,2.726l.033.67c.018.223.063.442.093.662a9.459,9.459,0,0,0,.283,1.3,10.807,10.807,0,0,0,6.891,7.236,11.939,11.939,0,0,0,1.216.342c.411.079.827.14,1.24.192.831.059,1.669.057,2.5.054l9.717,0,17.8.011,28.5.025,18.011.026,4.684.014c1.055,0,1.6.015,1.6.015s-.541.01-1.6.015l-4.684.014-18.011.027-28.5.025-17.8.011-9.717,0c-.831,0-1.667.008-2.519-.051-.421-.053-.844-.114-1.263-.194a12.23,12.23,0,0,1-1.238-.348,11.008,11.008,0,0,1-7.026-7.365,9.581,9.581,0,0,1-.29-1.326c-.031-.225-.077-.449-.095-.675l-.035-.683c-.037-.911-.011-1.816-.019-2.733q0-5.49,0-11.217,0-11.452-.008-23.8c0-16.447-.009-34.021-.014-52.515s-.005-37.909-.008-58.036q0-15.1,0-30.7V13.763c.016-1.315-.048-2.622.075-3.959A11.079,11.079,0,0,1,109.84,0l62.3,0L187.09,0h3.695c.612-.011,1.231.015,1.852.053a11.5,11.5,0,0,1,1.826.336,11.237,11.237,0,0,1,3.354,1.529,11.239,11.239,0,0,1,4.311,5.787,12.217,12.217,0,0,1,.518,3.59q0,3.59,0,7.142,0,7.1,0,14.038c-.011,36.982-.022,70.288-.031,98.26s-.034,50.607-.045,66.253q0,2.933-.007,5.535c0,.867.012,1.7-.048,2.518-.016.407-.11.8-.159,1.187-.073.385-.188.754-.276,1.122a10.751,10.751,0,0,1-1.956,3.667,11.438,11.438,0,0,1-2.565,2.3,10.769,10.769,0,0,1-4.362,1.626,8.131,8.131,0,0,1-1.189.1c-.267.011-.4.013-.4.013" transform="translate(5554.755 -546)" fill="#263238"/>
      <path id="Path_44369" data-name="Path 44369" d="M118.568,36.285c0,.641-.48,1.039-1.248,1.039h-.579v.793h-.666V35.242h1.245c.768,0,1.248.4,1.248,1.043m-.673,0c0-.316-.205-.5-.612-.5h-.542v1h.542c.407,0,.612-.185.612-.5" transform="translate(5546.918 -561.962)" fill="#263238"/>
      <path id="Path_44370" data-name="Path 44370" d="M123.324,38.117l-.554-.8h-.612v.8h-.665V35.242h1.245c.768,0,1.248.4,1.248,1.043a.935.935,0,0,1-.591.908l.645.924Zm-.624-2.333h-.542v1h.542c.406,0,.612-.189.612-.5s-.206-.5-.612-.5" transform="translate(5544.465 -561.962)" fill="#263238"/>
      <path id="Path_44371" data-name="Path 44371" d="M129.233,37.583v.534h-2.226V35.242h2.173v.534h-1.512V36.4H129v.518h-1.334v.665Z" transform="translate(5541.967 -561.962)" fill="#263238"/>
      <path id="Path_44372" data-name="Path 44372" d="M132.707,35.776v.76h1.33v.534h-1.33v1.047h-.665V35.242h2.172v.534Z" transform="translate(5539.687 -561.962)" fill="#263238"/>
      <path id="Path_44373" data-name="Path 44373" d="M139.061,37.583v.534h-2.226V35.242h2.172v.534H137.5V36.4h1.335v.518H137.5v.665Z" transform="translate(5537.515 -561.962)" fill="#263238"/>
      <path id="Path_44374" data-name="Path 44374" d="M143.7,38.117l-.554-.8h-.612v.8h-.665V35.242h1.245c.768,0,1.248.4,1.248,1.043a.935.935,0,0,1-.591.908l.645.924Zm-.624-2.333h-.542v1h.542c.406,0,.612-.189.612-.5s-.206-.5-.612-.5" transform="translate(5535.235 -561.962)" fill="#263238"/>
      <path id="Path_44375" data-name="Path 44375" d="M149.611,37.583v.534h-2.226V35.242h2.173v.534h-1.512V36.4h1.335v.518h-1.335v.665Z" transform="translate(5532.737 -561.962)" fill="#263238"/>
      <path id="Path_44376" data-name="Path 44376" d="M155.056,35.242v2.875h-.547l-1.433-1.745v1.745h-.657V35.242h.55l1.43,1.746V35.242Z" transform="translate(5530.458 -561.962)" fill="#263238"/>
      <path id="Path_44377" data-name="Path 44377" d="M158.151,36.639a1.583,1.583,0,0,1,2.744-.978l-.427.394a.924.924,0,0,0-.723-.337.92.92,0,0,0,0,1.84.918.918,0,0,0,.723-.341l.427.394a1.58,1.58,0,0,1-2.744-.973" transform="translate(5527.861 -561.921)" fill="#263238"/>
      <path id="Path_44378" data-name="Path 44378" d="M166.207,37.583v.534h-2.226V35.242h2.172v.534h-1.511V36.4h1.335v.518h-1.335v.665Z" transform="translate(5525.221 -561.962)" fill="#263238"/>
      <path id="Path_44379" data-name="Path 44379" d="M168.6,37.793l.226-.5a1.691,1.691,0,0,0,.949.3c.394,0,.554-.131.554-.308,0-.538-1.672-.169-1.672-1.236,0-.489.394-.9,1.212-.9a1.931,1.931,0,0,1,1,.254l-.206.5a1.627,1.627,0,0,0-.8-.225c-.394,0-.547.148-.547.328,0,.53,1.672.165,1.672,1.22,0,.48-.4.891-1.22.891a2.052,2.052,0,0,1-1.171-.333" transform="translate(5523.127 -561.921)" fill="#263238"/>
      <path id="Path_44380" data-name="Path 44380" d="M262.028,35.821a.274.274,0,0,1-.274-.274V29.842a.274.274,0,0,1,.547,0v5.705a.274.274,0,0,1-.274.274" transform="translate(5480.937 -559.392)" fill="#263238"/>
      <path id="Path_44381" data-name="Path 44381" d="M266.053,38.851a.274.274,0,0,1-.274-.274V36.533a.274.274,0,0,1,.547,0v2.045a.274.274,0,0,1-.274.274" transform="translate(5479.114 -562.423)" fill="#263238"/>
      <path id="Path_44382" data-name="Path 44382" d="M266.053,32.332a.274.274,0,0,1-.274-.274V30.014a.274.274,0,0,1,.547,0v2.045a.274.274,0,0,1-.274.274" transform="translate(5479.114 -559.47)" fill="#263238"/>
      <path id="Path_44383" data-name="Path 44383" d="M266.278,35.812a.623.623,0,1,1-.623-.623.623.623,0,0,1,.623.623" transform="translate(5479.452 -561.938)" fill="#263238"/>
      <path id="Path_44384" data-name="Path 44384" d="M262.3,37.474a.622.622,0,1,1-.623-.623.623.623,0,0,1,.623.623" transform="translate(5481.254 -562.691)" fill="#263238"/>
      <path id="Path_44385" data-name="Path 44385" d="M269.851,35.821a.274.274,0,0,1-.274-.274V29.842a.274.274,0,1,1,.547,0v5.705a.274.274,0,0,1-.273.274" transform="translate(5477.394 -559.392)" fill="#263238"/>
      <path id="Path_44386" data-name="Path 44386" d="M270.121,31.832a.622.622,0,1,1-.623-.623.623.623,0,0,1,.623.623" transform="translate(5477.711 -560.135)" fill="#263238"/>
      <path id="Path_44387" data-name="Path 44387" d="M202.049,79.916c0,.079-21.686.142-48.431.142s-48.435-.063-48.435-.142,21.681-.142,48.435-.142,48.431.063,48.431.142" transform="translate(5551.851 -582.132)" fill="#263238"/>
      <path id="Path_44388" data-name="Path 44388" d="M200.352,121.757c0,.079-21.686.142-48.431.142s-48.435-.063-48.435-.142,21.681-.142,48.435-.142,48.431.063,48.431.142" transform="translate(5552.62 -601.082)" fill="#e0e0e0"/>
      <path id="Path_44389" data-name="Path 44389" d="M258.131,101.686h-6.757a3.946,3.946,0,1,1,0-7.892h6.757a3.946,3.946,0,1,1,0,7.892m-6.757-7.345a3.4,3.4,0,1,0,0,6.8h6.757a3.4,3.4,0,1,0,0-6.8Z" transform="translate(5487.426 -588.482)" fill="#006ceb"/>
      <path id="Path_44390" data-name="Path 44390" d="M252.367,101.61a2.661,2.661,0,1,1,2.661-2.661,2.664,2.664,0,0,1-2.661,2.661m0-4.775a2.114,2.114,0,1,0,2.114,2.114,2.116,2.116,0,0,0-2.114-2.114" transform="translate(5486.394 -589.611)" fill="#006ceb"/>
      <path id="Path_44391" data-name="Path 44391" d="M200.352,163.37c0,.079-21.686.142-48.431.142s-48.435-.063-48.435-.142,21.681-.142,48.435-.142,48.431.063,48.431.142" transform="translate(5552.62 -619.93)" fill="#e0e0e0"/>
      <path id="Path_44392" data-name="Path 44392" d="M258.358,144.489H251.6a3.672,3.672,0,0,1,0-7.345h6.758a3.672,3.672,0,0,1,0,7.345" transform="translate(5487.199 -608.116)" fill="#006ceb"/>
      <path id="Path_44393" data-name="Path 44393" d="M267.582,142.025a2.387,2.387,0,1,1-2.387-2.387,2.388,2.388,0,0,1,2.387,2.387" transform="translate(5480.459 -609.245)" fill="#fff"/>
      <path id="Path_44394" data-name="Path 44394" d="M200.352,205.387c0,.079-21.686.142-48.431.142s-48.435-.063-48.435-.142,21.681-.142,48.435-.142,48.431.063,48.431.142" transform="translate(5552.62 -638.96)" fill="#e0e0e0"/>
      <path id="Path_44395" data-name="Path 44395" d="M121.482,304.684h.534v2.423h1.5v.452h-2.037Z" transform="translate(5544.469 -683.998)" fill="#263238"/>
      <path id="Path_44396" data-name="Path 44396" d="M127.631,306.817V308.1h-.485v-.267a.777.777,0,0,1-.69.3c-.5,0-.817-.275-.817-.658,0-.366.246-.653.912-.653h.567v-.032c0-.3-.181-.477-.547-.477a1.088,1.088,0,0,0-.665.218l-.2-.374a1.543,1.543,0,0,1,.928-.271c.632,0,1,.3,1,.932m-.513.6v-.255h-.53c-.349,0-.443.131-.443.292,0,.185.156.3.419.3a.559.559,0,0,0,.555-.341" transform="translate(5542.586 -684.542)" fill="#263238"/>
      <path id="Path_44397" data-name="Path 44397" d="M132.638,306.846V308.1h-.514v-1.192c0-.39-.193-.579-.521-.579a.583.583,0,0,0-.612.661V308.1h-.514V305.91h.489v.283a.953.953,0,0,1,.756-.308.857.857,0,0,1,.916.961" transform="translate(5540.395 -684.542)" fill="#263238"/>
      <path id="Path_44398" data-name="Path 44398" d="M137.681,305.91v1.861a1.033,1.033,0,0,1-1.183,1.158,1.744,1.744,0,0,1-1.067-.312l.23-.387a1.324,1.324,0,0,0,.809.263c.485,0,.7-.222.7-.665v-.115a.966.966,0,0,1-.735.292,1.061,1.061,0,1,1,0-2.119.95.95,0,0,1,.76.316v-.291Zm-.5,1.031a.669.669,0,1,0-.665.628.617.617,0,0,0,.665-.628" transform="translate(5538.2 -684.542)" fill="#263238"/>
      <path id="Path_44399" data-name="Path 44399" d="M142.972,305.93v2.193h-.489v-.28a.9.9,0,0,1-.707.309.868.868,0,0,1-.945-.97V305.93h.514v1.183c0,.4.189.587.513.587a.578.578,0,0,0,.6-.661V305.93Z" transform="translate(5535.705 -684.563)" fill="#263238"/>
      <path id="Path_44400" data-name="Path 44400" d="M147.679,306.817V308.1h-.485v-.267a.777.777,0,0,1-.69.3c-.5,0-.817-.275-.817-.658,0-.366.247-.653.912-.653h.567v-.032c0-.3-.181-.477-.546-.477a1.09,1.09,0,0,0-.666.218l-.2-.374a1.543,1.543,0,0,1,.928-.271c.632,0,1,.3,1,.932m-.513.6v-.255h-.53c-.349,0-.443.131-.443.292,0,.185.156.3.419.3a.559.559,0,0,0,.555-.341" transform="translate(5533.506 -684.542)" fill="#263238"/>
      <path id="Path_44401" data-name="Path 44401" d="M152.59,305.91v1.861a1.033,1.033,0,0,1-1.183,1.158,1.744,1.744,0,0,1-1.067-.312l.23-.387a1.324,1.324,0,0,0,.809.263c.485,0,.7-.222.7-.665v-.115a.966.966,0,0,1-.735.292,1.061,1.061,0,1,1,0-2.119.95.95,0,0,1,.76.316v-.291Zm-.5,1.031a.669.669,0,1,0-.665.628.616.616,0,0,0,.665-.628" transform="translate(5531.447 -684.542)" fill="#263238"/>
      <path id="Path_44402" data-name="Path 44402" d="M157.674,307.171h-1.721a.664.664,0,0,0,.711.526.786.786,0,0,0,.6-.239l.275.317a1.231,1.231,0,0,1-2.094-.769,1.091,1.091,0,0,1,1.134-1.121,1.069,1.069,0,0,1,1.109,1.134c0,.041,0,.1-.008.152m-1.725-.341h1.244a.6.6,0,0,0-.62-.534.606.606,0,0,0-.624.534" transform="translate(5529.089 -684.542)" fill="#263238"/>
      <path id="Path_44403" data-name="Path 44403" d="M258.131,227.5h-6.757a3.946,3.946,0,1,1,0-7.891h6.757a3.946,3.946,0,1,1,0,7.891m-6.757-7.344a3.4,3.4,0,1,0,0,6.8h6.757a3.4,3.4,0,1,0,0-6.8Z" transform="translate(5487.426 -645.466)" fill="#006ceb"/>
      <path id="Path_44404" data-name="Path 44404" d="M252.367,227.423a2.661,2.661,0,1,1,2.661-2.661,2.664,2.664,0,0,1-2.661,2.661m0-4.775a2.114,2.114,0,1,0,2.114,2.114,2.116,2.116,0,0,0-2.114-2.114" transform="translate(5486.394 -646.595)" fill="#006ceb"/>
      <path id="Path_44405" data-name="Path 44405" d="M200.352,247.016c0,.079-21.686.142-48.431.142s-48.435-.063-48.435-.142,21.681-.142,48.435-.142,48.431.063,48.431.142" transform="translate(5552.62 -657.815)" fill="#e0e0e0"/>
      <path id="Path_44406" data-name="Path 44406" d="M238.629,307.2v.357h-2.087v-2.875h2.029v.357h-1.618v.883H238.4v.35h-1.442v.928Z" transform="translate(5492.355 -683.998)" fill="#e0e0e0"/>
      <path id="Path_44407" data-name="Path 44407" d="M243.531,306.867v1.253h-.394v-1.207c0-.427-.213-.637-.587-.637a.647.647,0,0,0-.69.723v1.122h-.394v-2.177h.378v.328a.933.933,0,0,1,.784-.349.843.843,0,0,1,.9.945" transform="translate(5490.126 -684.559)" fill="#e0e0e0"/>
      <path id="Path_44408" data-name="Path 44408" d="M248.513,305.942v1.881a.989.989,0,0,1-1.129,1.117,1.614,1.614,0,0,1-1.039-.324l.189-.3a1.325,1.325,0,0,0,.838.284c.514,0,.747-.239.747-.731v-.172a1,1,0,0,1-.784.337,1.055,1.055,0,1,1,0-2.107.992.992,0,0,1,.8.357v-.337Zm-.386,1.031a.751.751,0,0,0-1.5,0,.751.751,0,0,0,1.5,0" transform="translate(5487.968 -684.559)" fill="#e0e0e0"/>
      <rect id="Rectangle_27819" data-name="Rectangle 27819" width="0.394" height="3.047" transform="translate(5737.231 -379.487)" fill="#e0e0e0"/>
      <path id="Path_44409" data-name="Path 44409" d="M253.74,304.514a.26.26,0,0,1,.266-.259.256.256,0,0,1,.267.251.267.267,0,0,1-.533.009m.069.673h.394v2.177h-.394Z" transform="translate(5484.566 -683.804)" fill="#e0e0e0"/>
      <path id="Path_44410" data-name="Path 44410" d="M255.458,307.889l.164-.312a1.4,1.4,0,0,0,.764.226c.365,0,.518-.111.518-.3,0-.489-1.376-.066-1.376-.932,0-.39.349-.653.907-.653a1.577,1.577,0,0,1,.793.2l-.168.312a1.142,1.142,0,0,0-.629-.172c-.345,0-.513.127-.513.3,0,.513,1.38.094,1.38.94,0,.394-.362.645-.941.645a1.565,1.565,0,0,1-.9-.255" transform="translate(5483.789 -684.559)" fill="#e0e0e0"/>
      <path id="Path_44411" data-name="Path 44411" d="M261.786,306.163v1.253h-.394v-1.207c0-.427-.213-.637-.588-.637a.646.646,0,0,0-.69.723v1.121h-.394v-3.047h.394v1.178a.944.944,0,0,1,.768-.329.844.844,0,0,1,.9.945" transform="translate(5481.858 -683.856)" fill="#e0e0e0"/>
      <path id="Path_44412" data-name="Path 44412" d="M122.016,267.542v.875H123.4v.452h-1.388v1.1h-.534v-2.875h2.1v.447Z" transform="translate(5544.469 -666.973)" fill="#263238"/>
      <path id="Path_44413" data-name="Path 44413" d="M125.729,269.417a1.169,1.169,0,1,1,1.167,1.125,1.1,1.1,0,0,1-1.167-1.125m1.82,0a.652.652,0,1,0-.653.686.639.639,0,0,0,.653-.686" transform="translate(5542.546 -667.517)" fill="#263238"/>
      <path id="Path_44414" data-name="Path 44414" d="M133.059,269.256v1.257h-.514v-1.191c0-.39-.193-.579-.521-.579a.583.583,0,0,0-.612.661v1.109H130.9V268.32h.489v.284a.953.953,0,0,1,.756-.309.857.857,0,0,1,.916.961" transform="translate(5540.204 -667.517)" fill="#263238"/>
      <path id="Path_44415" data-name="Path 44415" d="M137.115,270.013a.8.8,0,0,1-.493.148.674.674,0,0,1-.756-.74v-1.055h-.362v-.411h.362v-.5h.513v.5h.588v.411h-.588v1.043c0,.214.107.329.3.329a.462.462,0,0,0,.287-.09Z" transform="translate(5538.118 -667.136)" fill="#263238"/>
      <path id="Path_44416" data-name="Path 44416" d="M140.937,269.631l.185-.415a1.591,1.591,0,0,0,.949.316c.448,0,.637-.16.637-.374,0-.62-1.709-.213-1.709-1.281,0-.464.37-.858,1.158-.858a1.819,1.819,0,0,1,.957.254l-.168.415a1.6,1.6,0,0,0-.793-.226c-.443,0-.624.173-.624.391,0,.612,1.7.213,1.7,1.269,0,.46-.374.855-1.163.855a1.851,1.851,0,0,1-1.134-.345" transform="translate(5535.657 -666.939)" fill="#263238"/>
      <path id="Path_44417" data-name="Path 44417" d="M145.881,266.862a.313.313,0,0,1,.329-.309.305.305,0,0,1,.328.3.329.329,0,0,1-.657.013m.07.669h.513v2.193h-.513Z" transform="translate(5533.418 -666.728)" fill="#263238"/>
      <path id="Path_44418" data-name="Path 44418" d="M149.741,270.122v.411h-1.893v-.324l1.2-1.458h-1.179v-.411h1.836v.324l-1.207,1.458Z" transform="translate(5532.528 -667.538)" fill="#263238"/>
      <path id="Path_44419" data-name="Path 44419" d="M154.013,269.581h-1.721a.664.664,0,0,0,.711.526.786.786,0,0,0,.6-.239l.275.317a1.231,1.231,0,0,1-2.094-.768,1.091,1.091,0,0,1,1.134-1.121,1.07,1.07,0,0,1,1.109,1.134c0,.041,0,.1-.008.152m-1.725-.341h1.244a.6.6,0,0,0-.62-.534.606.606,0,0,0-.624.534" transform="translate(5530.747 -667.517)" fill="#263238"/>
      <path id="Path_44420" data-name="Path 44420" d="M239.208,268.1l0-2.095-1.039,1.745h-.189l-1.039-1.733V268.1h-.394v-2.875h.337l1.2,2.021,1.183-2.021h.336l0,2.875Z" transform="translate(5492.355 -666.127)" fill="#e0e0e0"/>
      <path id="Path_44421" data-name="Path 44421" d="M245.395,267.706h-1.766a.737.737,0,0,0,.788.636.813.813,0,0,0,.629-.263l.217.255a1.186,1.186,0,0,1-2.029-.76,1.066,1.066,0,0,1,1.093-1.109,1.05,1.05,0,0,1,1.077,1.121c0,.032,0,.082-.008.119m-1.766-.284h1.4a.7.7,0,0,0-1.4,0" transform="translate(5489.325 -666.688)" fill="#e0e0e0"/>
      <path id="Path_44422" data-name="Path 44422" d="M250.082,264.912v3.047H249.7v-.345a.92.92,0,0,1-.776.37,1.111,1.111,0,0,1,0-2.222.928.928,0,0,1,.76.349v-1.2Zm-.391,1.959a.734.734,0,1,0-.731.768.716.716,0,0,0,.731-.768" transform="translate(5487.245 -665.985)" fill="#e0e0e0"/>
      <path id="Path_44423" data-name="Path 44423" d="M253.184,265.057a.26.26,0,0,1,.267-.259.257.257,0,1,1-.267.259m.07.673h.394v2.177h-.394Z" transform="translate(5484.818 -665.933)" fill="#e0e0e0"/>
      <path id="Path_44424" data-name="Path 44424" d="M257.417,266.5v2.177h-.374v-.328a.884.884,0,0,1-.739.353.855.855,0,0,1-.937-.949V266.5h.394v1.207c0,.427.213.641.587.641a.64.64,0,0,0,.673-.723V266.5Z" transform="translate(5483.829 -666.705)" fill="#e0e0e0"/>
      <path id="Path_44425" data-name="Path 44425" d="M264.1,267.41v1.253H263.7v-1.207c0-.427-.206-.637-.562-.637a.632.632,0,0,0-.653.723v1.121h-.394v-1.207c0-.427-.205-.637-.562-.637a.632.632,0,0,0-.653.723v1.121h-.394v-2.177h.378v.324a.883.883,0,0,1,.752-.345.806.806,0,0,1,.756.4.982.982,0,0,1,.838-.4.835.835,0,0,1,.891.945" transform="translate(5481.512 -666.688)" fill="#e0e0e0"/>
      <path id="Path_44426" data-name="Path 44426" d="M200.352,287.17c0,.079-21.686.142-48.431.142s-48.435-.063-48.435-.142,21.681-.142,48.435-.142,48.431.063,48.431.142" transform="translate(5552.62 -676.002)" fill="#e0e0e0"/>
      <path id="Path_44427" data-name="Path 44427" d="M272.7,268.764a.274.274,0,0,1-.188-.473l.654-.615-.664-.7a.273.273,0,1,1,.395-.378l.854.9a.274.274,0,0,1-.01.388l-.854.8a.273.273,0,0,1-.188.074" transform="translate(5476.104 -666.713)" fill="#006ceb"/>
      <path id="Path_44428" data-name="Path 44428" d="M271.917,308.154a.274.274,0,0,1-.188-.473l.654-.615-.664-.7a.273.273,0,1,1,.395-.378l.855.9a.272.272,0,0,1,.076.2.276.276,0,0,1-.086.192l-.854.8a.273.273,0,0,1-.188.074" transform="translate(5476.458 -684.553)" fill="#006ceb"/>
      <path id="Path_44429" data-name="Path 44429" d="M228.553,360.954h-1.437l-.3.677h-.4l1.224-2.706h.383l1.229,2.706h-.406Zm-.135-.309-.584-1.326-.584,1.326Z" transform="translate(5496.94 -708.566)" fill="#fff"/>
      <path id="Path_44430" data-name="Path 44430" d="M234.368,361.134a1,1,0,0,1-1.037,1.047.876.876,0,0,1-.715-.332v1.059h-.37v-2.8h.356v.324a.87.87,0,0,1,.73-.344,1,1,0,0,1,1.037,1.044m-.375,0a.691.691,0,1,0-.692.722.677.677,0,0,0,.692-.722" transform="translate(5494.302 -709.093)" fill="#fff"/>
      <path id="Path_44431" data-name="Path 44431" d="M239.19,361.134a1,1,0,0,1-1.036,1.047.876.876,0,0,1-.715-.332v1.059h-.371v-2.8h.356v.324a.872.872,0,0,1,.73-.344,1,1,0,0,1,1.036,1.044m-.375,0a.69.69,0,1,0-.691.722.677.677,0,0,0,.691-.722" transform="translate(5492.118 -709.093)" fill="#fff"/>
      <rect id="Rectangle_27820" data-name="Rectangle 27820" width="0.371" height="2.868" transform="translate(5731.825 -349.803)" fill="#fff"/>
      <path id="Path_44432" data-name="Path 44432" d="M245.315,360.126l-.993,2.253c-.182.433-.417.568-.73.568a.77.77,0,0,1-.526-.189l.158-.279a.524.524,0,0,0,.368.15c.177,0,.289-.081.39-.317l.066-.143-.905-2.044h.387l.715,1.638.707-1.638Z" transform="translate(5489.401 -709.11)" fill="#fff"/>
      <path id="Path_44583" data-name="Path 44583" d="M2.826-3.742a2.255,2.255,0,0,0,1.8-.88l-.6-.46a1.452,1.452,0,0,1-1.175.591,1.533,1.533,0,0,1-1.51-1.589,1.547,1.547,0,0,1,1.51-1.6,1.452,1.452,0,0,1,1.175.591l.6-.46a2.255,2.255,0,0,0-1.8-.88,2.327,2.327,0,0,0-2.3,2.344A2.321,2.321,0,0,0,2.826-3.742ZM6.863-6.965a.916.916,0,0,0-.88.735v-.656H5.222v3.066H5.99v-1.07c0-.86.276-1.359.775-1.359a.959.959,0,0,1,.446.112l.151-.722A1.123,1.123,0,0,0,6.863-6.965Zm3.795,1.582A1.515,1.515,0,0,0,9.1-6.965,1.559,1.559,0,0,0,7.487-5.357,1.557,1.557,0,0,0,9.1-3.742a1.63,1.63,0,0,0,1.385-.7l-.512-.387a1.018,1.018,0,0,1-.827.394.809.809,0,0,1-.873-.656h2.377C10.651-5.2,10.658-5.3,10.658-5.383ZM8.268-5.62a.784.784,0,0,1,.834-.67.747.747,0,0,1,.8.67ZM13.7-6.46a1.214,1.214,0,0,0-1.031-.505,1.508,1.508,0,0,0-1.5,1.608,1.511,1.511,0,0,0,1.477,1.615A1.235,1.235,0,0,0,13.7-4.3v.479h.762V-6.887H13.7Zm-.893,2.009a.884.884,0,0,1-.873-.906.877.877,0,0,1,.867-.9.9.9,0,0,1,.886.9A.894.894,0,0,1,12.811-4.451Zm3.6-2.436V-8.016h-.762v1.129H15.1v.6h.551v2.462h.762V-6.283h.65v-.6Zm4.1,1.5a1.515,1.515,0,0,0-1.562-1.582,1.559,1.559,0,0,0-1.608,1.608,1.557,1.557,0,0,0,1.608,1.615,1.63,1.63,0,0,0,1.385-.7l-.512-.387a1.018,1.018,0,0,1-.827.394.809.809,0,0,1-.873-.656h2.377C20.5-5.2,20.505-5.3,20.505-5.383Zm-2.39-.236a.784.784,0,0,1,.834-.67.747.747,0,0,1,.8.67Zm6.828,1.878a2.255,2.255,0,0,0,1.8-.88l-.6-.46a1.452,1.452,0,0,1-1.175.591,1.533,1.533,0,0,1-1.51-1.589,1.547,1.547,0,0,1,1.51-1.6,1.452,1.452,0,0,1,1.175.591l.6-.46a2.255,2.255,0,0,0-1.8-.88,2.327,2.327,0,0,0-2.3,2.344A2.321,2.321,0,0,0,24.943-3.742Zm4.5-1.5a.739.739,0,0,1-.781.794.659.659,0,0,1-.637-.748V-6.887H27.26v1.72c0,.893.44,1.425,1.228,1.425A1.064,1.064,0,0,0,29.44-4.3v.479H30.2V-6.887H29.44Zm2.692,1.5c.624,0,1.247-.341,1.247-.965,0-.282-.125-.716-.814-.893l-.492-.131c-.177-.039-.328-.131-.328-.289,0-.19.164-.328.4-.328a.369.369,0,0,1,.407.341h.729c.007-.683-.611-.958-1.155-.958a1.039,1.039,0,0,0-1.142.913c0,.387.177.755.867.939l.407.105c.23.053.361.131.361.3,0,.2-.2.348-.5.348-.322,0-.505-.2-.505-.407H30.9A1.133,1.133,0,0,0,32.132-3.742Zm2.974-3.145V-8.016h-.762v1.129h-.551v.6h.551v2.462h.762V-6.283h.65v-.6Zm2.547,3.145a1.593,1.593,0,0,0,1.635-1.615,1.588,1.588,0,0,0-1.635-1.608,1.582,1.582,0,0,0-1.628,1.608A1.588,1.588,0,0,0,37.653-3.742Zm0-.709a.862.862,0,0,1-.86-.906.864.864,0,0,1,.86-.9.869.869,0,0,1,.867.9A.867.867,0,0,1,37.653-4.451ZM43.7-6.965a1.152,1.152,0,0,0-1.031.617,1.06,1.06,0,0,0-.991-.617.963.963,0,0,0-.913.551v-.473H40v3.066h.762V-5.456a.693.693,0,0,1,.709-.794c.328,0,.584.263.584.748v1.681h.762V-5.337c0-.611.249-.913.689-.913.355,0,.611.256.611.748v1.681h.755v-1.72C44.874-6.434,44.467-6.965,43.7-6.965ZM46.128-7.5a.474.474,0,0,0,.492-.466.47.47,0,0,0-.492-.466.48.48,0,0,0-.5.466A.484.484,0,0,0,46.128-7.5Zm.381,3.683V-6.887h-.762v3.066Zm1.93.079c.624,0,1.247-.341,1.247-.965,0-.282-.125-.716-.814-.893l-.492-.131c-.177-.039-.328-.131-.328-.289,0-.19.164-.328.4-.328a.369.369,0,0,1,.407.341h.729c.007-.683-.611-.958-1.155-.958a1.039,1.039,0,0,0-1.142.913c0,.387.177.755.867.939l.407.105c.23.053.361.131.361.3,0,.2-.2.348-.5.348-.322,0-.506-.2-.506-.407H47.2A1.133,1.133,0,0,0,48.439-3.742Zm4.943-1.641A1.515,1.515,0,0,0,51.82-6.965a1.559,1.559,0,0,0-1.608,1.608A1.557,1.557,0,0,0,51.82-3.742a1.63,1.63,0,0,0,1.385-.7l-.512-.387a1.018,1.018,0,0,1-.827.394.809.809,0,0,1-.873-.656h2.376C53.376-5.2,53.382-5.3,53.382-5.383Zm-2.39-.236a.784.784,0,0,1,.834-.67.747.747,0,0,1,.8.67Zm7.274-.617a.934.934,0,0,0,.591-.945,1.157,1.157,0,0,0-1.287-1.162H55.811v4.523h1.9A1.283,1.283,0,0,0,59.1-5.108,1.1,1.1,0,0,0,58.266-6.237Zm-.21-.834a.5.5,0,0,1-.519.551h-.926V-7.629h.926A.5.5,0,0,1,58.056-7.07ZM56.612-4.536V-5.843H57.6a.638.638,0,0,1,.689.656.648.648,0,0,1-.709.65Zm5.3-.709a.739.739,0,0,1-.781.794A.659.659,0,0,1,60.5-5.2V-6.887h-.762v1.72c0,.893.44,1.425,1.228,1.425a1.064,1.064,0,0,0,.952-.558v.479h.762V-6.887h-.762Zm2.7-1.641V-8.016H63.86v1.129h-.551v.6h.551v2.462h.762V-6.283h.65v-.6Zm2.271,0V-8.016h-.762v1.129H65.58v.6h.551v2.462h.762V-6.283h.65v-.6ZM69.44-3.742a1.593,1.593,0,0,0,1.635-1.615A1.588,1.588,0,0,0,69.44-6.965a1.582,1.582,0,0,0-1.628,1.608A1.588,1.588,0,0,0,69.44-3.742Zm0-.709a.862.862,0,0,1-.86-.906.864.864,0,0,1,.86-.9.869.869,0,0,1,.867.9A.867.867,0,0,1,69.44-4.451ZM73.5-6.965a1.063,1.063,0,0,0-.952.565v-.486H71.79v3.066h.762V-5.449a.743.743,0,0,1,.781-.794.665.665,0,0,1,.637.755v1.667h.762v-1.72C74.731-6.434,74.291-6.965,73.5-6.965Z" transform="translate(5667.467 -506.363)"/>
      <path id="Path_44433" data-name="Path 44433" d="M228.478,243.247a6.665,6.665,0,0,1,2.739,0,6.665,6.665,0,0,1-2.739,0" transform="translate(5496.008 -656.108)" fill="#e0e0e0"/>
      <path id="Path_44434" data-name="Path 44434" d="M214.464,243.247c0-.079,3.349-.142,4.1-.142a3.417,3.417,0,0,1,1.37.142,3.417,3.417,0,0,1-1.37.142c-.756,0-4.1-.063-4.1-.142" transform="translate(5502.355 -656.108)" fill="#e0e0e0"/>
      <path id="Path_44435" data-name="Path 44435" d="M204.451,243.247a6.665,6.665,0,0,1,2.739,0,6.665,6.665,0,0,1-2.739,0" transform="translate(5506.891 -656.108)" fill="#e0e0e0"/>
      <path id="Path_44436" data-name="Path 44436" d="M190.437,243.247c0-.079,3.9-.142,4.652-.142s-1.913.063-1.913.142a6.665,6.665,0,0,1-2.739,0" transform="translate(5513.238 -656.108)" fill="#e0e0e0"/>
      <path id="Path_44437" data-name="Path 44437" d="M180.423,243.247a6.665,6.665,0,0,1,2.739,0,6.665,6.665,0,0,1-2.739,0" transform="translate(5517.773 -656.108)" fill="#e0e0e0"/>
      <path id="Path_44438" data-name="Path 44438" d="M170.41,243.247a6.665,6.665,0,0,1,2.739,0,6.665,6.665,0,0,1-2.739,0" transform="translate(5522.309 -656.108)" fill="#e0e0e0"/>
      <path id="Path_44439" data-name="Path 44439" d="M160.4,243.247a6.665,6.665,0,0,1,2.739,0,6.665,6.665,0,0,1-2.739,0" transform="translate(5526.844 -656.108)" fill="#e0e0e0"/>
      <path id="Path_44440" data-name="Path 44440" d="M150.383,243.247a6.665,6.665,0,0,1,2.739,0,6.665,6.665,0,0,1-2.739,0" transform="translate(5531.379 -656.108)" fill="#e0e0e0"/>
      <path id="Path_44441" data-name="Path 44441" d="M140.369,243.247a6.665,6.665,0,0,1,2.739,0,6.665,6.665,0,0,1-2.739,0" transform="translate(5535.915 -656.108)" fill="#e0e0e0"/>
      <path id="Path_44442" data-name="Path 44442" d="M130.356,243.247a6.665,6.665,0,0,1,2.739,0,6.665,6.665,0,0,1-2.739,0" transform="translate(5540.45 -656.108)" fill="#e0e0e0"/>
      <path id="Path_44443" data-name="Path 44443" d="M120.342,243.247a6.665,6.665,0,0,1,2.739,0,6.665,6.665,0,0,1-2.739,0" transform="translate(5544.986 -656.108)" fill="#e0e0e0"/>
      <path id="Path_44444" data-name="Path 44444" d="M114.844,237.041a3.444,3.444,0,0,1,.144,1.367,5.774,5.774,0,0,0,.313,1.271c-.028.024-.162-.072-.306-.291a1.885,1.885,0,0,1-.292-.973,3.388,3.388,0,0,1,.141-1.374" transform="translate(5547.54 -653.361)" fill="#e0e0e0"/>
      <path id="Path_44445" data-name="Path 44445" d="M114.843,227.027a6.665,6.665,0,0,1,0,2.739,6.665,6.665,0,0,1,0-2.739" transform="translate(5547.54 -648.826)" fill="#e0e0e0"/>
      <path id="Path_44446" data-name="Path 44446" d="M114.843,233.014a6.665,6.665,0,0,1,0,2.739,6.665,6.665,0,0,1,0-2.739" transform="translate(5547.54 -651.537)" fill="#e0e0e0"/>
      <path id="Path_44447" data-name="Path 44447" d="M114.843,223a6.665,6.665,0,0,1,0,2.739,6.665,6.665,0,0,1,0-2.739" transform="translate(5547.54 -647.002)" fill="#e0e0e0"/>
      <path id="Path_44448" data-name="Path 44448" d="M114.843,217.986a6.665,6.665,0,0,1,0,2.739,6.665,6.665,0,0,1,0-2.739" transform="translate(5547.54 -644.731)" fill="#e0e0e0"/>
      <path id="Path_44449" data-name="Path 44449" d="M114.843,217.973a6.665,6.665,0,0,1,0,2.739,6.665,6.665,0,0,1,0-2.739" transform="translate(5547.54 -644.725)" fill="#e0e0e0"/>
      <path id="Path_44450" data-name="Path 44450" d="M117.165,210.134a6.024,6.024,0,0,0-1.195.538c-.582.423-.779,1.018-.861.989-.034-.009-.033-.173.063-.417a1.929,1.929,0,0,1,1.574-1.171c.261-.02.419.025.418.061" transform="translate(5547.365 -641.145)" fill="#e0e0e0"/>
      <path id="Path_44451" data-name="Path 44451" d="M126.629,210.07a6.665,6.665,0,0,1-2.739,0,6.665,6.665,0,0,1,2.739,0" transform="translate(5543.378 -641.081)" fill="#e0e0e0"/>
      <path id="Path_44452" data-name="Path 44452" d="M136.642,210.07a6.665,6.665,0,0,1-2.739,0,6.665,6.665,0,0,1,2.739,0" transform="translate(5538.843 -641.081)" fill="#e0e0e0"/>
      <path id="Path_44453" data-name="Path 44453" d="M146.656,210.07a6.665,6.665,0,0,1-2.739,0,6.665,6.665,0,0,1,2.739,0" transform="translate(5534.308 -641.081)" fill="#e0e0e0"/>
      <path id="Path_44454" data-name="Path 44454" d="M156.669,210.07a6.665,6.665,0,0,1-2.739,0,6.665,6.665,0,0,1,2.739,0" transform="translate(5529.773 -641.081)" fill="#e0e0e0"/>
      <path id="Path_44455" data-name="Path 44455" d="M166.683,210.07a6.665,6.665,0,0,1-2.739,0,6.665,6.665,0,0,1,2.739,0" transform="translate(5525.237 -641.081)" fill="#e0e0e0"/>
      <path id="Path_44456" data-name="Path 44456" d="M176.7,210.07a6.665,6.665,0,0,1-2.739,0,6.665,6.665,0,0,1,2.739,0" transform="translate(5520.702 -641.081)" fill="#e0e0e0"/>
      <path id="Path_44457" data-name="Path 44457" d="M186.71,210.07a6.665,6.665,0,0,1-2.739,0,6.665,6.665,0,0,1,2.739,0" transform="translate(5516.167 -641.081)" fill="#e0e0e0"/>
      <path id="Path_44458" data-name="Path 44458" d="M199.46,210.07c0,.079-3.349.142-4.1.142a3.417,3.417,0,0,1-1.37-.142,3.417,3.417,0,0,1,1.37-.142c.756,0,4.1.063,4.1.142" transform="translate(5511.63 -641.081)" fill="#e0e0e0"/>
      <path id="Path_44459" data-name="Path 44459" d="M210.737,210.07a6.665,6.665,0,0,1-2.739,0,6.665,6.665,0,0,1,2.739,0" transform="translate(5505.284 -641.081)" fill="#e0e0e0"/>
      <path id="Path_44460" data-name="Path 44460" d="M221.2,210.07c0,.079,2.122.142,1.366.142s-3.558-.063-3.558-.142,2.8-.142,3.558-.142-1.366.063-1.366.142" transform="translate(5500.295 -641.081)" fill="#e0e0e0"/>
      <path id="Path_44461" data-name="Path 44461" d="M234.513,210.9c-.063.055-.466-.427-1.16-.608a5.187,5.187,0,0,0-.925-.113c-.248-.026-.4-.061-.4-.1s.153-.075.4-.1a2.668,2.668,0,0,1,1,.039,1.875,1.875,0,0,1,.875.517c.179.191.239.345.21.367" transform="translate(5494.401 -641.091)" fill="#e0e0e0"/>
      <path id="Path_44462" data-name="Path 44462" d="M237.288,219.252a6.665,6.665,0,0,1,0-2.739,6.665,6.665,0,0,1,0,2.739" transform="translate(5492.082 -644.064)" fill="#e0e0e0"/>
      <path id="Path_44463" data-name="Path 44463" d="M237.288,219.265a6.665,6.665,0,0,1,0-2.739,6.665,6.665,0,0,1,0,2.739" transform="translate(5492.082 -644.07)" fill="#e0e0e0"/>
      <path id="Path_44464" data-name="Path 44464" d="M237.288,224.279a6.665,6.665,0,0,1,0-2.739,6.665,6.665,0,0,1,0,2.739" transform="translate(5492.082 -646.341)" fill="#e0e0e0"/>
      <path id="Path_44465" data-name="Path 44465" d="M237.288,234.293a6.665,6.665,0,0,1,0-2.739,6.665,6.665,0,0,1,0,2.739" transform="translate(5492.082 -650.876)" fill="#e0e0e0"/>
      <path id="Path_44466" data-name="Path 44466" d="M237.288,228.306a6.665,6.665,0,0,1,0-2.739,6.665,6.665,0,0,1,0,2.739" transform="translate(5492.082 -648.165)" fill="#e0e0e0"/>
      <path id="Path_44467" data-name="Path 44467" d="M237.2,238.312c-.039-.012-.021-.166-.022-.4s-.035-.583-.03-.958a3.416,3.416,0,0,1,.142-1.37,3.418,3.418,0,0,1,.142,1.37,6.226,6.226,0,0,1-.054.979c-.054.257-.144.394-.179.382" transform="translate(5492.083 -652.7)" fill="#e0e0e0"/>
      <rect id="Rectangle_27822" data-name="Rectangle 27822" width="2.252" height="10.093" transform="translate(5693.288 -426.085)" fill="#e0e0e0"/>
      <rect id="Rectangle_27823" data-name="Rectangle 27823" width="10.093" height="2.252" transform="translate(5689.368 -422.165)" fill="#e0e0e0"/>
      <path id="Path_44468" data-name="Path 44468" d="M178.984,101.789H113.005a2.145,2.145,0,0,1-2.145-2.146V84.691a2.146,2.146,0,0,1,2.145-2.146h65.979a2.146,2.146,0,0,1,2.146,2.146V99.643a2.145,2.145,0,0,1-2.146,2.146" transform="translate(5549.28 -583.387)" fill="#fff"/>
      <path id="Path_44469" data-name="Path 44469" d="M178.863,101.671a3.789,3.789,0,0,0,.487-.072,2.129,2.129,0,0,0,1.181-.772,2.09,2.09,0,0,0,.412-.958,11.849,11.849,0,0,0,.024-1.285c0-.935-.008-11.312-.013-12.524-.01-4.86-.026,13.288-.045,4.618q0-1.626,0-3.33,0-.85,0-1.721,0-.435,0-.874a2.324,2.324,0,0,0-.111-.835,2.053,2.053,0,0,0-1.121-1.213,4.524,4.524,0,0,0-1.76-.164l-11.418,0-16.285.014-37.315.011a2.013,2.013,0,0,0-1.833,1.189,2.472,2.472,0,0,0-.175,1.147v1.228q0,2.451,0,4.87c0,3.224,0,4.212,0,7.333s0-2.019,0,.983c0,1.5,0-2.484,0-1.015q0,.551,0,1.1a2.089,2.089,0,0,0,.2,1,2.019,2.019,0,0,0,1.588,1.124l30.462.044,20.546.045c2.421.011,11.961.02,13.245.027l1.452.014c.327,0,.5.014.5.014s-.168.01-.5.015l-1.452.013c-1.285.007-10.824.016-13.245.027l-20.546.045-30.491.016a2.281,2.281,0,0,1-1.8-1.27,2.35,2.35,0,0,1-.231-1.117q0-.547,0-1.1c0-1.469,0,2.516,0,1.015,0-3,0,2.137,0-.983s0-4.109,0-7.333q0-2.418,0-4.87V84.9a2.755,2.755,0,0,1,.2-1.263,2.3,2.3,0,0,1,2.094-1.358L150.2,82.3l16.285.013c1.275,0,10.188,0,11.418,0h.919A2.257,2.257,0,0,1,181,83.847a2.541,2.541,0,0,1,.12.906q0,.439,0,.874,0,.869,0,1.721,0,1.7,0,3.33c-.019,8.671-.034-9.478-.045-4.618,0,1.212-.009,11.589-.013,12.524a11.687,11.687,0,0,1-.038,1.3,2.16,2.16,0,0,1-1.657,1.747,1.71,1.71,0,0,1-.493.044" transform="translate(5549.401 -583.268)" fill="#263238"/>
      <path id="Path_44470" data-name="Path 44470" d="M141.234,89.892H116.309a1.75,1.75,0,1,1,0-3.5h24.925a1.75,1.75,0,1,1,0,3.5" transform="translate(5547.604 -585.129)" fill="#455a64"/>
      <path id="Path_44471" data-name="Path 44471" d="M141.223,89.895H116.3a1.764,1.764,0,0,1,0-3.528h24.925a1.764,1.764,0,0,1,0,3.528m-24.925-3.5a1.736,1.736,0,1,0,0,3.472h24.925a1.736,1.736,0,1,0,0-3.472Z" transform="translate(5547.616 -585.118)" fill="#fff"/>
      <path id="Path_44472" data-name="Path 44472" d="M161.976,99.934H116.309a1.75,1.75,0,1,1,0-3.5h45.667a1.75,1.75,0,0,1,0,3.5" transform="translate(5547.604 -589.677)" fill="#e0e0e0"/>
      <path id="Path_44473" data-name="Path 44473" d="M161.964,99.936H116.3a1.764,1.764,0,1,1,0-3.528h45.667a1.764,1.764,0,1,1,0,3.527m-45.667-3.5a1.736,1.736,0,1,0,0,3.472h45.667a1.736,1.736,0,1,0,0-3.472Z" transform="translate(5547.616 -589.665)" fill="#fff"/>
      <path id="Path_44474" data-name="Path 44474" d="M232.257,95.118a.9.9,0,1,1-.9-.9.9.9,0,0,1,.9.9" transform="translate(5495.111 -588.674)" fill="#263238"/>
      <path id="Path_44475" data-name="Path 44475" d="M231.347,96.02a.912.912,0,1,1,.912-.913.913.913,0,0,1-.912.913m0-1.8a.884.884,0,1,0,.885.884.885.885,0,0,0-.885-.884" transform="translate(5495.122 -588.663)" fill="#fff"/>
      <path id="Path_44476" data-name="Path 44476" d="M232.257,99.3a.9.9,0,1,1-.9-.9.9.9,0,0,1,.9.9" transform="translate(5495.111 -590.57)" fill="#263238"/>
      <path id="Path_44477" data-name="Path 44477" d="M231.347,100.2a.912.912,0,1,1,.912-.913.913.913,0,0,1-.912.913m0-1.8a.884.884,0,1,0,.885.884.885.885,0,0,0-.885-.884" transform="translate(5495.122 -590.559)" fill="#fff"/>
      <path id="Path_44478" data-name="Path 44478" d="M232.257,103.489a.9.9,0,1,1-.9-.9.9.9,0,0,1,.9.9" transform="translate(5495.111 -592.466)" fill="#263238"/>
      <path id="Path_44479" data-name="Path 44479" d="M231.347,104.391a.912.912,0,1,1,.912-.913.913.913,0,0,1-.912.913m0-1.8a.884.884,0,1,0,.885.884.885.885,0,0,0-.885-.884" transform="translate(5495.122 -592.455)" fill="#fff"/>
      <path id="Path_44480" data-name="Path 44480" d="M120.691,107.511a2.566,2.566,0,1,1-2.566-2.566,2.566,2.566,0,0,1,2.566,2.566" transform="translate(5547.152 -593.532)" fill="#006ceb"/>
      <path id="Path_44481" data-name="Path 44481" d="M118.114,110.078a2.58,2.58,0,1,1,2.579-2.579,2.582,2.582,0,0,1-2.579,2.579m0-5.132a2.552,2.552,0,1,0,2.552,2.552,2.555,2.555,0,0,0-2.552-2.552" transform="translate(5547.163 -593.52)" fill="#fff"/>
      <path id="Path_44482" data-name="Path 44482" d="M132.68,107.511a2.566,2.566,0,1,1-2.566-2.566,2.566,2.566,0,0,1,2.566,2.566" transform="translate(5541.722 -593.532)" fill="#263238"/>
      <path id="Path_44483" data-name="Path 44483" d="M130.1,110.078a2.58,2.58,0,1,1,2.579-2.579,2.582,2.582,0,0,1-2.579,2.579m0-5.132a2.552,2.552,0,1,0,2.552,2.552,2.555,2.555,0,0,0-2.552-2.552" transform="translate(5541.733 -593.52)" fill="#fff"/>
      <path id="Path_44484" data-name="Path 44484" d="M178.984,143.285H113.005a2.146,2.146,0,0,1-2.145-2.146V126.186a2.146,2.146,0,0,1,2.145-2.146h65.979a2.146,2.146,0,0,1,2.146,2.146v14.953a2.146,2.146,0,0,1-2.146,2.146" transform="translate(5549.28 -602.181)" fill="#fff"/>
      <path id="Path_44485" data-name="Path 44485" d="M178.863,143.166a4.162,4.162,0,0,0,.487-.073,2.129,2.129,0,0,0,1.181-.772,2.09,2.09,0,0,0,.412-.958,11.843,11.843,0,0,0,.024-1.285c0-.935-.008-11.312-.013-12.524-.01-4.859-.026,13.288-.045,4.618q0-1.626,0-3.33,0-.851,0-1.721,0-.435,0-.874a2.324,2.324,0,0,0-.111-.835,2.051,2.051,0,0,0-1.121-1.212,4.524,4.524,0,0,0-1.76-.164c-1.23,0-10.143,0-11.418,0l-16.285.013-37.315.011a2.012,2.012,0,0,0-1.833,1.189,2.472,2.472,0,0,0-.175,1.147v1.228q0,2.451,0,4.87c0,3.224,0,4.212,0,7.333s0-2.019,0,.983c0,1.5,0-2.484,0-1.015q0,.551,0,1.1a2.09,2.09,0,0,0,.2,1,2.019,2.019,0,0,0,1.588,1.124l30.462.044,20.546.045c2.421.011,11.961.02,13.245.026l1.452.014c.327,0,.5.015.5.015s-.168.01-.5.015l-1.452.014c-1.285.007-10.824.015-13.245.027l-20.546.045-30.491.016a2.281,2.281,0,0,1-1.8-1.27,2.35,2.35,0,0,1-.231-1.117q0-.547,0-1.1c0-1.469,0,2.517,0,1.015,0-3,0,2.138,0-.983s0-4.109,0-7.333q0-2.418,0-4.87V126.4a2.755,2.755,0,0,1,.2-1.263,2.3,2.3,0,0,1,2.094-1.358l37.315.011,16.285.013,11.418,0h.919A2.257,2.257,0,0,1,181,125.342a2.541,2.541,0,0,1,.12.906q0,.439,0,.874,0,.87,0,1.721,0,1.7,0,3.33c-.019,8.671-.034-9.477-.045-4.618,0,1.212-.009,11.589-.013,12.524a11.687,11.687,0,0,1-.038,1.3,2.16,2.16,0,0,1-1.657,1.747,1.7,1.7,0,0,1-.493.044" transform="translate(5549.401 -602.062)" fill="#263238"/>
      <path id="Path_44486" data-name="Path 44486" d="M141.234,131.388H116.309a1.75,1.75,0,1,1,0-3.5h24.925a1.75,1.75,0,0,1,0,3.5" transform="translate(5547.604 -603.923)" fill="#455a64"/>
      <path id="Path_44487" data-name="Path 44487" d="M141.223,131.39H116.3a1.763,1.763,0,1,1,0-3.527h24.925a1.763,1.763,0,0,1,0,3.527m-24.925-3.5a1.736,1.736,0,1,0,0,3.472h24.925a1.736,1.736,0,1,0,0-3.472Z" transform="translate(5547.616 -603.912)" fill="#fff"/>
      <path id="Path_44488" data-name="Path 44488" d="M161.976,141.43H116.309a1.75,1.75,0,1,1,0-3.5h45.667a1.75,1.75,0,0,1,0,3.5" transform="translate(5547.604 -608.472)" fill="#e0e0e0"/>
      <path id="Path_44489" data-name="Path 44489" d="M161.964,141.432H116.3a1.764,1.764,0,1,1,0-3.528h45.667a1.764,1.764,0,1,1,0,3.527m-45.667-3.5a1.736,1.736,0,1,0,0,3.472h45.667a1.736,1.736,0,1,0,0-3.472Z" transform="translate(5547.616 -608.46)" fill="#fff"/>
      <path id="Path_44490" data-name="Path 44490" d="M232.257,136.614a.9.9,0,1,1-.9-.9.9.9,0,0,1,.9.9" transform="translate(5495.111 -607.469)" fill="#263238"/>
      <path id="Path_44491" data-name="Path 44491" d="M231.347,137.515a.912.912,0,1,1,.912-.913.913.913,0,0,1-.912.913m0-1.8a.884.884,0,1,0,.885.884.885.885,0,0,0-.885-.884" transform="translate(5495.122 -607.457)" fill="#fff"/>
      <path id="Path_44492" data-name="Path 44492" d="M232.257,140.8a.9.9,0,1,1-.9-.9.9.9,0,0,1,.9.9" transform="translate(5495.111 -609.365)" fill="#263238"/>
      <path id="Path_44493" data-name="Path 44493" d="M231.347,141.7a.912.912,0,1,1,.912-.913.913.913,0,0,1-.912.913m0-1.8a.884.884,0,1,0,.885.884.885.885,0,0,0-.885-.884" transform="translate(5495.122 -609.353)" fill="#fff"/>
      <path id="Path_44494" data-name="Path 44494" d="M232.257,144.985a.9.9,0,1,1-.9-.9.9.9,0,0,1,.9.9" transform="translate(5495.111 -611.26)" fill="#263238"/>
      <path id="Path_44495" data-name="Path 44495" d="M231.347,145.886a.912.912,0,1,1,.912-.913.913.913,0,0,1-.912.913m0-1.8a.884.884,0,1,0,.885.884.885.885,0,0,0-.885-.884" transform="translate(5495.122 -611.249)" fill="#fff"/>
      <path id="Path_44496" data-name="Path 44496" d="M120.691,149.006a2.566,2.566,0,1,1-2.566-2.566,2.566,2.566,0,0,1,2.566,2.566" transform="translate(5547.152 -612.326)" fill="#006ceb"/>
      <path id="Path_44497" data-name="Path 44497" d="M118.114,151.574a2.58,2.58,0,1,1,2.579-2.579,2.582,2.582,0,0,1-2.579,2.579m0-5.132a2.552,2.552,0,1,0,2.552,2.552,2.555,2.555,0,0,0-2.552-2.552" transform="translate(5547.163 -612.315)" fill="#006ceb"/>
      <path id="Path_44498" data-name="Path 44498" d="M132.68,149.006a2.566,2.566,0,1,1-2.566-2.566,2.566,2.566,0,0,1,2.566,2.566" transform="translate(5541.722 -612.326)" fill="#263238"/>
      <path id="Path_44499" data-name="Path 44499" d="M130.1,151.574a2.58,2.58,0,1,1,2.579-2.579,2.582,2.582,0,0,1-2.579,2.579m0-5.132a2.552,2.552,0,1,0,2.552,2.552,2.555,2.555,0,0,0-2.552-2.552" transform="translate(5541.733 -612.315)" fill="#fff"/>
      <path id="Path_44500" data-name="Path 44500" d="M178.984,185.78H113.005a2.146,2.146,0,0,1-2.145-2.146V168.681a2.146,2.146,0,0,1,2.145-2.146h65.979a2.146,2.146,0,0,1,2.146,2.146v14.953a2.146,2.146,0,0,1-2.146,2.146" transform="translate(5549.28 -621.428)" fill="#fff"/>
      <path id="Path_44501" data-name="Path 44501" d="M178.863,185.661a4.011,4.011,0,0,0,.487-.073,2.13,2.13,0,0,0,1.181-.772,2.09,2.09,0,0,0,.412-.958,11.843,11.843,0,0,0,.024-1.285c0-.935-.008-11.312-.013-12.524-.01-4.859-.026,13.289-.045,4.618q0-1.626,0-3.33,0-.851,0-1.721,0-.435,0-.874a2.324,2.324,0,0,0-.111-.835,2.051,2.051,0,0,0-1.121-1.212,4.524,4.524,0,0,0-1.76-.164c-1.23,0-10.143,0-11.418,0l-16.285.013-37.315.011a2.013,2.013,0,0,0-1.833,1.189,2.472,2.472,0,0,0-.175,1.147v1.228q0,2.451,0,4.87c0,3.224,0,4.212,0,7.333s0-2.019,0,.983c0,1.5,0-2.484,0-1.015q0,.551,0,1.1a2.089,2.089,0,0,0,.2,1,2.019,2.019,0,0,0,1.588,1.124l30.462.044,20.546.045c2.421.012,11.961.02,13.245.026l1.452.014c.327,0,.5.015.5.015s-.168.01-.5.015l-1.452.014c-1.285.006-10.824.015-13.245.026l-20.546.045-30.491.016a2.281,2.281,0,0,1-1.8-1.27,2.35,2.35,0,0,1-.231-1.117q0-.547,0-1.1c0-1.469,0,2.517,0,1.015,0-3,0,2.138,0-.983s0-4.109,0-7.333q0-2.418,0-4.87v-1.228a2.754,2.754,0,0,1,.2-1.263,2.3,2.3,0,0,1,2.094-1.358l37.315.011,16.285.013,11.418,0h.919A2.255,2.255,0,0,1,181,167.837a2.541,2.541,0,0,1,.12.906q0,.439,0,.874,0,.87,0,1.721,0,1.7,0,3.33c-.019,8.671-.034-9.477-.045-4.618,0,1.212-.009,11.589-.013,12.524a11.691,11.691,0,0,1-.038,1.3,2.16,2.16,0,0,1-1.657,1.747,1.677,1.677,0,0,1-.493.044" transform="translate(5549.401 -621.309)" fill="#263238"/>
      <path id="Path_44502" data-name="Path 44502" d="M141.234,173.883H116.309a1.75,1.75,0,1,1,0-3.5h24.925a1.75,1.75,0,0,1,0,3.5" transform="translate(5547.604 -623.17)" fill="#455a64"/>
      <path id="Path_44503" data-name="Path 44503" d="M141.223,173.886H116.3a1.764,1.764,0,1,1,0-3.528h24.925a1.764,1.764,0,0,1,0,3.528m-24.925-3.5a1.736,1.736,0,1,0,0,3.472h24.925a1.736,1.736,0,1,0,0-3.472Z" transform="translate(5547.616 -623.159)" fill="#fff"/>
      <path id="Path_44504" data-name="Path 44504" d="M161.976,183.925H116.309a1.75,1.75,0,1,1,0-3.5h45.667a1.75,1.75,0,0,1,0,3.5" transform="translate(5547.604 -627.719)" fill="#e0e0e0"/>
      <path id="Path_44505" data-name="Path 44505" d="M161.964,183.927H116.3a1.764,1.764,0,1,1,0-3.528h45.667a1.764,1.764,0,1,1,0,3.527m-45.667-3.5a1.736,1.736,0,1,0,0,3.472h45.667a1.736,1.736,0,1,0,0-3.472Z" transform="translate(5547.616 -627.707)" fill="#fff"/>
      <path id="Path_44506" data-name="Path 44506" d="M232.257,179.109a.9.9,0,1,1-.9-.9.9.9,0,0,1,.9.9" transform="translate(5495.111 -626.716)" fill="#263238"/>
      <path id="Path_44507" data-name="Path 44507" d="M231.347,180.01a.912.912,0,1,1,.912-.913.913.913,0,0,1-.912.913m0-1.8a.884.884,0,1,0,.885.884.885.885,0,0,0-.885-.884" transform="translate(5495.122 -626.704)" fill="#fff"/>
      <path id="Path_44508" data-name="Path 44508" d="M232.257,183.295a.9.9,0,1,1-.9-.9.9.9,0,0,1,.9.9" transform="translate(5495.111 -628.612)" fill="#263238"/>
      <path id="Path_44509" data-name="Path 44509" d="M231.347,184.2a.912.912,0,1,1,.912-.913.913.913,0,0,1-.912.913m0-1.8a.884.884,0,1,0,.885.884.885.885,0,0,0-.885-.884" transform="translate(5495.122 -628.6)" fill="#fff"/>
      <path id="Path_44510" data-name="Path 44510" d="M232.257,187.48a.9.9,0,1,1-.9-.9.9.9,0,0,1,.9.9" transform="translate(5495.111 -630.507)" fill="#263238"/>
      <path id="Path_44511" data-name="Path 44511" d="M231.347,188.382a.912.912,0,1,1,.912-.913.913.913,0,0,1-.912.913m0-1.8a.884.884,0,1,0,.885.885.886.886,0,0,0-.885-.885" transform="translate(5495.122 -630.496)" fill="#fff"/>
      <path id="Path_44512" data-name="Path 44512" d="M120.691,191.5a2.566,2.566,0,1,1-2.566-2.566,2.566,2.566,0,0,1,2.566,2.566" transform="translate(5547.152 -631.574)" fill="#006ceb"/>
      <path id="Path_44513" data-name="Path 44513" d="M118.114,194.069a2.58,2.58,0,1,1,2.579-2.579,2.582,2.582,0,0,1-2.579,2.579m0-5.132a2.552,2.552,0,1,0,2.552,2.552,2.555,2.555,0,0,0-2.552-2.552" transform="translate(5547.163 -631.562)" fill="#fff"/>
      <path id="Path_44514" data-name="Path 44514" d="M132.68,191.5a2.566,2.566,0,1,1-2.566-2.566,2.566,2.566,0,0,1,2.566,2.566" transform="translate(5541.722 -631.574)" fill="#263238"/>
      <path id="Path_44515" data-name="Path 44515" d="M130.1,194.069a2.58,2.58,0,1,1,2.579-2.579,2.582,2.582,0,0,1-2.579,2.579m0-5.132a2.552,2.552,0,1,0,2.552,2.552,2.555,2.555,0,0,0-2.552-2.552" transform="translate(5541.733 -631.562)" fill="#fff"/>
      <path id="Path_44516" data-name="Path 44516" d="M200.832,361.159h-81.7A1.155,1.155,0,0,1,117.981,360V346.842a1.155,1.155,0,0,1,1.155-1.155h81.7a1.155,1.155,0,0,1,1.155,1.155V360a1.155,1.155,0,0,1-1.155,1.155" transform="translate(5546.055 -702.57)" fill="#006ceb"/>
      <path id="Path_44582" data-name="Path 44582" d="M2.826-3.731a2.255,2.255,0,0,0,1.8-.88l-.6-.46a1.452,1.452,0,0,1-1.175.591,1.533,1.533,0,0,1-1.51-1.589,1.547,1.547,0,0,1,1.51-1.6,1.452,1.452,0,0,1,1.175.591l.6-.46a2.255,2.255,0,0,0-1.8-.88,2.327,2.327,0,0,0-2.3,2.344A2.321,2.321,0,0,0,2.826-3.731ZM6.863-6.955a.916.916,0,0,0-.88.735v-.656H5.222V-3.81H5.99V-4.88c0-.86.276-1.359.775-1.359a.959.959,0,0,1,.446.112l.151-.722A1.123,1.123,0,0,0,6.863-6.955Zm3.795,1.582A1.515,1.515,0,0,0,9.1-6.955,1.559,1.559,0,0,0,7.487-5.346,1.557,1.557,0,0,0,9.1-3.731a1.63,1.63,0,0,0,1.385-.7l-.512-.387a1.018,1.018,0,0,1-.827.394.809.809,0,0,1-.873-.656h2.377C10.651-5.189,10.658-5.287,10.658-5.372Zm-2.39-.236a.784.784,0,0,1,.834-.67.747.747,0,0,1,.8.67Zm5.436-.84a1.214,1.214,0,0,0-1.031-.505,1.508,1.508,0,0,0-1.5,1.608,1.511,1.511,0,0,0,1.477,1.615,1.235,1.235,0,0,0,1.05-.558v.479h.762V-6.876H13.7ZM12.811-4.44a.884.884,0,0,1-.873-.906.877.877,0,0,1,.867-.9.9.9,0,0,1,.886.9A.894.894,0,0,1,12.811-4.44Zm3.6-2.436V-8h-.762v1.129H15.1v.6h.551V-3.81h.762V-6.272h.65v-.6Zm4.1,1.5a1.515,1.515,0,0,0-1.562-1.582,1.559,1.559,0,0,0-1.608,1.608,1.557,1.557,0,0,0,1.608,1.615,1.63,1.63,0,0,0,1.385-.7l-.512-.387a1.018,1.018,0,0,1-.827.394.809.809,0,0,1-.873-.656h2.377C20.5-5.189,20.505-5.287,20.505-5.372Zm-2.39-.236a.784.784,0,0,1,.834-.67.747.747,0,0,1,.8.67Zm7.274-.617a.934.934,0,0,0,.591-.945,1.157,1.157,0,0,0-1.287-1.162H22.934V-3.81h1.9A1.283,1.283,0,0,0,26.223-5.1,1.1,1.1,0,0,0,25.389-6.226Zm-.21-.834a.5.5,0,0,1-.519.551h-.926V-7.618h.926A.5.5,0,0,1,25.179-7.06ZM23.735-4.526V-5.832h.991a.638.638,0,0,1,.689.656.648.648,0,0,1-.709.65Zm5.337-.709a.739.739,0,0,1-.781.794.659.659,0,0,1-.637-.748V-6.876h-.762v1.72c0,.893.44,1.425,1.228,1.425a1.064,1.064,0,0,0,.952-.558v.479h.762V-6.876h-.762Zm2.7-1.641V-8h-.762v1.129h-.551v.6h.551V-3.81h.762V-6.272h.65v-.6Zm2.271,0V-8h-.762v1.129h-.551v.6h.551V-3.81h.762V-6.272h.65v-.6Zm2.541,3.145a1.593,1.593,0,0,0,1.635-1.615,1.588,1.588,0,0,0-1.635-1.608,1.582,1.582,0,0,0-1.628,1.608A1.588,1.588,0,0,0,36.589-3.731Zm0-.709a.862.862,0,0,1-.86-.906.864.864,0,0,1,.86-.9.869.869,0,0,1,.867.9A.867.867,0,0,1,36.589-4.44Zm4.064-2.514a1.063,1.063,0,0,0-.952.565v-.486h-.762V-3.81H39.7V-5.438a.743.743,0,0,1,.781-.794.665.665,0,0,1,.637.755V-3.81h.762V-5.53C41.88-6.423,41.441-6.955,40.653-6.955Z" transform="translate(5683.493 -343.125)" fill="#fafafa"/>
      <g id="Group_47738" data-name="Group 47738" transform="translate(5764.699 -498.736)">
        <g id="Group_47741" data-name="Group 47741" transform="translate(0 0)">
          <path id="Path_44517" data-name="Path 44517" d="M341.991,175.627H287.538a2,2,0,0,1-2-2V136.507a2,2,0,0,1,2-2h54.452a2,2,0,0,1,2,2v37.116a2,2,0,0,1-2,2" transform="translate(-282.267 -105.28)" fill="#fff"/>
          <path id="Path_44518" data-name="Path 44518" d="M341.846,175.481a3.269,3.269,0,0,0,.5-.078,1.992,1.992,0,0,0,1.158-.845,1.97,1.97,0,0,0,.312-1.016q0-.6,0-1.318c0-.954-.008-2.054-.012-3.291-.01-4.958-.024-12.122-.042-20.973q0-3.321-.009-6.949,0-1.813,0-3.7,0-.471,0-.946a1.928,1.928,0,0,0-.211-.87,1.9,1.9,0,0,0-1.439-1.011c-5.176-.031-10.76,0-16.607-.006l-38.087.011a1.883,1.883,0,0,0-1.785,1.3,2.041,2.041,0,0,0-.09.578v1.882q0,2.5,0,4.97,0,4.935,0,9.718c0,6.371-.005,12.517-.008,18.371q0,1.1,0,2.181a1.9,1.9,0,0,0,1,1.651,1.957,1.957,0,0,0,.971.222h3.154l8.069.007,14.483.016,20.971.043,5.7.025,1.483.013c.334,0,.505.013.505.013s-.171.009-.505.013l-1.483.013-5.7.025-20.971.043-14.483.016-8.069.006-2.1,0h-1.059a2.193,2.193,0,0,1-1.084-.249,2.139,2.139,0,0,1-1.125-1.861q0-1.084,0-2.183c0-5.854-.005-12-.008-18.371q0-4.779,0-9.718,0-2.468,0-4.97v-1.882a2.31,2.31,0,0,1,.1-.66,2.149,2.149,0,0,1,2.038-1.481l38.087.01c5.859.012,11.4-.012,16.635.033a2.113,2.113,0,0,1,1.6,1.131,2.147,2.147,0,0,1,.233.969q0,.475,0,.946,0,1.884,0,3.7,0,3.625-.009,6.949c-.018,8.851-.033,16.014-.043,20.973,0,1.237-.009,2.337-.012,3.291q-.006.715-.01,1.32a2.024,2.024,0,0,1-.334,1.043,2,2,0,0,1-1.2.842,1.6,1.6,0,0,1-.5.052" transform="translate(-282.122 -105.135)" fill="#263238"/>
          <path id="Path_44519" data-name="Path 44519" d="M328.994,152.6H300.377a1.634,1.634,0,0,1,0-3.268h28.617a1.634,1.634,0,0,1,0,3.268" transform="translate(-289.156 -113.015)" fill="#455a64"/>
          <path id="Path_44520" data-name="Path 44520" d="M328.98,152.6H300.362a1.646,1.646,0,1,1,0-3.293H328.98a1.646,1.646,0,1,1,0,3.293m-28.617-3.268a1.621,1.621,0,1,0,0,3.242H328.98a1.621,1.621,0,0,0,0-3.242Z" transform="translate(-289.142 -113.001)" fill="#fff"/>
          <path id="Path_44521" data-name="Path 44521" d="M343.016,174.855H300.377a1.634,1.634,0,1,1,0-3.268h42.639a1.634,1.634,0,0,1,0,3.268" transform="translate(-289.156 -124.622)" fill="#e0e0e0"/>
          <path id="Path_44522" data-name="Path 44522" d="M343,174.854H300.362a1.646,1.646,0,1,1,0-3.293H343a1.646,1.646,0,1,1,0,3.293m-42.639-3.268a1.621,1.621,0,1,0,0,3.242H343a1.621,1.621,0,1,0,0-3.242Z" transform="translate(-289.142 -124.608)" fill="#fff"/>
          <path id="Path_44523" data-name="Path 44523" d="M321.67,187.329H300.377a1.634,1.634,0,1,1,0-3.267H321.67a1.634,1.634,0,1,1,0,3.267" transform="translate(-289.156 -131.128)" fill="#e0e0e0"/>
          <path id="Path_44524" data-name="Path 44524" d="M321.655,187.328H300.362a1.646,1.646,0,1,1,0-3.293h21.293a1.646,1.646,0,1,1,0,3.293m-21.293-3.268a1.621,1.621,0,1,0,0,3.242h21.293a1.621,1.621,0,0,0,0-3.242Z" transform="translate(-289.142 -131.114)" fill="#fff"/>
          <path id="Path_44525" data-name="Path 44525" d="M394.621,147.366a.839.839,0,1,1-.839-.839.839.839,0,0,1,.839.839" transform="translate(-338.289 -111.551)" fill="#263238"/>
          <path id="Path_44526" data-name="Path 44526" d="M393.768,148.2a.851.851,0,1,1,.852-.852.853.853,0,0,1-.852.852m0-1.677a.826.826,0,1,0,.826.826.827.827,0,0,0-.826-.826" transform="translate(-338.274 -111.537)" fill="#fff"/>
          <path id="Path_44527" data-name="Path 44527" d="M394.621,151.834a.839.839,0,1,1-.839-.839.839.839,0,0,1,.839.839" transform="translate(-338.289 -113.882)" fill="#263238"/>
          <path id="Path_44528" data-name="Path 44528" d="M393.768,152.672a.851.851,0,1,1,.852-.851.853.853,0,0,1-.852.851m0-1.677a.826.826,0,1,0,.826.826.827.827,0,0,0-.826-.826" transform="translate(-338.274 -113.868)" fill="#fff"/>
          <path id="Path_44529" data-name="Path 44529" d="M394.621,156.3a.839.839,0,1,1-.839-.839.839.839,0,0,1,.839.839" transform="translate(-338.289 -116.212)" fill="#263238"/>
          <path id="Path_44530" data-name="Path 44530" d="M393.768,157.14a.851.851,0,1,1,.852-.851.853.853,0,0,1-.852.851m0-1.677a.826.826,0,1,0,.826.826.827.827,0,0,0-.826-.826" transform="translate(-338.274 -116.198)" fill="#fff"/>
          <path id="Path_44531" data-name="Path 44531" d="M303.534,202.629a2.4,2.4,0,1,1-2.4-2.4,2.4,2.4,0,0,1,2.4,2.4" transform="translate(-289.156 -139.563)" fill="#006ceb"/>
          <path id="Path_44532" data-name="Path 44532" d="M301.124,205.024a2.409,2.409,0,1,1,2.409-2.409,2.411,2.411,0,0,1-2.409,2.409m0-4.792a2.383,2.383,0,1,0,2.383,2.383,2.386,2.386,0,0,0-2.383-2.383" transform="translate(-289.142 -139.549)" fill="#006ceb"/>
          <path id="Path_44533" data-name="Path 44533" d="M316.334,202.629a2.4,2.4,0,1,1-2.4-2.4,2.4,2.4,0,0,1,2.4,2.4" transform="translate(-295.832 -139.563)" fill="#263238"/>
          <path id="Path_44534" data-name="Path 44534" d="M313.925,205.024a2.409,2.409,0,1,1,2.408-2.409,2.412,2.412,0,0,1-2.408,2.409m0-4.792a2.383,2.383,0,1,0,2.383,2.383,2.386,2.386,0,0,0-2.383-2.383" transform="translate(-295.818 -139.549)" fill="#fff"/>
          <path id="Path_44535" data-name="Path 44535" d="M329.134,202.629a2.4,2.4,0,1,1-2.4-2.4,2.4,2.4,0,0,1,2.4,2.4" transform="translate(-302.508 -139.563)" fill="#455a64"/>
          <path id="Path_44536" data-name="Path 44536" d="M326.725,205.024a2.409,2.409,0,1,1,2.409-2.409,2.411,2.411,0,0,1-2.409,2.409m0-4.792a2.383,2.383,0,1,0,2.383,2.383,2.386,2.386,0,0,0-2.383-2.383" transform="translate(-302.494 -139.549)" fill="#fff"/>
          <path id="Path_44537" data-name="Path 44537" d="M283.137,162.349a4.5,4.5,0,0,1,.872.353,4.34,4.34,0,0,0-.712-1.658,5,5,0,0,1-.61-1.375c-.068-.932.645-1.621,1.241-.564a8.319,8.319,0,0,0,1.159,1.424c1.313,1.278,5.548,5.887,5.548,5.887l-3.27,4.267a34.237,34.237,0,0,1-6.228-.932c-1.739-.531-2.42-1.184-2.433-1.588s.677-.645.677-.645a1.961,1.961,0,0,1-.35-1.165c.083-.54.827-.8.827-.8a2.759,2.759,0,0,1-.267-1.047c-.016-.555.684-1.219.684-1.219a.935.935,0,0,1-.513-1.436c.182-.284.725-.426,1.724-.108.62.2,1.651.61,1.651.61" transform="translate(-278.705 -117.833)" fill="#ffbe9d"/>
          <path id="Path_44538" data-name="Path 44538" d="M378.45,79.946a12.618,12.618,0,0,0-9.3-5.713,13.553,13.553,0,0,0-4.795.432,7.011,7.011,0,0,0-4.214,2.278,11.751,11.751,0,0,0-2.766,5.138,16.887,16.887,0,0,0-.182,5.6,22.217,22.217,0,0,0,2.4,6.848l3.357.715a32.245,32.245,0,0,0,8.467.3,10.865,10.865,0,0,0,7.291-3.915c2.342-3.163,1.955-8.422-.256-11.677" transform="translate(-319.561 -73.806)" fill="#263238"/>
          <path id="Path_44539" data-name="Path 44539" d="M374.553,81.727l-6.566-3.313-1.8.048c-4-.343-7.155,3.824-7.47,7.063a57.779,57.779,0,0,0-.3,10.709,6.942,6.942,0,0,0,5.189,6.288s-.347,2.836-.541,4.624l10.488.177,2.632-23.608a1.9,1.9,0,0,0-1.636-1.988" transform="translate(-320.204 -76.025)" fill="#ffbe9d"/>
          <path id="Path_44540" data-name="Path 44540" d="M372.87,113.353a1.14,1.14,0,0,0-.33-.736,1.166,1.166,0,0,0-1.4-.206,1.562,1.562,0,0,0-.721,1.407,1.419,1.419,0,0,0,.96.677,1.769,1.769,0,0,0,.19.023,1.272,1.272,0,0,0,.886-.263,1.135,1.135,0,0,0,.418-.9" transform="translate(-326.539 -93.681)" fill="#eb996e"/>
          <path id="Path_44541" data-name="Path 44541" d="M361.388,102.773a.694.694,0,0,0,.645.723.664.664,0,0,0,.737-.6.7.7,0,0,0-.644-.723.664.664,0,0,0-.737.6" transform="translate(-321.83 -88.415)" fill="#263238"/>
          <path id="Path_44542" data-name="Path 44542" d="M361.414,96.52c.083.093.622-.277,1.368-.25s1.281.42,1.365.331c.041-.039-.041-.205-.274-.387a1.908,1.908,0,0,0-1.089-.377,1.831,1.831,0,0,0-1.093.312c-.235.168-.319.329-.278.371" transform="translate(-321.839 -85.112)" fill="#263238"/>
          <path id="Path_44543" data-name="Path 44543" d="M368.264,103.564a4.966,4.966,0,0,0-1.205-.26c-.19-.026-.369-.07-.4-.2a.969.969,0,0,1,.146-.56l.613-1.433a25.01,25.01,0,0,0,1.4-3.753,24.987,24.987,0,0,0-1.695,3.632l-.589,1.442a1.1,1.1,0,0,0-.124.745.48.48,0,0,0,.3.289,1.294,1.294,0,0,0,.322.056,4.874,4.874,0,0,0,1.229.044" transform="translate(-324.434 -85.905)" fill="#263238"/>
          <path id="Path_44544" data-name="Path 44544" d="M369.256,126.952a13.768,13.768,0,0,0,7.31-1.686s-2.058,3.684-7.454,2.993Z" transform="translate(-325.859 -100.462)" fill="#eb996e"/>
          <path id="Path_44545" data-name="Path 44545" d="M361.4,91.829c.119.187.7.084,1.361.163.668.057,1.213.273,1.366.114.068-.078,0-.258-.224-.45a2.122,2.122,0,0,0-2.2-.222c-.257.142-.357.305-.306.4" transform="translate(-321.832 -82.707)" fill="#263238"/>
          <path id="Path_44546" data-name="Path 44546" d="M375.9,103.865a.694.694,0,0,1-.718.651.664.664,0,0,1-.669-.675.694.694,0,0,1,.717-.651.664.664,0,0,1,.67.676" transform="translate(-328.673 -88.947)" fill="#263238"/>
          <path id="Path_44547" data-name="Path 44547" d="M379.511,97.633c-.092.084-.589-.342-1.334-.393s-1.318.282-1.392.185c-.037-.043.063-.2.313-.356a1.905,1.905,0,0,1,1.122-.26,1.83,1.83,0,0,1,1.054.426c.216.192.282.361.237.4" transform="translate(-329.857 -85.617)" fill="#263238"/>
          <path id="Path_44548" data-name="Path 44548" d="M377.345,92.1c-.156.161-.722-.046-1.413-.092-.69-.068-1.284.044-1.409-.141-.055-.089.047-.254.312-.4A2.138,2.138,0,0,1,376,91.255a2.115,2.115,0,0,1,1.109.4c.235.188.306.366.236.445" transform="translate(-328.673 -82.719)" fill="#263238"/>
          <path id="Path_44549" data-name="Path 44549" d="M392.088,106.683c.015-.4.513-1.337.913-1.386,1.068-.129,2.98.022,2.906,2.72-.1,3.689-3.784,2.827-3.788,2.72,0-.083-.081-2.664-.031-4.055" transform="translate(-337.834 -90.03)" fill="#ffbe9d"/>
          <path id="Path_44550" data-name="Path 44550" d="M394.371,110.784c.016-.011.063.047.17.1a.643.643,0,0,0,.48.023,1.59,1.59,0,0,0,.775-1.407,2.117,2.117,0,0,0-.154-.925.742.742,0,0,0-.47-.507.328.328,0,0,0-.384.166c-.052.1-.031.177-.05.182s-.078-.064-.044-.215a.414.414,0,0,1,.152-.227.487.487,0,0,1,.358-.084.905.905,0,0,1,.656.59,2.185,2.185,0,0,1,.194,1.035,1.669,1.669,0,0,1-.981,1.567.689.689,0,0,1-.585-.114c-.111-.094-.129-.177-.116-.183" transform="translate(-339.031 -91.396)" fill="#eb996e"/>
          <path id="Path_44551" data-name="Path 44551" d="M381.716,90.673l-1.019.884c-5.872-3.862-11.843-14.376-10.3-13.947A11.771,11.771,0,0,1,376.2,77.5c2.948.777,8.492,2.781,8.09,6.3a18.487,18.487,0,0,1-2.577,6.871" transform="translate(-326.4 -75.382)" fill="#263238"/>
          <path id="Path_44552" data-name="Path 44552" d="M395.463,73.965c-1.43.835-2.7,3.271-2.118,4.821a4.857,4.857,0,0,0,6.207,5.428,4.674,4.674,0,0,0,2.633-2.03,5.62,5.62,0,0,0,.575-3.9,6.218,6.218,0,0,0-2.584-4.084,4.592,4.592,0,0,0-4.712-.232" transform="translate(-338.422 -73.421)" fill="#263238"/>
          <path id="Path_44553" data-name="Path 44553" d="M385.1,91.139a3.555,3.555,0,0,1-.672-.291c-.423-.205-1.029-.519-1.76-.937A26.621,26.621,0,0,1,377.382,86a17.7,17.7,0,0,1-3.828-5.345,12.745,12.745,0,0,1-.683-1.879,3.232,3.232,0,0,1-.149-.718c.053-.016.283,1.007,1.011,2.513a18.891,18.891,0,0,0,3.844,5.229,29.82,29.82,0,0,0,5.2,3.942c.715.438,1.3.776,1.71,1.011a3.829,3.829,0,0,1,.621.387" transform="translate(-327.74 -75.839)" fill="#455a64"/>
          <path id="Path_44554" data-name="Path 44554" d="M399.186,88.26c-.051,0-.072-.687-.278-1.771a13.987,13.987,0,0,0-4.031-7.441c-.795-.764-1.36-1.159-1.331-1.2a1.625,1.625,0,0,1,.421.243,9.046,9.046,0,0,1,1.044.812,12.707,12.707,0,0,1,4.091,7.553,9.036,9.036,0,0,1,.11,1.319,1.636,1.636,0,0,1-.027.485" transform="translate(-338.602 -75.729)" fill="#455a64"/>
          <path id="Path_44555" data-name="Path 44555" d="M394.133,115.991a1.382,1.382,0,1,1-1.382-1.381,1.382,1.382,0,0,1,1.382,1.381" transform="translate(-337.468 -94.904)" fill="#263238"/>
          <path id="Path_44556" data-name="Path 44556" d="M334.2,403.085l.964,10.04s-10.943,4.088-11.062,6.111l20.689.056-.011-1.513-.868-5.165-1.279-10.032Z" transform="translate(-302.385 -245.103)" fill="#263238"/>
          <path id="Path_44557" data-name="Path 44557" d="M344.786,435.86l-.012-1.513-19.844.38s-.942.413-.833,1.076Z" transform="translate(-302.375 -261.671)" fill="#455a64"/>
          <path id="Path_44558" data-name="Path 44558" d="M346.509,424.29c0,.1.521.149,1.03.48.594.364.707.8.877.723.1-.02-.061-.638-.685-1.028s-1.245-.27-1.222-.176" transform="translate(-314.07 -256.375)" fill="#455a64"/>
          <path id="Path_44559" data-name="Path 44559" d="M341.872,426.281c-.023.1.425.275.777.711.43.5.39.9.558.894.1.016.167-.589-.281-1.124s-1.052-.58-1.053-.481" transform="translate(-311.651 -257.442)" fill="#455a64"/>
          <path id="Path_44560" data-name="Path 44560" d="M338.339,429.946c.094.021.236-.5-.03-1.061s-.751-.79-.795-.7c-.08.116.278.435.468.856.223.462.254.9.356.908" transform="translate(-309.372 -258.446)" fill="#455a64"/>
          <path id="Path_44561" data-name="Path 44561" d="M344.972,418.941c.044.094.518-.05,1.1-.012s1.041.221,1.094.133-.385-.456-1.074-.492-1.173.289-1.122.371" transform="translate(-313.266 -253.44)" fill="#263238"/>
          <path id="Path_44562" data-name="Path 44562" d="M387.434,403.743l.887,9.869s-10.776,3.95-10.9,5.937l20.324.18,0-1.486-.821-5.079-1.2-9.864Z" transform="translate(-330.19 -245.477)" fill="#263238"/>
          <path id="Path_44563" data-name="Path 44563" d="M397.731,436.02l0-1.486-19.5.254s-.928.4-.825,1.053Z" transform="translate(-330.181 -261.768)" fill="#455a64"/>
          <path id="Path_44564" data-name="Path 44564" d="M399.5,424.53c0,.1.51.149,1.009.478s.764.756.857.716c.093-.019-.055-.627-.666-1.014s-1.222-.273-1.2-.18" transform="translate(-341.71 -256.502)" fill="#455a64"/>
          <path id="Path_44565" data-name="Path 44565" d="M394.936,426.456c-.023.1.416.273.759.7s.442.886.543.882c.1.016.168-.578-.269-1.106s-1.03-.576-1.032-.479" transform="translate(-339.328 -257.534)" fill="#455a64"/>
          <path id="Path_44566" data-name="Path 44566" d="M391.448,430.035c.092.022.235-.485-.023-1.042s-.733-.78-.776-.7.249.383.455.844.243.884.344.894" transform="translate(-337.088 -258.506)" fill="#455a64"/>
          <path id="Path_44567" data-name="Path 44567" d="M398.023,419.271c.042.093.509-.046,1.083,0s1.021.224,1.074.137-.376-.451-1.053-.489-1.154.277-1.1.357" transform="translate(-340.936 -253.619)" fill="#263238"/>
          <path id="Path_44568" data-name="Path 44568" d="M338.737,221.13s-4.9,14.2-5.073,24.768,1.723,24.933,3.921,43.466,1.152,28.413,1.152,28.413H349.9a218.5,218.5,0,0,0,1.014-22c-.169-10.392-.981-13.683.017-25.114s2.577-18.3,4.24-21.762a23.854,23.854,0,0,0,4.945-12.988,36.621,36.621,0,0,0-2.32-13.967Z" transform="translate(-307.365 -150.462)" fill="#263238"/>
          <path id="Path_44569" data-name="Path 44569" d="M365.008,241.759c.186.571,2.488,22.549,5.936,32.521,3.327,9.625,4.125,14.7,5.553,22.948,1.788,10.32,3.181,21.253,3.181,21.253h11.884s-1.671-17.762-3.342-31.646-4.085-31-3.714-36.136,1.3-11.477,0-18.672-4.11-9.092-4.11-9.092l-10.082-.456Z" transform="translate(-323.718 -151.166)" fill="#263238"/>
          <path id="Path_44570" data-name="Path 44570" d="M379.434,234.941a2.446,2.446,0,0,1,.184.361,7.151,7.151,0,0,1,.4,1.094,14.464,14.464,0,0,1,.392,4.256,28.066,28.066,0,0,1-.977,6.266,20.064,20.064,0,0,1-1.3,3.525,25.139,25.139,0,0,1-2.147,3.407,20.679,20.679,0,0,0-3.017,7.048,50.193,50.193,0,0,0-1.128,6.213c-.22,1.787-.351,3.24-.45,4.243q-.073.726-.116,1.155a2.5,2.5,0,0,1-.057.4,2.441,2.441,0,0,1,.007-.406q.026-.431.07-1.159c.069-1.006.174-2.462.371-4.256a47.721,47.721,0,0,1,1.08-6.249,30.37,30.37,0,0,1,1.124-3.58,17.7,17.7,0,0,1,.83-1.811,18.816,18.816,0,0,1,1.08-1.741,25.218,25.218,0,0,0,2.134-3.374,20.213,20.213,0,0,0,1.295-3.478,28.772,28.772,0,0,0,1.022-6.212,15.123,15.123,0,0,0-.31-4.225,8.621,8.621,0,0,0-.355-1.1,2.475,2.475,0,0,1-.138-.381" transform="translate(-326.958 -157.666)" fill="#455a64"/>
          <path id="Path_44571" data-name="Path 44571" d="M361.94,136.72,351.377,135.3s-9.676,10.938-11.788,21.381c-.837,4.14-.283,12.633-.283,12.633-1.658,10.349-4.341,22.529-4.341,22.529l24.988-.469v-5.516l1.36,5.152,8.384-2.572-5.417-17.341c.043.138,3.327-11.451,4.49-16.179a50.3,50.3,0,0,0,1.2-13.186c-.087-1.086-5.221-4.523-8.028-5.009" transform="translate(-308.049 -105.693)" fill="#d44751"/>
          <g id="Group_47736" data-name="Group 47736" transform="translate(26.482 44.339)" opacity="0.3">
            <g id="Group_47735" data-name="Group 47735">
              <g id="Group_47734" data-name="Group 47734" clip-path="url(#clip-path)">
                <path id="Path_44572" data-name="Path 44572" d="M341.765,172.643l-7.707,15.1a6.456,6.456,0,0,0,4.775-2.366,21.712,21.712,0,0,0,3.2-5.04c2.292-4.508,4.5-9.2,4.958-14.237a54.918,54.918,0,0,0-5.227,6.545" transform="translate(-334.057 -166.098)"/>
              </g>
            </g>
          </g>
          <path id="Path_44573" data-name="Path 44573" d="M297.359,152.876c.112.165,11.222,6.519,11.222,6.519s5.2-9.9,6.867-13.356c1.644-3.415,4.284-8.272,6.941-9.768s6.9-.61,6.9-.61l-2.267,12.913-4.312,9.288s-5.119,10.23-7.925,12.61c-2.559,2.169-6.529,1.3-8.34.24s-13.68-11.286-13.68-11.286Z" transform="translate(-286.04 -105.748)" fill="#d1424c"/>
          <path id="Path_44574" data-name="Path 44574" d="M395.745,145.6s3.6,2.682,3.959,5.383c.295,2.233,2,16.806,2.818,22.5a8.387,8.387,0,0,1-1.726,6.547c-1.423,1.723-3.574,2.936-6.485.9-2-1.4-7.117-7.125-7.117-7.125l8.416-26.364" transform="translate(-335.29 -111.069)" fill="#d44751"/>
          <path id="Path_44575" data-name="Path 44575" d="M379.7,209.4a13.109,13.109,0,0,1-1.672-.2c-1.028-.145-2.449-.336-4.024-.5s-3.005-.274-4.041-.346a12.954,12.954,0,0,1-1.677-.151,1.615,1.615,0,0,1,.453-.034c.291-.007.712,0,1.233.01,1.041.027,2.478.109,4.058.274s3,.386,4.026.576c.512.095.924.179,1.208.247a1.605,1.605,0,0,1,.436.128" transform="translate(-325.426 -143.699)" fill="#263238"/>
          <path id="Path_44576" data-name="Path 44576" d="M398.282,191.315a3.079,3.079,0,0,1-.19-.509l-.472-1.46-1.628-5.249-.01-.032.01-.034,2.331-8.313c1.23-4.287,2.344-8.166,3.161-11.016l.989-3.329.282-.9a.166.166,0,1,1,.054.015l-.232.916c-.222.827-.529,1.964-.9,3.353l-3.083,11.038-2.373,8.3v-.066l1.533,5.278.41,1.479a3.064,3.064,0,0,1,.122.53" transform="translate(-339.873 -118.663)" fill="#263238"/>
          <path id="Path_44577" data-name="Path 44577" d="M366.317,134.693a7.348,7.348,0,0,1,2.746-1.03,46.836,46.836,0,0,1,7.353-.007,3.877,3.877,0,0,1,1.778.507l1.8,2.6Z" transform="translate(-324.401 -104.763)" fill="#ff725e"/>
          <path id="Path_44578" data-name="Path 44578" d="M360.937,145.284a11.546,11.546,0,0,0-4.913-7.013,3.883,3.883,0,0,1,1.142.632,9.366,9.366,0,0,1,3.567,5.092,3.892,3.892,0,0,1,.2,1.289" transform="translate(-319.031 -107.243)" fill="#263238"/>
          <path id="Path_44579" data-name="Path 44579" d="M380.423,137.322a15.684,15.684,0,0,1-1.955-.21l-4.7-.583c-1.839-.227-3.5-.459-4.7-.665-.6-.1-1.082-.192-1.415-.266a1.955,1.955,0,0,1-.511-.139,15.587,15.587,0,0,1,1.955.21l4.706.582c1.838.227,3.5.46,4.7.665.6.1,1.083.193,1.415.266a1.93,1.93,0,0,1,.512.14" transform="translate(-324.829 -105.774)" fill="#263238"/>
          <path id="Path_44580" data-name="Path 44580" d="M343.776,163.245a1.559,1.559,0,0,1-.112.308l-.366.861c-.325.745-.807,1.818-1.42,3.135-1.228,2.634-2.994,6.242-5.088,10.151a39.887,39.887,0,0,1-3.215,5.374,11.142,11.142,0,0,1-1.92,1.965,6.583,6.583,0,0,1-2.126,1.109,7.118,7.118,0,0,1-3.436.179,6.455,6.455,0,0,1-.907-.245,1.6,1.6,0,0,1-.3-.126c.008-.026.43.14,1.227.272a7.274,7.274,0,0,0,3.363-.255,6.474,6.474,0,0,0,2.049-1.1,11.132,11.132,0,0,0,1.865-1.942,41.466,41.466,0,0,0,3.175-5.351c2.092-3.9,3.882-7.495,5.151-10.107l1.494-3.1.41-.841a1.537,1.537,0,0,1,.159-.286" transform="translate(-302.791 -120.271)" fill="#263238"/>
          <path id="Path_44581" data-name="Path 44581" d="M369.954,113.407c.015-.13.878.02,1.62-.61s.809-1.565.931-1.551c.056,0,.132.235.074.625a2.181,2.181,0,0,1-.728,1.3,1.9,1.9,0,0,1-1.349.456c-.367-.031-.564-.165-.548-.223" transform="translate(-326.298 -93.149)" fill="#263238"/>
        </g>
      </g>
    </g>
  </g>
</svg>
