<svg xmlns="http://www.w3.org/2000/svg" width="48" height="48" viewBox="0 0 48 48">
  <g id="Group_48241" data-name="Group 48241" transform="translate(-1099 -533)">
    <rect id="Rectangle_28357" data-name="Rectangle 28357" width="48" height="48" rx="8" transform="translate(1099 533)" fill="#feebee"/>
    <g id="Group_48241-2" data-name="Group 48241" transform="translate(1112.583 545.104)">
      <g id="Group_48212" data-name="Group 48212">
        <path id="Path_44933" data-name="Path 44933" d="M35.3,80.18c-.025.456-.044.894-.073,1.332-.062.924-.131,1.847-.195,2.77q-.124,1.787-.245,3.573c-.06.889-.111,1.779-.174,2.668-.062.871-.089,1.748-.21,2.611A2.951,2.951,0,0,1,31.5,95.628q-5.2.012-10.395,0a3.033,3.033,0,0,1-2.959-2.876c-.074-1.434-.2-2.866-.294-4.3-.077-1.139-.145-2.28-.221-3.419-.079-1.174-.166-2.347-.246-3.521-.03-.438-.049-.876-.074-1.333Zm-5.913,5.785c0-.71,0-1.419,0-2.129a1.23,1.23,0,0,0-.077-.429.847.847,0,0,0-1.63.331c-.014,1.479-.008,2.959,0,4.439a.942.942,0,0,0,.118.418.836.836,0,0,0,.954.4.872.872,0,0,0,.635-.851c.007-.727,0-1.454,0-2.181m-6.155.009c0,.718,0,1.437,0,2.155a.859.859,0,1,0,1.714-.038c.011-1.428,0-2.856,0-4.283a1.106,1.106,0,0,0-.07-.379.842.842,0,0,0-.937-.531.864.864,0,0,0-.707.871c-.007.735,0,1.471,0,2.207" transform="translate(-15.515 -71.843)" fill="#f83d65"/>
        <path id="Path_44934" data-name="Path 44934" d="M10.777,7.152q-4.393,0-8.785,0a1.911,1.911,0,0,1-.171-3.818c1.109-.014,2.218-.009,3.327,0,.221,0,.283-.052.295-.288A4.8,4.8,0,0,1,6.15.821,1.7,1.7,0,0,1,7.686,0Q10.792,0,13.9,0a1.835,1.835,0,0,1,1.749,1.2,5.029,5.029,0,0,1,.5,1.971c-.012.179.131.15.238.151.581,0,1.161,0,1.741,0,.52,0,1.04,0,1.559,0a1.91,1.91,0,0,1,.008,3.819q-4.458.008-8.915,0m.015-3.83h1.221c.693,0,1.385,0,2.078,0,.412,0,.52-.15.4-.532-.083-.255-.17-.508-.254-.762-.129-.387-.178-.423-.6-.424H10.179c-.77,0-1.541,0-2.311,0a.44.44,0,0,0-.494.355c-.072.266-.173.525-.26.787-.147.439-.051.577.407.578q1.636,0,3.272,0" transform="translate(0 0)" fill="#f83d65"/>
      </g>
    </g>
  </g>
</svg>
