<svg xmlns="http://www.w3.org/2000/svg" xmlns:xlink="http://www.w3.org/1999/xlink" width="298.983" height="233.848" viewBox="0 0 298.983 233.848">
  <defs>
    <clipPath id="clip-path">
      <rect id="Rectangle_27308" data-name="Rectangle 27308" width="281.548" height="210.897" fill="none"/>
    </clipPath>
    <clipPath id="clip-path-2">
      <rect id="Rectangle_27797" data-name="Rectangle 27797" width="77.329" height="164.302" fill="none"/>
    </clipPath>
    <clipPath id="clip-path-3">
      <rect id="Rectangle_27794" data-name="Rectangle 27794" width="33.163" height="1.616" fill="none"/>
    </clipPath>
    <clipPath id="clip-path-4">
      <rect id="Rectangle_27795" data-name="Rectangle 27795" width="33.372" height="1.611" fill="none"/>
    </clipPath>
    <clipPath id="clip-path-5">
      <rect id="Rectangle_27796" data-name="Rectangle 27796" width="33.373" height="1.611" fill="none"/>
    </clipPath>
    <clipPath id="clip-path-6">
      <rect id="Rectangle_27798" data-name="Rectangle 27798" width="37.854" height="30.788" fill="none"/>
    </clipPath>
    <clipPath id="clip-path-7">
      <rect id="Rectangle_27799" data-name="Rectangle 27799" width="29.371" height="7.399" fill="none"/>
    </clipPath>
    <clipPath id="clip-path-8">
      <rect id="Rectangle_27800" data-name="Rectangle 27800" width="34.229" height="26.073" fill="none"/>
    </clipPath>
    <clipPath id="clip-path-10">
      <rect id="Rectangle_27305" data-name="Rectangle 27305" width="60.286" height="9.737" fill="none"/>
    </clipPath>
    <clipPath id="clip-path-11">
      <rect id="Rectangle_27801" data-name="Rectangle 27801" width="9.049" height="9.049" fill="#f80"/>
    </clipPath>
  </defs>
  <g id="Group_47673" data-name="Group 47673" transform="translate(0 0)">
    <path id="Path_42213" data-name="Path 42213" d="M239.331,197.874H163.623c-7.551,0-13.672-5.763-13.672-12.873V12.873C149.951,5.764,156.072,0,163.623,0h75.708C246.882,0,253,5.764,253,12.873V185c0,7.11-6.121,12.873-13.672,12.873" transform="translate(-66.07 0)" fill="#eaeaeb"/>
    <g id="Group_46456" data-name="Group 46456" transform="translate(0 14.237)">
      <g id="Group_47675" data-name="Group 47675" transform="translate(0)">
        <g id="Group_46318" data-name="Group 46318" transform="translate(17.436 8.714)">
          <g id="Group_46317" data-name="Group 46317" clip-path="url(#clip-path)">
            <path id="Path_42096" data-name="Path 42096" d="M105.447,305.736A44.651,44.651,0,1,1,150.1,261.085a44.7,44.7,0,0,1-44.651,44.651m0-88.718a44.067,44.067,0,1,0,44.067,44.067,44.117,44.117,0,0,0-44.067-44.067" transform="translate(-32.196 -114.617)" fill="#e1e5ef"/>
            <path id="Path_42097" data-name="Path 42097" d="M35.9,273.486A35.9,35.9,0,1,0,0,237.59a35.9,35.9,0,0,0,35.9,35.9" transform="translate(0 -106.812)" fill="#506cca"/>
          </g>
        </g>
        <g id="Group_46439" data-name="Group 46439" transform="translate(21.169)">
          <g id="Group_47674" data-name="Group 47674" transform="translate(0)">
            <path id="Path_42099" data-name="Path 42099" d="M79.058,66.116a.956.956,0,0,1-.955-.955,1.148,1.148,0,0,0-1.147-1.147.955.955,0,1,1,0-1.911A1.148,1.148,0,0,0,78.1,60.955a.955.955,0,0,1,1.911,0A1.148,1.148,0,0,0,81.16,62.1a.955.955,0,1,1,0,1.911,1.148,1.148,0,0,0-1.146,1.147.956.956,0,0,1-.955.955" transform="translate(-61.417 -31.774)" fill="#f80"/>
            <path id="Path_42100" data-name="Path 42100" d="M47.117,105.234a.658.658,0,0,1-.468-.194l-1.456-1.456a.661.661,0,0,1,0-.935l1.456-1.456a.661.661,0,0,1,.935,0l1.456,1.456a.661.661,0,0,1,0,.935l-1.456,1.456a.658.658,0,0,1-.468.194m-.52-2.117.52.52.52-.52-.52-.52Z" transform="translate(-45 -53.487)" fill="#96c0f4"/>
            <path id="Path_42101" data-name="Path 42101" d="M93.293,137.586a3.293,3.293,0,1,1,3.293-3.293,3.3,3.3,0,0,1-3.293,3.293m0-4.055a.762.762,0,1,0,.762.762.763.763,0,0,0-.762-.762" transform="translate(-68.831 -69.374)" fill="#506cca"/>
            <path id="Path_42102" data-name="Path 42102" d="M320.646,49.385V18.1A18.1,18.1,0,0,0,302.541,0H224.578a18.105,18.105,0,0,0-18.1,18.1v171.61a18.1,18.1,0,0,0,18.1,18.1h77.964a18.1,18.1,0,0,0,18.1-18.1V49.385Z" transform="translate(-130.512 0)" fill="#fff"/>
            <rect id="Rectangle_27310" data-name="Rectangle 27310" width="180.568" height="0.7" transform="translate(64.125 207.258)" fill="#213260"/>
            <path id="Path_42103" data-name="Path 42103" d="M307.8,10.922h-8.651c.006,0-61.487.015-61.552,0h-8.08A13.521,13.521,0,0,0,216,24.442V195.8a13.521,13.521,0,0,0,13.52,13.52H307.8a13.521,13.521,0,0,0,13.521-13.52V24.442A13.521,13.521,0,0,0,307.8,10.922" transform="translate(-135.557 -5.784)" fill="none" stroke="#d3e1f0" stroke-width="1"/>
            <g id="Group_47699" data-name="Group 47699" transform="translate(175.34 43.592)">
              <g id="Group_47700" data-name="Group 47700">
                <rect id="Rectangle_27789" data-name="Rectangle 27789" width="36.112" height="7.735" transform="translate(36.544 156.487)" fill="#ff725e"/>
                <g id="Group_47686" data-name="Group 47686">
                  <g id="Group_47685" data-name="Group 47685" clip-path="url(#clip-path-2)">
                    <path id="Path_44018" data-name="Path 44018" d="M90.481,361.919a49.04,49.04,0,0,1,0-7.673,49.035,49.035,0,0,1,0,7.673" transform="translate(-50.398 -197.644)" fill="#263238"/>
                    <path id="Path_44019" data-name="Path 44019" d="M86.013,361.919a49.04,49.04,0,0,1,0-7.673,49.038,49.038,0,0,1,0,7.673" transform="translate(-47.905 -197.644)" fill="#263238"/>
                    <path id="Path_44020" data-name="Path 44020" d="M100.3,361.919a49.038,49.038,0,0,1,0-7.673,49.038,49.038,0,0,1,0,7.673" transform="translate(-55.874 -197.644)" fill="#263238"/>
                    <path id="Path_44021" data-name="Path 44021" d="M95.828,361.919a49.04,49.04,0,0,1,0-7.673,49.038,49.038,0,0,1,0,7.673" transform="translate(-53.382 -197.644)" fill="#263238"/>
                    <path id="Path_44022" data-name="Path 44022" d="M110.111,361.919a49.043,49.043,0,0,1,0-7.673,49.035,49.035,0,0,1,0,7.673" transform="translate(-61.35 -197.644)" fill="#263238"/>
                    <path id="Path_44023" data-name="Path 44023" d="M105.643,361.919a49.038,49.038,0,0,1,0-7.673,49.035,49.035,0,0,1,0,7.673" transform="translate(-58.858 -197.644)" fill="#263238"/>
                    <path id="Path_44024" data-name="Path 44024" d="M119.927,361.919a49.04,49.04,0,0,1,0-7.673,49.04,49.04,0,0,1,0,7.673" transform="translate(-66.827 -197.644)" fill="#263238"/>
                    <path id="Path_44025" data-name="Path 44025" d="M115.458,361.919a49.038,49.038,0,0,1,0-7.673,49.04,49.04,0,0,1,0,7.673" transform="translate(-64.334 -197.644)" fill="#263238"/>
                    <path id="Path_44026" data-name="Path 44026" d="M129.742,361.919a49.04,49.04,0,0,1,0-7.673,49.04,49.04,0,0,1,0,7.673" transform="translate(-72.303 -197.644)" fill="#263238"/>
                    <path id="Path_44027" data-name="Path 44027" d="M125.274,361.919a49.035,49.035,0,0,1,0-7.673,49.04,49.04,0,0,1,0,7.673" transform="translate(-69.81 -197.644)" fill="#263238"/>
                    <path id="Path_44028" data-name="Path 44028" d="M139.557,361.919a49.045,49.045,0,0,1,0-7.673,49.026,49.026,0,0,1,0,7.673" transform="translate(-77.779 -197.644)" fill="#263238"/>
                    <path id="Path_44029" data-name="Path 44029" d="M135.089,361.919a49.04,49.04,0,0,1,0-7.673,49.04,49.04,0,0,1,0,7.673" transform="translate(-75.286 -197.644)" fill="#263238"/>
                    <path id="Path_44030" data-name="Path 44030" d="M149.373,361.919a49.035,49.035,0,0,1,0-7.673,49.04,49.04,0,0,1,0,7.673" transform="translate(-83.256 -197.644)" fill="#263238"/>
                    <path id="Path_44031" data-name="Path 44031" d="M144.9,361.919a49.04,49.04,0,0,1,0-7.673,49.03,49.03,0,0,1,0,7.673" transform="translate(-80.762 -197.644)" fill="#263238"/>
                    <path id="Path_44032" data-name="Path 44032" d="M159.188,361.919a49.04,49.04,0,0,1,0-7.673,49.04,49.04,0,0,1,0,7.673" transform="translate(-88.732 -197.644)" fill="#263238"/>
                    <path id="Path_44033" data-name="Path 44033" d="M154.72,361.919a49.04,49.04,0,0,1,0-7.673,49.04,49.04,0,0,1,0,7.673" transform="translate(-86.239 -197.644)" fill="#263238"/>
                    <rect id="Rectangle_27790" data-name="Rectangle 27790" width="36.112" height="7.735" transform="translate(2.999 140.995)" fill="#ff725e"/>
                    <path id="Path_44034" data-name="Path 44034" d="M14.6,326.874a49.039,49.039,0,0,1,0-7.673,24.6,24.6,0,0,1,.15,3.837,24.6,24.6,0,0,1-.15,3.836" transform="translate(-8.061 -178.091)" fill="#263238"/>
                    <path id="Path_44035" data-name="Path 44035" d="M10.13,326.874a49.039,49.039,0,0,1,0-7.673,24.6,24.6,0,0,1,.15,3.837,24.6,24.6,0,0,1-.15,3.836" transform="translate(-5.568 -178.091)" fill="#263238"/>
                    <path id="Path_44036" data-name="Path 44036" d="M24.413,326.874a49.038,49.038,0,0,1,0-7.673,24.6,24.6,0,0,1,.15,3.837,24.6,24.6,0,0,1-.15,3.836" transform="translate(-13.537 -178.091)" fill="#263238"/>
                    <path id="Path_44037" data-name="Path 44037" d="M19.945,326.874a49.04,49.04,0,0,1,0-7.673,24.6,24.6,0,0,1,.15,3.837,24.6,24.6,0,0,1-.15,3.836" transform="translate(-11.044 -178.091)" fill="#263238"/>
                    <path id="Path_44038" data-name="Path 44038" d="M34.228,326.874a49.04,49.04,0,0,1,0-7.673,49.038,49.038,0,0,1,0,7.673" transform="translate(-19.013 -178.091)" fill="#263238"/>
                    <path id="Path_44039" data-name="Path 44039" d="M29.76,326.874a49.039,49.039,0,0,1,0-7.673,49.039,49.039,0,0,1,0,7.673" transform="translate(-16.52 -178.091)" fill="#263238"/>
                    <path id="Path_44040" data-name="Path 44040" d="M44.044,326.874a49.039,49.039,0,0,1,0-7.673,49.039,49.039,0,0,1,0,7.673" transform="translate(-24.49 -178.091)" fill="#263238"/>
                    <path id="Path_44041" data-name="Path 44041" d="M39.575,326.874a49.039,49.039,0,0,1,0-7.673,49.039,49.039,0,0,1,0,7.673" transform="translate(-21.996 -178.091)" fill="#263238"/>
                    <path id="Path_44042" data-name="Path 44042" d="M53.859,326.874a49.039,49.039,0,0,1,0-7.673,49.037,49.037,0,0,1,0,7.673" transform="translate(-29.966 -178.091)" fill="#263238"/>
                    <path id="Path_44043" data-name="Path 44043" d="M49.391,326.874a49.038,49.038,0,0,1,0-7.673,49.04,49.04,0,0,1,0,7.673" transform="translate(-27.473 -178.091)" fill="#263238"/>
                    <path id="Path_44044" data-name="Path 44044" d="M63.674,326.874a49.039,49.039,0,0,1,0-7.673,49.037,49.037,0,0,1,0,7.673" transform="translate(-35.442 -178.091)" fill="#263238"/>
                    <path id="Path_44045" data-name="Path 44045" d="M59.206,326.874a49.04,49.04,0,0,1,0-7.673,49.039,49.039,0,0,1,0,7.673" transform="translate(-32.949 -178.091)" fill="#263238"/>
                    <path id="Path_44046" data-name="Path 44046" d="M73.49,326.874a49.04,49.04,0,0,1,0-7.673,49.035,49.035,0,0,1,0,7.673" transform="translate(-40.918 -178.091)" fill="#263238"/>
                    <path id="Path_44047" data-name="Path 44047" d="M69.022,326.874a49.043,49.043,0,0,1,0-7.673,49.038,49.038,0,0,1,0,7.673" transform="translate(-38.426 -178.091)" fill="#263238"/>
                    <path id="Path_44048" data-name="Path 44048" d="M83.305,326.874a49.035,49.035,0,0,1,0-7.673,49.04,49.04,0,0,1,0,7.673" transform="translate(-46.395 -178.091)" fill="#263238"/>
                    <path id="Path_44049" data-name="Path 44049" d="M78.837,326.874a49.038,49.038,0,0,1,0-7.673,49.04,49.04,0,0,1,0,7.673" transform="translate(-43.902 -178.091)" fill="#263238"/>
                    <rect id="Rectangle_27791" data-name="Rectangle 27791" width="36.112" height="7.735" transform="translate(4.712 133.312)" fill="#ff725e"/>
                    <path id="Path_44050" data-name="Path 44050" d="M18.474,309.5a49.039,49.039,0,0,1,0-7.673,24.6,24.6,0,0,1,.15,3.837,24.6,24.6,0,0,1-.15,3.836" transform="translate(-10.223 -168.396)" fill="#263238"/>
                    <path id="Path_44051" data-name="Path 44051" d="M14.006,309.5a49.039,49.039,0,0,1,0-7.673,24.6,24.6,0,0,1,.15,3.837,24.6,24.6,0,0,1-.15,3.836" transform="translate(-7.731 -168.396)" fill="#263238"/>
                    <path id="Path_44052" data-name="Path 44052" d="M28.29,309.5a49.039,49.039,0,0,1,0-7.673,49.04,49.04,0,0,1,0,7.673" transform="translate(-15.7 -168.396)" fill="#263238"/>
                    <path id="Path_44053" data-name="Path 44053" d="M23.822,309.5a49.039,49.039,0,0,1,0-7.673,24.6,24.6,0,0,1,.15,3.837,24.6,24.6,0,0,1-.15,3.836" transform="translate(-13.207 -168.396)" fill="#263238"/>
                    <path id="Path_44054" data-name="Path 44054" d="M38.105,309.5a49.039,49.039,0,0,1,0-7.673,49.037,49.037,0,0,1,0,7.673" transform="translate(-21.176 -168.396)" fill="#263238"/>
                    <path id="Path_44055" data-name="Path 44055" d="M33.637,309.5a49.037,49.037,0,0,1,0-7.673,49.039,49.039,0,0,1,0,7.673" transform="translate(-18.683 -168.396)" fill="#263238"/>
                    <path id="Path_44056" data-name="Path 44056" d="M47.92,309.5a49.04,49.04,0,0,1,0-7.673,49.038,49.038,0,0,1,0,7.673" transform="translate(-26.652 -168.396)" fill="#263238"/>
                    <path id="Path_44057" data-name="Path 44057" d="M43.452,309.5a49.038,49.038,0,0,1,0-7.673,49.039,49.039,0,0,1,0,7.673" transform="translate(-24.159 -168.396)" fill="#263238"/>
                    <path id="Path_44058" data-name="Path 44058" d="M57.736,309.5a49.038,49.038,0,0,1,0-7.673,49.039,49.039,0,0,1,0,7.673" transform="translate(-32.129 -168.396)" fill="#263238"/>
                    <path id="Path_44059" data-name="Path 44059" d="M53.268,309.5a49.038,49.038,0,0,1,0-7.673,49.184,49.184,0,0,1,0,7.673" transform="translate(-29.636 -168.396)" fill="#263238"/>
                    <path id="Path_44060" data-name="Path 44060" d="M67.551,309.5a49.04,49.04,0,0,1,0-7.673,49.038,49.038,0,0,1,0,7.673" transform="translate(-37.605 -168.396)" fill="#263238"/>
                    <path id="Path_44061" data-name="Path 44061" d="M63.083,309.5a49.037,49.037,0,0,1,0-7.673,49.039,49.039,0,0,1,0,7.673" transform="translate(-35.112 -168.396)" fill="#263238"/>
                    <path id="Path_44062" data-name="Path 44062" d="M77.366,309.5a49.04,49.04,0,0,1,0-7.673,49.035,49.035,0,0,1,0,7.673" transform="translate(-43.081 -168.396)" fill="#263238"/>
                    <path id="Path_44063" data-name="Path 44063" d="M72.9,309.5a49.038,49.038,0,0,1,0-7.673,49.035,49.035,0,0,1,0,7.673" transform="translate(-40.588 -168.396)" fill="#263238"/>
                    <path id="Path_44064" data-name="Path 44064" d="M87.181,309.5a49.043,49.043,0,0,1,0-7.673,49.038,49.038,0,0,1,0,7.673" transform="translate(-48.557 -168.396)" fill="#263238"/>
                    <path id="Path_44065" data-name="Path 44065" d="M82.713,309.5a49.04,49.04,0,0,1,0-7.673,49.043,49.043,0,0,1,0,7.673" transform="translate(-46.064 -168.396)" fill="#263238"/>
                    <rect id="Rectangle_27792" data-name="Rectangle 27792" width="36.112" height="7.735" transform="translate(0.168 148.668)" fill="#ff725e"/>
                    <path id="Path_44066" data-name="Path 44066" d="M8.194,344.231a49.038,49.038,0,0,1,0-7.673,24.6,24.6,0,0,1,.15,3.837,24.6,24.6,0,0,1-.15,3.836" transform="translate(-4.488 -187.775)" fill="#263238"/>
                    <path id="Path_44067" data-name="Path 44067" d="M3.726,344.231a49.039,49.039,0,0,1,0-7.673,24.6,24.6,0,0,1,.15,3.837,24.6,24.6,0,0,1-.15,3.836" transform="translate(-1.995 -187.775)" fill="#263238"/>
                    <path id="Path_44068" data-name="Path 44068" d="M18.009,344.231a49.039,49.039,0,0,1,0-7.673,24.6,24.6,0,0,1,.15,3.837,24.6,24.6,0,0,1-.15,3.836" transform="translate(-9.964 -187.775)" fill="#263238"/>
                    <path id="Path_44069" data-name="Path 44069" d="M13.541,344.231a49.039,49.039,0,0,1,0-7.673,24.6,24.6,0,0,1,.15,3.837,24.6,24.6,0,0,1-.15,3.836" transform="translate(-7.471 -187.775)" fill="#263238"/>
                    <path id="Path_44070" data-name="Path 44070" d="M27.825,344.231a49.039,49.039,0,0,1,0-7.673,49.039,49.039,0,0,1,0,7.673" transform="translate(-15.441 -187.775)" fill="#263238"/>
                    <path id="Path_44071" data-name="Path 44071" d="M23.357,344.231a49.038,49.038,0,0,1,0-7.673,24.6,24.6,0,0,1,.15,3.837,24.6,24.6,0,0,1-.15,3.836" transform="translate(-12.948 -187.775)" fill="#263238"/>
                    <path id="Path_44072" data-name="Path 44072" d="M37.64,344.231a49.038,49.038,0,0,1,0-7.673,49.039,49.039,0,0,1,0,7.673" transform="translate(-20.917 -187.775)" fill="#263238"/>
                    <path id="Path_44073" data-name="Path 44073" d="M33.172,344.231a49.038,49.038,0,0,1,0-7.673,49.039,49.039,0,0,1,0,7.673" transform="translate(-18.424 -187.775)" fill="#263238"/>
                    <path id="Path_44074" data-name="Path 44074" d="M47.455,344.231a49.039,49.039,0,0,1,0-7.673,49.038,49.038,0,0,1,0,7.673" transform="translate(-26.393 -187.775)" fill="#263238"/>
                    <path id="Path_44075" data-name="Path 44075" d="M42.987,344.231a49.038,49.038,0,0,1,0-7.673,49.039,49.039,0,0,1,0,7.673" transform="translate(-23.9 -187.775)" fill="#263238"/>
                    <path id="Path_44076" data-name="Path 44076" d="M57.271,344.231a49.039,49.039,0,0,1,0-7.673,49.038,49.038,0,0,1,0,7.673" transform="translate(-31.869 -187.775)" fill="#263238"/>
                    <path id="Path_44077" data-name="Path 44077" d="M52.8,344.231a49.039,49.039,0,0,1,0-7.673,49.039,49.039,0,0,1,0,7.673" transform="translate(-29.377 -187.775)" fill="#263238"/>
                    <path id="Path_44078" data-name="Path 44078" d="M67.086,344.231a49.035,49.035,0,0,1,0-7.673,49.043,49.043,0,0,1,0,7.673" transform="translate(-37.346 -187.775)" fill="#263238"/>
                    <path id="Path_44079" data-name="Path 44079" d="M62.618,344.231a49.039,49.039,0,0,1,0-7.673,49.039,49.039,0,0,1,0,7.673" transform="translate(-34.853 -187.775)" fill="#263238"/>
                    <path id="Path_44080" data-name="Path 44080" d="M76.9,344.231a49.043,49.043,0,0,1,0-7.673,49.038,49.038,0,0,1,0,7.673" transform="translate(-42.822 -187.775)" fill="#263238"/>
                    <path id="Path_44081" data-name="Path 44081" d="M72.433,344.231a49.038,49.038,0,0,1,0-7.673,49.04,49.04,0,0,1,0,7.673" transform="translate(-40.329 -187.775)" fill="#263238"/>
                    <path id="Path_44082" data-name="Path 44082" d="M36.28,336.074c0,.1-8.122.177-18.139.177S0,336.172,0,336.074s8.12-.177,18.141-.177,18.139.08,18.139.177" transform="translate(0 -187.407)" fill="#263238"/>
                    <rect id="Rectangle_27793" data-name="Rectangle 27793" width="36.112" height="7.735" transform="translate(3.787 156.514)" fill="#ff725e"/>
                    <path id="Path_44083" data-name="Path 44083" d="M16.381,361.979a49.039,49.039,0,0,1,0-7.673,24.6,24.6,0,0,1,.15,3.837,24.6,24.6,0,0,1-.15,3.836" transform="translate(-9.056 -197.677)" fill="#263238"/>
                    <path id="Path_44084" data-name="Path 44084" d="M11.913,361.979a49.039,49.039,0,0,1,0-7.673,24.663,24.663,0,0,1,.15,3.837,24.665,24.665,0,0,1-.15,3.836" transform="translate(-6.563 -197.677)" fill="#263238"/>
                    <path id="Path_44085" data-name="Path 44085" d="M26.2,361.979a49.039,49.039,0,0,1,0-7.673,49.039,49.039,0,0,1,0,7.673" transform="translate(-14.532 -197.677)" fill="#263238"/>
                    <path id="Path_44086" data-name="Path 44086" d="M21.728,361.979a49.038,49.038,0,0,1,0-7.673,24.6,24.6,0,0,1,.15,3.837,24.6,24.6,0,0,1-.15,3.836" transform="translate(-12.039 -197.677)" fill="#263238"/>
                    <path id="Path_44087" data-name="Path 44087" d="M36.011,361.979a49.039,49.039,0,0,1,0-7.673,49.039,49.039,0,0,1,0,7.673" transform="translate(-20.008 -197.677)" fill="#263238"/>
                    <path id="Path_44088" data-name="Path 44088" d="M31.543,361.979a49.039,49.039,0,0,1,0-7.673,49.037,49.037,0,0,1,0,7.673" transform="translate(-17.515 -197.677)" fill="#263238"/>
                    <path id="Path_44089" data-name="Path 44089" d="M45.827,361.979a49.039,49.039,0,0,1,0-7.673,49.038,49.038,0,0,1,0,7.673" transform="translate(-25.485 -197.677)" fill="#263238"/>
                    <path id="Path_44090" data-name="Path 44090" d="M41.359,361.979a48.9,48.9,0,0,1,0-7.673,49.182,49.182,0,0,1,0,7.673" transform="translate(-22.991 -197.677)" fill="#263238"/>
                    <path id="Path_44091" data-name="Path 44091" d="M55.642,361.979a49.039,49.039,0,0,1,0-7.673,49.038,49.038,0,0,1,0,7.673" transform="translate(-30.961 -197.677)" fill="#263238"/>
                    <path id="Path_44092" data-name="Path 44092" d="M51.174,361.979a49.038,49.038,0,0,1,0-7.673,49.039,49.039,0,0,1,0,7.673" transform="translate(-28.468 -197.677)" fill="#263238"/>
                    <path id="Path_44093" data-name="Path 44093" d="M65.457,361.979a49.035,49.035,0,0,1,0-7.673,49.04,49.04,0,0,1,0,7.673" transform="translate(-36.437 -197.677)" fill="#263238"/>
                    <path id="Path_44094" data-name="Path 44094" d="M60.989,361.979a49.038,49.038,0,0,1,0-7.673,49.04,49.04,0,0,1,0,7.673" transform="translate(-33.944 -197.677)" fill="#263238"/>
                    <path id="Path_44095" data-name="Path 44095" d="M75.273,361.979a49.038,49.038,0,0,1,0-7.673,49.038,49.038,0,0,1,0,7.673" transform="translate(-41.913 -197.677)" fill="#263238"/>
                    <path id="Path_44096" data-name="Path 44096" d="M70.805,361.979a49.035,49.035,0,0,1,0-7.673,49.038,49.038,0,0,1,0,7.673" transform="translate(-39.42 -197.677)" fill="#263238"/>
                    <path id="Path_44097" data-name="Path 44097" d="M85.088,361.979a49.04,49.04,0,0,1,0-7.673,49.038,49.038,0,0,1,0,7.673" transform="translate(-47.389 -197.677)" fill="#263238"/>
                    <path id="Path_44098" data-name="Path 44098" d="M80.62,361.979a49.038,49.038,0,0,1,0-7.673,49.043,49.043,0,0,1,0,7.673" transform="translate(-44.897 -197.677)" fill="#263238"/>
                    <path id="Path_44099" data-name="Path 44099" d="M44.466,353.821c0,.1-8.122.177-18.139.177s-18.141-.079-18.141-.177,8.12-.177,18.141-.177,18.139.08,18.139.177" transform="translate(-4.567 -197.308)" fill="#263238"/>
                    <path id="Path_44100" data-name="Path 44100" d="M44.255,319.056c0,.064-8.531.115-19.052.115s-19.054-.051-19.054-.115,8.529-.115,19.054-.115,19.052.051,19.052.115" transform="translate(-3.431 -177.946)" fill="#263238"/>
                    <g id="Group_47678" data-name="Group 47678" transform="translate(2.999 140.99)" opacity="0.3">
                      <g id="Group_47677" data-name="Group 47677">
                        <g id="Group_47676" data-name="Group 47676" clip-path="url(#clip-path-3)">
                          <path id="Path_44101" data-name="Path 44101" d="M6.783,318.936a47.015,47.015,0,0,0,16.682,1.431c5.542-.434,10.928-1.511,16.481-1.431Z" transform="translate(-6.783 -318.931)"/>
                        </g>
                      </g>
                    </g>
                    <g id="Group_47681" data-name="Group 47681" transform="translate(5.073 148.745)" opacity="0.3">
                      <g id="Group_47680" data-name="Group 47680">
                        <g id="Group_47679" data-name="Group 47679" clip-path="url(#clip-path-4)">
                          <path id="Path_44102" data-name="Path 44102" d="M11.475,336.474A47.025,47.025,0,0,0,28.157,337.9c5.542-.434,11.138-1.4,16.691-1.316Z" transform="translate(-11.475 -336.474)"/>
                        </g>
                      </g>
                    </g>
                    <g id="Group_47684" data-name="Group 47684" transform="translate(3.656 156.467)" opacity="0.3">
                      <g id="Group_47683" data-name="Group 47683">
                        <g id="Group_47682" data-name="Group 47682" clip-path="url(#clip-path-5)">
                          <path id="Path_44103" data-name="Path 44103" d="M8.271,353.941a47.023,47.023,0,0,0,16.682,1.431c5.542-.434,11.138-1.4,16.691-1.316Z" transform="translate(-8.271 -353.941)"/>
                        </g>
                      </g>
                    </g>
                    <path id="Path_44104" data-name="Path 44104" d="M8.942,327.122a13.575,13.575,0,0,1,0-4.029,13.575,13.575,0,0,1,0,4.029" transform="translate(-4.905 -180.263)" fill="#fff"/>
                    <path id="Path_44105" data-name="Path 44105" d="M1.413,344.236a10.947,10.947,0,0,1,0-3.616,5.579,5.579,0,0,1,.15,1.808,5.578,5.578,0,0,1-.15,1.808" transform="translate(-0.705 -190.042)" fill="#fff"/>
                    <path id="Path_44106" data-name="Path 44106" d="M9.589,363.448a39.625,39.625,0,0,1,0-5.915A19.886,19.886,0,0,1,9.7,360.49a19.89,19.89,0,0,1-.111,2.957" transform="translate(-5.288 -199.478)" fill="#fff"/>
                    <path id="Path_44107" data-name="Path 44107" d="M34.78,351.813c0,.072-6.567.13-14.666.13s-14.667-.058-14.667-.13,6.566-.13,14.667-.13,14.666.058,14.666.13" transform="translate(-3.039 -196.214)" fill="#fff"/>
                  </g>
                </g>
                <g id="Group_47697" data-name="Group 47697" transform="translate(14.724 0)">
                  <g id="Group_47701" data-name="Group 47701">
                    <path id="Path_44108" data-name="Path 44108" d="M114.075,1.619a2.1,2.1,0,0,0-2.19-1.054,2.857,2.857,0,0,0-3.533.1,2.591,2.591,0,0,0-2.518-.026,2.62,2.62,0,0,0-1.315,2.16A2.189,2.189,0,0,0,102.3,3.947a2.215,2.215,0,0,0,.388,2.481,2.137,2.137,0,0,0-1.349,2.41,2.124,2.124,0,0,0,2.248,1.593l10.127-6.4a2.12,2.12,0,0,0,.361-2.415" transform="translate(-71.238 -0.001)" fill="#263238"/>
                    <path id="Path_44109" data-name="Path 44109" d="M105.133,14a8.718,8.718,0,0,1,8.6-8.122l.45,0c4.86.243,6.432,4.728,6.057,9.607l-.268,18.129-7.657,6.777-2.333-4.976-.606-4.85s-4.676-.69-4.775-5.384c-.048-2.268.231-6.946.533-11.176" transform="translate(-73.08 -3.277)" fill="#ae7461"/>
                    <path id="Path_44110" data-name="Path 44110" d="M115.322,59.359a11.271,11.271,0,0,0,6.1-1.854s-1.24,3.52-5.9,3.139Z" transform="translate(-79.065 -32.084)" fill="#6f4439"/>
                    <path id="Path_44111" data-name="Path 44111" d="M109,32.6a.669.669,0,0,0,.649.671.639.639,0,0,0,.682-.611.669.669,0,0,0-.648-.671A.639.639,0,0,0,109,32.6" transform="translate(-75.538 -17.849)" fill="#263238"/>
                    <path id="Path_44112" data-name="Path 44112" d="M108,29.068c.083.087.585-.294,1.3-.3s1.247.352,1.324.263c.038-.039-.048-.2-.279-.362a1.819,1.819,0,0,0-1.061-.318,1.751,1.751,0,0,0-1.036.346c-.219.172-.292.331-.251.37" transform="translate(-74.975 -15.819)" fill="#263238"/>
                    <path id="Path_44113" data-name="Path 44113" d="M122.948,32.756a.669.669,0,0,0,.649.671.638.638,0,0,0,.682-.61.67.67,0,0,0-.648-.672.64.64,0,0,0-.683.611" transform="translate(-83.32 -17.935)" fill="#263238"/>
                    <path id="Path_44114" data-name="Path 44114" d="M123.525,28.7c.084.087.586-.294,1.3-.3s1.246.352,1.324.263c.038-.04-.047-.2-.278-.362a1.822,1.822,0,0,0-1.061-.319,1.747,1.747,0,0,0-1.036.347c-.218.172-.292.331-.252.37" transform="translate(-83.636 -15.616)" fill="#263238"/>
                    <path id="Path_44115" data-name="Path 44115" d="M115.987,34.162a4.707,4.707,0,0,0-1.167-.2c-.183-.017-.357-.052-.389-.178a.942.942,0,0,1,.118-.547l.529-1.408a24.211,24.211,0,0,0,1.184-3.681,24.191,24.191,0,0,0-1.476,3.576l-.507,1.416a1.074,1.074,0,0,0-.088.724.459.459,0,0,0,.3.267,1.206,1.206,0,0,0,.311.041,4.664,4.664,0,0,0,1.181-.008" transform="translate(-78.414 -15.704)" fill="#263238"/>
                    <path id="Path_44116" data-name="Path 44116" d="M120.222,42.841c-.117-.006-.111.777-.773,1.339s-1.492.483-1.5.593c-.01.049.187.15.537.157a1.932,1.932,0,0,0,1.249-.45,1.7,1.7,0,0,0,.6-1.123c.027-.328-.062-.521-.115-.516" transform="translate(-80.533 -23.902)" fill="#263238"/>
                    <path id="Path_44117" data-name="Path 44117" d="M123.468,24.047c.087.187.7.013,1.454.019.751-.011,1.378.157,1.453-.03.033-.089-.095-.259-.359-.416a2.229,2.229,0,0,0-1.116-.286,2.146,2.146,0,0,0-1.1.294c-.255.159-.372.33-.333.419" transform="translate(-83.606 -13.019)" fill="#263238"/>
                    <path id="Path_44118" data-name="Path 44118" d="M108.325,24.661c.114.173.619.039,1.213.076.595.015,1.087.191,1.214.028.057-.08-.01-.249-.218-.42a1.75,1.75,0,0,0-1.956-.084c-.221.153-.3.316-.253.4" transform="translate(-75.154 -13.392)" fill="#263238"/>
                    <path id="Path_44119" data-name="Path 44119" d="M106.773,11.126s1.205-2.951,2.609-3.65c1.7-.846,2.451,1.032,4.073.561S116.7,6.754,118.373,8c1.832,1.368.988,2.347,1.118,4.43.53,8.443,2.085,10.819,2.486,6.836.044-.436,1.244-.794,1.406-2.637a20.871,20.871,0,0,0-.269-6.981,6.685,6.685,0,0,0-2.74-3.48c-2.308-1.7-5.456-1.706-7.593-1.471s-6.237,2.746-6.009,6.426" transform="translate(-74.29 -2.562)" fill="#263238"/>
                    <path id="Path_44120" data-name="Path 44120" d="M139.03,35.952a1.27,1.27,0,0,1,1.358-1.24c.871.076,1.844.565,1.8,2.375a2.4,2.4,0,0,1-3.267,2.382c0-.063.064-2.173.107-3.516" transform="translate(-92.233 -19.364)" fill="#ae7461"/>
                    <path id="Path_44121" data-name="Path 44121" d="M140.555,39.591c.014-.01.055.041.148.086a.554.554,0,0,0,.416.018,1.385,1.385,0,0,0,.665-1.227,1.862,1.862,0,0,0-.137-.8.645.645,0,0,0-.408-.439.282.282,0,0,0-.332.146c-.045.088-.026.153-.043.158s-.067-.055-.038-.187a.355.355,0,0,1,.13-.2.418.418,0,0,1,.309-.075.782.782,0,0,1,.569.511,1.908,1.908,0,0,1,.172.9,1.452,1.452,0,0,1-.843,1.368.593.593,0,0,1-.507-.1c-.1-.082-.112-.154-.1-.16" transform="translate(-93.142 -20.68)" fill="#6f4439"/>
                    <path id="Path_44122" data-name="Path 44122" d="M124.247,11.551a3.022,3.022,0,0,1-1.346.64,1.042,1.042,0,0,1-1.162-.726c-.04-.223.012-.483-.135-.654-.176-.2-.5-.137-.764-.107a2.038,2.038,0,0,1-2.128-1.45.852.852,0,0,1-1.146.119,4.6,4.6,0,0,1-.878-.927,1.311,1.311,0,0,0-1.1-.542,3.145,3.145,0,0,1-.693.16c-.42-.034-.628-.526-.7-.943s-.121-.906-.478-1.13a1.662,1.662,0,0,0-1.141-.022c-.385.061-.885-.026-.987-.4a.765.765,0,0,1,.138-.584,2.06,2.06,0,0,1,2.433-.809,2.8,2.8,0,0,1,5.143-.591,2.836,2.836,0,0,1,4.554,1,2.106,2.106,0,0,1,2.16.716,2.135,2.135,0,0,1,.191,2.279A1.968,1.968,0,0,1,127.3,9.136a1.123,1.123,0,0,1-1.259,1.163,1.194,1.194,0,0,1-.437,1.512,1.179,1.179,0,0,1-1.527-.35" transform="translate(-76.976 -1.189)" fill="#263238"/>
                    <path id="Path_44123" data-name="Path 44123" d="M138.927,20.586a.772.772,0,0,1-.193.619,1.026,1.026,0,0,1-.637.389,1.1,1.1,0,0,1-.912-.258l.135-.022a3.2,3.2,0,0,1-.63.806,1.829,1.829,0,0,1-.578.369,1.24,1.24,0,0,1-.642.066,1.256,1.256,0,0,1-.926-.523,1.861,1.861,0,0,1-.264-.666.64.64,0,0,1-.027-.259c.014,0,.042.085.1.24a2.174,2.174,0,0,0,.3.608,1.3,1.3,0,0,0,1.919.028,3.215,3.215,0,0,0,.6-.756l.055-.1.08.073a.967.967,0,0,0,.772.24.937.937,0,0,0,.575-.311,1.56,1.56,0,0,0,.277-.549" transform="translate(-89.624 -11.486)" fill="#455a64"/>
                    <path id="Path_44124" data-name="Path 44124" d="M120.337,2.64c0,.011-.083.023-.225.085a1.1,1.1,0,0,0-.492.428l-.038.062-.045-.059a3.983,3.983,0,0,0-1.554-1.244,3.088,3.088,0,0,0-1.259-.266,2.58,2.58,0,0,0-1.348.4,2.634,2.634,0,0,0-.8.774,2.18,2.18,0,0,0-.343.971l-.009.1-.1-.026a1.783,1.783,0,0,0-1.325.174,1.749,1.749,0,0,0-.719.789,2.412,2.412,0,0,0-.191.953.649.649,0,0,1-.041-.262,1.8,1.8,0,0,1,.137-.733,1.82,1.82,0,0,1,.741-.87,1.908,1.908,0,0,1,1.44-.216l-.106.076a2.327,2.327,0,0,1,.36-1.057,2.781,2.781,0,0,1,.852-.832,2.72,2.72,0,0,1,1.444-.422,3.186,3.186,0,0,1,1.325.3,3.892,3.892,0,0,1,1.57,1.332l-.082,0a1.082,1.082,0,0,1,.557-.424.476.476,0,0,1,.244-.036" transform="translate(-77.13 -0.819)" fill="#455a64"/>
                    <path id="Path_44125" data-name="Path 44125" d="M56.6,267.387l3.747,8.353s-9.862,3.861-9.941,5.7l19.191-.347-.023-1.6-4.233-13.779Z" transform="translate(-42.844 -148.245)" fill="#455a64"/>
                    <path id="Path_44126" data-name="Path 44126" d="M84.439,284.972a.785.785,0,0,1,.558.885.754.754,0,0,1-.872.561.827.827,0,0,1-.586-.94.782.782,0,0,1,.972-.483" transform="translate(-61.319 -158.978)" fill="#e0e0e0"/>
                    <path id="Path_44127" data-name="Path 44127" d="M69.58,298.478l-.023-1.6-18.427.963s-.847.387-.74.988Z" transform="translate(-42.832 -165.635)" fill="#263238"/>
                    <path id="Path_44128" data-name="Path 44128" d="M72.179,288.078c0,.094.474.128.941.42s.719.683.8.644c.086-.02-.064-.578-.635-.923s-1.132-.228-1.11-.142" transform="translate(-54.994 -160.676)" fill="#263238"/>
                    <path id="Path_44129" data-name="Path 44129" d="M67.66,290.111c-.02.091.389.243.714.634s.425.808.518.8c.088.013.143-.537-.271-1.015s-.962-.511-.962-.421" transform="translate(-52.473 -161.839)" fill="#263238"/>
                    <path id="Path_44130" data-name="Path 44130" d="M64.191,293.632c.085.019.207-.452-.042-.961s-.692-.705-.73-.626.238.348.437.769.243.811.336.818" transform="translate(-50.103 -162.931)" fill="#263238"/>
                    <path id="Path_44131" data-name="Path 44131" d="M70.594,282.823c.041.085.469-.053,1-.026s.946.186.994.1-.356-.408-.981-.431-1.059.279-1.011.352" transform="translate(-54.108 -157.598)" fill="#263238"/>
                    <path id="Path_44132" data-name="Path 44132" d="M129.914,318.432l.427,15.929-8.376-.023-.449-15.543Z" transform="translate(-82.521 -177.663)" fill="#455a64"/>
                    <path id="Path_44133" data-name="Path 44133" d="M131.723,333.489c-.07,0-.176-3.4-.235-7.585s-.052-7.588.018-7.589.175,3.395.235,7.586.052,7.587-.018,7.588" transform="translate(-88.062 -177.597)" fill="#263238"/>
                    <path id="Path_44134" data-name="Path 44134" d="M122.205,339.9a1.124,1.124,0,0,1,.206-.344,5.84,5.84,0,0,1,.728-.815,5.685,5.685,0,0,1,1.331-.938,4.458,4.458,0,0,1,5.238.848,3.845,3.845,0,0,1,.633.9,1.076,1.076,0,0,1,.141.376,8.736,8.736,0,0,0-.9-1.146,4.461,4.461,0,0,0-3.167-1.217,5.126,5.126,0,0,0-3.156,1.315c-.687.587-1.018,1.053-1.053,1.025" transform="translate(-82.905 -188.195)" fill="#263238"/>
                    <path id="Path_44135" data-name="Path 44135" d="M130.808,352.075l-8.338-.038-.061-1.883,8.409.038Z" transform="translate(-83.019 -195.361)" fill="#263238"/>
                    <path id="Path_44136" data-name="Path 44136" d="M67.714,75.231c-5.483,7.3-16.7,10.051-21.345,9.492-4.229-2-12.253-10.305-13-19.406s5.487-16.9,13.113-15.3c7.146,1.5,7.737,7.521,7.737,7.521s3.477-4.849,10.555-2.241c7.311,2.694,8.426,12.633,2.942,19.934" transform="translate(-33.306 -27.79)" fill="#ffc727"/>
                    <g id="Group_47689" data-name="Group 47689" transform="translate(0.001 26.216)" opacity="0.1">
                      <g id="Group_47688" data-name="Group 47688">
                        <g id="Group_47687" data-name="Group 47687" clip-path="url(#clip-path-6)">
                          <path id="Path_44137" data-name="Path 44137" d="M70.38,75.432c-.013.042-.027.083-.041.124-.021.061-.042.123-.063.183a17.772,17.772,0,0,1-1.809,3.707c-.052.08-.1.159-.156.238l0,0c-.1.142-.192.284-.291.425s-.2.278-.3.416c-5.483,7.3-16.7,10.052-21.344,9.492-4.229-2-12.254-10.306-13-19.406-.015-.172-.026-.343-.035-.513s-.016-.344-.02-.515a.014.014,0,0,0,0,0,17.8,17.8,0,0,1,.485-4.575c.011-.043.021-.086.032-.128.013-.057.029-.114.043-.171A15.013,15.013,0,0,1,36.5,59.3a15.814,15.814,0,0,0-2.279,9.739c.729,8.477,8.3,16.231,12.275,18.107,4.369.534,14.9-2,20.037-8.78,4.037-5.335,4.335-12.508.853-16.316,3.636,2.882,4.67,8.227,2.992,13.379" transform="translate(-33.309 -59.303)"/>
                        </g>
                      </g>
                    </g>
                    <g id="Group_47692" data-name="Group 47692" transform="translate(3.111 22.676)" opacity="0.6">
                      <g id="Group_47691" data-name="Group 47691">
                        <g id="Group_47690" data-name="Group 47690" clip-path="url(#clip-path-7)">
                          <path id="Path_44138" data-name="Path 44138" d="M40.343,56.63a7.419,7.419,0,0,1,2.365-3.113,9.09,9.09,0,0,1,9.873-1.309,9.531,9.531,0,0,1,.847.494c.134.093.269.183.4.279-.63-.171-1.235-.358-1.855-.469a11.277,11.277,0,0,0-5.441.18,13.379,13.379,0,0,0-6.189,3.938" transform="translate(-40.343 -51.296)" fill="#fff"/>
                          <path id="Path_44139" data-name="Path 44139" d="M82.1,64.74a7.582,7.582,0,0,1,2.389-1.69,9.237,9.237,0,0,1,7.225-.336,6.755,6.755,0,0,1,1.3.678,21.68,21.68,0,0,0-4.525-.206A22.438,22.438,0,0,0,82.1,64.74" transform="translate(-63.638 -57.341)" fill="#fff"/>
                        </g>
                      </g>
                    </g>
                    <g id="Group_47695" data-name="Group 47695" transform="translate(1.563 26.332)" opacity="0.1">
                      <g id="Group_47694" data-name="Group 47694">
                        <g id="Group_47693" data-name="Group 47693" clip-path="url(#clip-path-8)">
                          <path id="Path_44140" data-name="Path 44140" d="M113.35,89.1a.362.362,0,1,1-.278-.43.362.362,0,0,1,.278.43" transform="translate(-79.129 -75.799)"/>
                          <path id="Path_44141" data-name="Path 44141" d="M37.558,83.119a.362.362,0,1,1-.278-.43.362.362,0,0,1,.278.43" transform="translate(-36.843 -72.463)"/>
                          <path id="Path_44142" data-name="Path 44142" d="M53.06,117.346a.362.362,0,1,1-.278-.43.362.362,0,0,1,.278.43" transform="translate(-45.492 -91.559)"/>
                          <path id="Path_44143" data-name="Path 44143" d="M39.807,82.221a.295.295,0,1,1-.226-.35.295.295,0,0,1,.226.35" transform="translate(-38.171 -72.007)"/>
                          <path id="Path_44144" data-name="Path 44144" d="M112.147,91.255a.169.169,0,1,1-.13-.2.169.169,0,0,1,.13.2" transform="translate(-78.671 -77.132)"/>
                          <path id="Path_44145" data-name="Path 44145" d="M72.876,59.77a.169.169,0,1,1-.13-.2.169.169,0,0,1,.13.2" transform="translate(-56.761 -59.566)"/>
                          <path id="Path_44146" data-name="Path 44146" d="M97,110.347a.169.169,0,1,1-.13-.2.169.169,0,0,1,.13.2" transform="translate(-70.218 -87.784)"/>
                          <path id="Path_44147" data-name="Path 44147" d="M37.751,81.222a.169.169,0,1,1-.13-.2.169.169,0,0,1,.13.2" transform="translate(-37.163 -71.534)"/>
                        </g>
                      </g>
                    </g>
                    <path id="Path_44148" data-name="Path 44148" d="M87.277,162.2l-18.321-3.164-.072,1.967c-4.423,3.545-16.21,13.677-23.329,20.617,0,0-2.642,3.5-1.594,6.727l9.874,25.325,11.333-2.613-6.915-21.42,21.269-9.932c4.136-1.53,7.86-6.75,8.741-9.741.753-2.559-.873-4.489-.985-7.766" transform="translate(-39.114 -88.733)" fill="#253f93"/>
                    <path id="Path_44149" data-name="Path 44149" d="M109.263,202.047l4.4,53.85,10.827.275s1.177-12.417.947-23.452.4-38.293.4-38.293Z" transform="translate(-75.685 -108.477)" fill="#253e8e"/>
                    <path id="Path_44150" data-name="Path 44150" d="M124.361,166.2l5.725,1.035s0,12.158-.956,14.937c-.477,1.388-3.06,5.952-3.06,5.952l-15.887,3.036V178.6Z" transform="translate(-76.198 -92.726)" fill="#253e8e"/>
                    <path id="Path_44151" data-name="Path 44151" d="M104.156,191.984a1.751,1.751,0,0,1-.137.3,8.161,8.161,0,0,1-.456.829,11.682,11.682,0,0,1-2.219,2.676,20,20,0,0,1-4.28,2.876c-1.721.9-3.687,1.732-5.712,2.676L80.941,206.11l-3.166,1.421-.866.376a1.77,1.77,0,0,1-.309.117,1.709,1.709,0,0,1,.289-.159l.847-.415,3.135-1.488,10.384-4.832c2.027-.944,3.994-1.766,5.709-2.654a20.444,20.444,0,0,0,4.269-2.808,12.289,12.289,0,0,0,2.252-2.6c.444-.684.646-1.092.67-1.08" transform="translate(-57.461 -107.113)" fill="#455a64"/>
                    <path id="Path_44152" data-name="Path 44152" d="M59.922,225.691a4.722,4.722,0,0,1,1.2-.232,13.189,13.189,0,0,1,2.953,0,12.18,12.18,0,0,1,2.877.673,4.631,4.631,0,0,1,1.105.525,10.178,10.178,0,0,1-1.159-.369,15.32,15.32,0,0,0-2.85-.6,16.948,16.948,0,0,0-2.914-.064,9.758,9.758,0,0,1-1.215.068" transform="translate(-48.156 -125.743)" fill="#455a64"/>
                    <path id="Path_44153" data-name="Path 44153" d="M164.993,109.873a16.265,16.265,0,0,0-2.42-4.938,21.351,21.351,0,0,1-5.128,2.3l.527,9.293c2.068.063,4.366-.049,5.842-1.5a5.516,5.516,0,0,0,1.179-5.155" transform="translate(-102.567 -58.547)" fill="#ae7461"/>
                    <path id="Path_44154" data-name="Path 44154" d="M153.928,79.084,149.41,89.333a16.769,16.769,0,0,1,3.831,5.776,26.85,26.85,0,0,0,7.29-5.254c-2.217-3.082-4.785-9.329-6.6-10.771" transform="translate(-98.084 -44.124)" fill="#c43a44"/>
                    <path id="Path_44155" data-name="Path 44155" d="M99.646,68.372l-4.273,34.142c-.208,1.66-1.651,6.574-.028,6.984,6.265,4.731,15.439,6.685,26.038,7.28,1.309.227,1.025-7.592,1.041-8.921.055-4.7.248-14.875.916-21.214.736-6.988,2.607-12.694,0-16.026a24.88,24.88,0,0,0-7.157-5.657L114.5,63.908s-1.1,1.629-10.161,1.77l-.807.391Z" transform="translate(-67.495 -35.657)" fill="#d44751"/>
                    <path id="Path_44156" data-name="Path 44156" d="M159.377,91.782a.79.79,0,0,1,0,.22c-.009.171-.02.378-.033.628-.041.581-.1,1.36-.164,2.307-.149,1.947-.37,4.636-.629,7.6s-.506,5.655-.7,7.6c-.1.944-.178,1.721-.237,2.3l-.076.624a.782.782,0,0,1-.042.216.815.815,0,0,1,0-.221c.009-.171.019-.378.033-.628.041-.581.1-1.36.164-2.307.149-1.947.37-4.635.628-7.6s.506-5.652.7-7.6c.1-.944.178-1.721.237-2.3l.076-.624a.788.788,0,0,1,.042-.217" transform="translate(-102.595 -51.208)" fill="#263238"/>
                    <path id="Path_44157" data-name="Path 44157" d="M87.854,91.988l13.6,3.929s2.073-7.672,3.07-12.2c1.09-4.951.215-7.523-3.084-9.821a5.6,5.6,0,0,0-2.508-.968,5.971,5.971,0,0,0-6.155,3.587,53.115,53.115,0,0,0-2.2,6.247c-1.3,4.392-2.725,9.221-2.725,9.221" transform="translate(-63.74 -40.665)" fill="#d1424c"/>
                    <path id="Path_44158" data-name="Path 44158" d="M104.345,88.307a1.2,1.2,0,0,1-.035.233c-.034.169-.078.392-.134.672-.125.586-.314,1.441-.57,2.519-.51,2.156-1.274,5.207-2.229,8.8l-.028.1-.1-.03-8.562-2.463-5.039-1.459-.11-.032.033-.108c1.341-4.478,2.471-8.376,3.358-11.132.453-1.375.863-2.456,1.166-3.189.152-.366.276-.646.363-.834a1.857,1.857,0,0,1,.143-.281,1.878,1.878,0,0,1-.107.3l-.328.847c-.28.74-.668,1.826-1.1,3.2-.847,2.761-1.95,6.672-3.279,11.152l-.077-.14,5.041,1.453L101.3,100.4l-.131.074c.973-3.585,1.765-6.628,2.31-8.774l.627-2.5.167-.664a1.206,1.206,0,0,1,.069-.226" transform="translate(-63.562 -45.252)" fill="#263238"/>
                    <path id="Path_44159" data-name="Path 44159" d="M113.888,76.5c-.033.023-.3-.384-.859-.927a7.132,7.132,0,0,0-5.5-2.036c-.775.05-1.245.183-1.255.144a.922.922,0,0,1,.321-.127,5.525,5.525,0,0,1,.92-.18,6.663,6.663,0,0,1,5.629,2.085,5.513,5.513,0,0,1,.581.736c.12.187.173.3.161.305" transform="translate(-74.018 -40.912)" fill="#263238"/>
                    <path id="Path_44160" data-name="Path 44160" d="M70.1,112.872l-.687,2.283-13.01-5.629L53.6,113.845s10.512,7.37,14.012,9.334c3.812,2.14,6.684,1.94,8.337-1.207a36.609,36.609,0,0,0,2.665-6.607Z" transform="translate(-44.627 -61.108)" fill="#ae7461"/>
                    <path id="Path_44161" data-name="Path 44161" d="M90.751,125.116c-.068.013-.223-.685-.611-1.462s-.839-1.328-.787-1.374a3.94,3.94,0,0,1,1.4,2.836" transform="translate(-64.574 -68.223)" fill="#6f4439"/>
                    <path id="Path_44162" data-name="Path 44162" d="M48.649,100.913,46.93,99.726c-.915-2.716-2.614-7.642-3.116-7.494-.553.163-.783.648-.624,1.695.38,2.507-.243,3.612-1.707,3.281-.5-.114-4.884-.814-4.884-.814s-1.209.692.006,1.876a1.379,1.379,0,0,0,1.022,1.918s.2,1.75,1.412,1.822a31.621,31.621,0,0,0,4.014,1.728l2.183,1.309Z" transform="translate(-34.844 -51.457)" fill="#ae7461"/>
                    <path id="Path_44163" data-name="Path 44163" d="M40.575,106.808a5.478,5.478,0,0,1-1.865-.452c-.359-.118-.693-.229-.968-.3l.034-.193.167.035-.037.177a1.979,1.979,0,0,1-.673-.263,2.027,2.027,0,0,1,.718.088l-.037.177-.169-.02.034-.193a6.959,6.959,0,0,1,1,.268,14.842,14.842,0,0,1,1.792.673" transform="translate(-35.497 -59.03)" fill="#6f4439"/>
                    <path id="Path_44164" data-name="Path 44164" d="M42.208,111.225a3.475,3.475,0,0,1-1.38-.363,3.467,3.467,0,0,1-1.258-.674,6.162,6.162,0,0,1,1.343.458,6.142,6.142,0,0,1,1.295.579" transform="translate(-36.8 -61.473)" fill="#6f4439"/>
                  </g>
                </g>
              </g>
            </g>
          </g>
        </g>
        <g id="Group_46446" data-name="Group 46446" transform="translate(0.007)">
          <g id="Group_46445" data-name="Group 46445" clip-path="url(#clip-path)">
            <rect id="Rectangle_27352" data-name="Rectangle 27352" width="8.171" height="8.171" transform="translate(236.098 9.338)" fill="#f2f2f2"/>
            <rect id="Rectangle_27353" data-name="Rectangle 27353" width="8.172" height="8.171" transform="translate(234.347 11.382)" fill="#506cca"/>
            <path id="Path_42168" data-name="Path 42168" d="M481.408,30.4h13.424V43.822H481.408Zm12.841.584H481.991V43.238h12.257Z" transform="translate(-254.94 -16.097)" fill="#96c0f4"/>
            <rect id="Rectangle_27354" data-name="Rectangle 27354" width="8.171" height="8.171" transform="translate(76.464 76.753)" fill="#f2f2f2"/>
            <g id="Group_46454" data-name="Group 46454" transform="translate(122.827 21.946)">
              <g id="Group_46299" data-name="Group 46299" transform="translate(0 0)" clip-path="url(#clip-path-10)">
                <path id="Path_42004" data-name="Path 42004" d="M23.523,3.952c-.35,0-.494.133-.494.462v.133c0,.339.1.442.545.545l2.434.534c1.437.308,1.92.8,1.92,1.951v.514c0,1.109-.739,1.715-2.115,1.715H21.17l.134-.955A.423.423,0,0,1,21.8,8.44h3.924c.359,0,.523-.134.523-.472V7.68c0-.349-.113-.462-.576-.565L23.316,6.6c-1.448-.318-1.971-.853-1.971-2V4.311c0-1.12.739-1.725,2.115-1.725h4.2l-.144.955a.424.424,0,0,1-.493.411Z" transform="translate(-9.687 -1.183)" fill="#006ceb"/>
                <path id="Path_42005" data-name="Path 42005" d="M35.049,9.413c0-1.027.585-1.54,1.735-1.54H38.8v-.3c.01-.38-.164-.523-.534-.523h-2.31a.411.411,0,0,1-.472-.411l-.133-.894H38.13c1.777,0,2.29.719,2.29,1.962v3.543h-.935c-.257,0-.349-.061-.421-.267l-.1-.329H38.92a1.554,1.554,0,0,1-1.448.688h-.688c-1.078,0-1.735-.452-1.735-1.52Zm2.68.668c.739,0,1.068-.246,1.068-.77V8.992H37.1c-.308,0-.431.1-.431.391v.3c0,.287.123.4.431.4Z" transform="translate(-16.037 -2.63)" fill="#006ceb"/>
                <path id="Path_42006" data-name="Path 42006" d="M48.9,2.055v2.5h.041a1.433,1.433,0,0,1,1.314-.585h.708a1.928,1.928,0,0,1,2.126,2.116V7.539a1.929,1.929,0,0,1-2.126,2.116h-.729a1.561,1.561,0,0,1-1.458-.688h-.041l-.1.329c-.072.206-.164.267-.421.267h-.935V2.055Zm0,5.4c0,.647.3.883.945.883h.667c.647,0,.955-.236.955-.883V6.163c0-.647-.308-.884-.955-.884h-.667c-.647,0-.945.237-.945.884Z" transform="translate(-21.633 -0.94)" fill="#006ceb"/>
                <path id="Path_42007" data-name="Path 42007" d="M64.028,2.586c1.715,0,2.578.76,2.578,2.249v.411c.021,1.479-.863,2.249-2.578,2.249H61.686V9.806H60V2.586ZM61.686,3.952V6.129h2.29c.678,0,.945-.257.945-.853V4.8c0-.606-.277-.852-.945-.852Z" transform="translate(-27.455 -1.183)" fill="#fd8600"/>
                <path id="Path_42008" data-name="Path 42008" d="M73.5,9.413c0-1.027.585-1.54,1.735-1.54h2.013v-.3c.01-.38-.164-.523-.534-.523H74.4a.411.411,0,0,1-.472-.411L73.8,5.747h2.783c1.777,0,2.29.719,2.29,1.962v3.543h-.934c-.257,0-.349-.061-.421-.267l-.1-.329h-.041a1.554,1.554,0,0,1-1.448.688h-.688c-1.078,0-1.735-.452-1.735-1.52Zm2.68.668c.739,0,1.068-.246,1.068-.77V8.992H75.555c-.308,0-.431.1-.431.391v.3c0,.287.123.4.431.4Z" transform="translate(-33.631 -2.63)" fill="#fd8600"/>
                <path id="Path_42009" data-name="Path 42009" d="M85.731,1.885h1.684V3.23H85.731Zm.031,2.1h1.622v5.5H85.762Z" transform="translate(-39.227 -0.862)" fill="#fd8600"/>
                <path id="Path_42010" data-name="Path 42010" d="M93.773,9.948A.206.206,0,0,0,94,9.722V9.64c0-.154-.062-.216-.226-.267L91.915,8.88A1.491,1.491,0,0,1,90.641,7.34V7.114a1.391,1.391,0,0,1,1.53-1.366h3.245l-.123.893a.42.42,0,0,1-.483.411H92.469a.2.2,0,0,0-.216.216V7.34c0,.144.062.206.216.246l1.879.5a1.456,1.456,0,0,1,1.274,1.52v.318a1.354,1.354,0,0,1-1.52,1.325H90.559l.123-.893a.42.42,0,0,1,.483-.411Z" transform="translate(-41.437 -2.63)" fill="#fd8600"/>
                <path id="Path_42011" data-name="Path 42011" d="M101.237,9.413c0-1.027.585-1.54,1.735-1.54h2.013v-.3c.01-.38-.164-.523-.534-.523h-2.31a.411.411,0,0,1-.472-.411l-.133-.894h2.783c1.777,0,2.29.719,2.29,1.962v3.543h-.935c-.257,0-.349-.061-.421-.267l-.1-.329h-.041a1.554,1.554,0,0,1-1.448.688h-.688c-1.078,0-1.735-.452-1.735-1.52Zm2.68.668c.739,0,1.068-.246,1.068-.77V8.992h-1.695c-.308,0-.431.1-.431.391v.3c0,.287.123.4.431.4Z" transform="translate(-46.322 -2.63)" fill="#fd8600"/>
                <path id="Path_42012" data-name="Path 42012" d="M10.675,4.379v0c0,.021-.008.041-.012.059s-.01.039-.015.057l-.01.031-.016.046-.01.027c-.014.032-.022.05-.022.05a3.092,3.092,0,0,1-.68.911l-.053.052c-.094.093-.183.176-.257.242l-.033.029-.036.031-.016.015L9.5,5.948l-.011.01-.014.011-.015.013L9.436,6,9.4,6.027l0,0,0,0,0,0L8.356,4.974V5.987H6.127L8.259,3.852l.126-.125a1.675,1.675,0,0,1,1.127-.433,1.62,1.62,0,0,1,.179.01,1.672,1.672,0,0,1,.885.369h0v0a.042.042,0,0,1,.006.011,1.08,1.08,0,0,1,.047.112l.009.024.016.052a1.133,1.133,0,0,1,.019.507" transform="translate(-2.803 -1.507)" fill="#002e89"/>
                <path id="Path_42013" data-name="Path 42013" d="M2.755,9.447l-.024.024-.2.2.224-.22" transform="translate(-1.158 -4.323)" fill="#29bbfd"/>
                <path id="Path_42014" data-name="Path 42014" d="M3.065,9.711a5.016,5.016,0,0,0-.831.765,4.038,4.038,0,0,1,.831-.765" transform="translate(-1.022 -4.443)" fill="#0b89fd"/>
                <path id="Path_42015" data-name="Path 42015" d="M13.382,5.635a7.565,7.565,0,0,1-.949,1l-.007.005-.278-.289,0,0,0,0,0,0,.032-.027.021-.017a.145.145,0,0,0,.014-.012l.014-.012.012-.01.018-.017.016-.014.036-.031.033-.029c.074-.067.163-.149.257-.242l.052-.053a3.262,3.262,0,0,0,.68-.911s.009-.018.022-.05l.01-.027c0-.014.01-.029.015-.046s.007-.02.01-.031.01-.036.015-.056.009-.039.013-.059v0a1.121,1.121,0,0,0-.02-.507.5.5,0,0,0-.016-.051l-.008-.024a.976.976,0,0,0-.056-.125h0a1.511,1.511,0,0,1,.176.167,1.163,1.163,0,0,1,.153.579,1.293,1.293,0,0,1-.28.9" transform="translate(-5.559 -1.827)" fill="#1c0353"/>
                <path id="Path_42016" data-name="Path 42016" d="M5.962,9.679,3.776,11.872l-.083.084a1.685,1.685,0,0,1-2.159.12h0a1.119,1.119,0,0,1,0-1.172s.018-.035.056-.1a.112.112,0,0,1,.009-.015l.018-.029c.005-.009.011-.018.017-.027s.011-.017.016-.025l.016-.023c.033-.047.071-.1.116-.157l.023-.029.031-.039A4.994,4.994,0,0,1,2.671,9.7L2.7,9.679,3.725,10.7V9.679Z" transform="translate(-0.628 -4.429)" fill="#002e89"/>
                <path id="Path_42017" data-name="Path 42017" d="M5.076,1.306a.2.2,0,0,1,0,.287L2.093,4.622l-.308.312-.009.009-.008.008L1.718,5l-.02.02-.011.011-.037.038-.03.03L1.6,5.124l-.022.022c-.059.057-.148.143-.23.223l-.182.178c-.027.026-.053.052-.077.078a1.52,1.52,0,0,0-.33,1.886l0,.007.011.016A1.755,1.755,0,0,1,.642,7.4v0A2.731,2.731,0,0,1,.38,6.994l0,0A3.9,3.9,0,0,1,.049,4.683a4.365,4.365,0,0,1,1.344-2.5c.052-.049.1-.1.153-.149L3.53.059a.2.2,0,0,1,.286,0Z" transform="translate(0 0)" fill="#006ceb"/>
                <path id="Path_42018" data-name="Path 42018" d="M2.544,9.412,2.52,9.43a5.016,5.016,0,0,0-.831.765l-.031.039-.023.029c-.041.051-.08.1-.116.157l-.016.023-.016.025-.017.027-.018.029-.009.015c-.039.061-.056.1-.056.1a1.12,1.12,0,0,0,0,1.172,1.571,1.571,0,0,1-.135-.112l-.011-.016,0-.007a1.52,1.52,0,0,1,.33-1.886c.024-.026.05-.052.077-.078l.182-.179.23-.223.022-.022L2.1,9.263l.03-.03L2.164,9.2l.011-.011.02-.02.05-.052.008-.008L2.261,9.1Z" transform="translate(-0.477 -4.162)" fill="#1c0353"/>
                <path id="Path_42019" data-name="Path 42019" d="M10.655,9.041s-.693.753-1.052,1.07L8.056,11.647a.2.2,0,0,1-.285,0l-1.28-1.26a.2.2,0,0,1,0-.289l2.8-2.8.183-.182q.168-.165.339-.329l.006,0a7.571,7.571,0,0,0,.949-1,1.292,1.292,0,0,0,.28-.894,1.164,1.164,0,0,0-.153-.579c.028.029.053.059.078.091s.047.062.068.093l.005.008c.02.03.04.062.06.095a3.179,3.179,0,0,1,.492,1.6,4.478,4.478,0,0,1-.942,2.851" transform="translate(-2.942 -1.969)" fill="#006ceb"/>
              </g>
            </g>
            <g id="Group_47703" data-name="Group 47703" transform="translate(111.678 39.82)">
              <g id="Group_46444" data-name="Group 46444" transform="translate(0 0)" style="mix-blend-mode: normal;isolation: isolate">
                <g id="Group_46443" data-name="Group 46443">
                  <g id="Group_47704" data-name="Group 47704">
                    <path id="Path_42184" data-name="Path 42184" d="M166.582,144.288h79.761a1.412,1.412,0,0,1,1.412,1.412v16.234a1.412,1.412,0,0,1-1.412,1.412H166.582a1.412,1.412,0,0,1-1.412-1.412V145.7a1.412,1.412,0,0,1,1.412-1.412" transform="translate(-165.17 -144.288)" fill="#006ceb"/>
                  </g>
                </g>
              </g>
              <path id="Path_42185" data-name="Path 42185" d="M209.366,155.648h.834l.5,1.732q.051.178.135.58h.021q.076-.428.119-.58l.508-1.732h.8v2.905h-.542v-1.876q0-.106.021-.492h-.025q-.034.144-.085.322l-.6,2.045h-.5l-.593-2.045q-.03-.1-.059-.221l-.025-.1h-.021c.011.254.017.418.017.492v1.876h-.517Zm3.816,3.676a1.042,1.042,0,0,1-.267-.025l-.093-.021v-.351h.229a.424.424,0,0,0,.275-.089.547.547,0,0,0,.178-.284l-.868-2.228h.533l.419,1.072q.073.191.187.618h.021q.106-.406.174-.618l.339-1.072h.512l-.741,2.114a2.048,2.048,0,0,1-.351.656.688.688,0,0,1-.547.229m4.267-.72a1.822,1.822,0,0,1-.61-.1.983.983,0,0,1-.44-.3.768.768,0,0,1-.165-.5l0-.089h.546a.506.506,0,0,0,0,.076.373.373,0,0,0,.183.33.9.9,0,0,0,.5.119,1.013,1.013,0,0,0,.5-.1.3.3,0,0,0,.165-.271.291.291,0,0,0-.1-.224.7.7,0,0,0-.241-.14q-.144-.055-.406-.127a5.539,5.539,0,0,1-.564-.178,1.01,1.01,0,0,1-.364-.258.724.724,0,0,1,.169-1.046,1.535,1.535,0,0,1,.843-.207,1.425,1.425,0,0,1,.813.212.7.7,0,0,1,.318.631v.051h-.534v-.047a.317.317,0,0,0-.165-.284.785.785,0,0,0-.436-.106,1,1,0,0,0-.453.085.26.26,0,0,0-.161.237.249.249,0,0,0,.093.2.8.8,0,0,0,.233.127q.144.047.385.11a4.981,4.981,0,0,1,.572.182,1,1,0,0,1,.381.263.632.632,0,0,1,.161.449.766.766,0,0,1-.331.686,1.624,1.624,0,0,1-.9.216m1.719-3.113h.508v1.089h.03a.767.767,0,0,1,.279-.221.862.862,0,0,1,.39-.085.725.725,0,0,1,.529.186.786.786,0,0,1,.191.589v1.5h-.508v-1.415a.363.363,0,0,0-.411-.423.47.47,0,0,0-.356.152.544.544,0,0,0-.144.389v1.3h-.508Zm3.463,3.113a1.1,1.1,0,0,1-.826-.284,1.567,1.567,0,0,1,0-1.762,1.1,1.1,0,0,1,.826-.284,1.086,1.086,0,0,1,.822.284,1.547,1.547,0,0,1,0,1.762,1.087,1.087,0,0,1-.822.284m0-.415a.52.52,0,0,0,.437-.174.9.9,0,0,0,.135-.546v-.059a.879.879,0,0,0-.135-.542.629.629,0,0,0-.877,0,.9.9,0,0,0-.131.542v.059a.922.922,0,0,0,.131.546.523.523,0,0,0,.44.174m1.549-1.864h.42l.042.3h.025a.727.727,0,0,1,.288-.259.868.868,0,0,1,.394-.089.8.8,0,0,1,.657.288,1.759,1.759,0,0,1,0,1.749.757.757,0,0,1-.623.292.741.741,0,0,1-.669-.309h-.025v.991h-.509Zm1.017,1.843a.455.455,0,0,0,.4-.166.945.945,0,0,0,.119-.533v-.055a.932.932,0,0,0-.119-.533.451.451,0,0,0-.4-.169.435.435,0,0,0-.385.178.925.925,0,0,0-.123.525v.051a.925.925,0,0,0,.123.525.435.435,0,0,0,.385.178" transform="translate(-188.575 -150.221)" fill="#fff"/>
              <path id="Path_42187" data-name="Path 42187" d="M171.083,148.789h12a1.412,1.412,0,0,1,1.412,1.412v12a1.412,1.412,0,0,1-1.412,1.411h-12a1.412,1.412,0,0,1-1.412-1.411v-12a1.412,1.412,0,0,1,1.412-1.412" transform="translate(-167.553 -146.672)" fill="#fff"/>
              <path id="Path_42210" data-name="Path 42210" d="M1.451-3.5a.871.871,0,0,0,.939-.841c0-.4-.286-.645-.763-.771l-.367-.1C.884-5.305.851-5.5.851-5.6a.506.506,0,0,1,.543-.465.49.49,0,0,1,.535.474H2.3a.822.822,0,0,0-.89-.816A.864.864,0,0,0,.479-5.6c0,.229.094.58.69.723l.363.09c.237.061.486.184.486.457a.513.513,0,0,1-.567.486.581.581,0,0,1-.625-.5H.459A.922.922,0,0,0,1.451-3.5ZM4.386-5.154A.766.766,0,0,0,3.7-5.5a.961.961,0,0,0-.951,1,.965.965,0,0,0,.935,1,.793.793,0,0,0,.7-.388v.339h.355V-5.452H4.386ZM3.741-3.832A.652.652,0,0,1,3.112-4.5a.65.65,0,0,1,.625-.665.667.667,0,0,1,.649.665A.657.657,0,0,1,3.741-3.832ZM6.4-5.5a.766.766,0,0,0-.682.347V-6.489H5.361v2.943h.355v-.3a.792.792,0,0,0,.678.347.956.956,0,0,0,.955-1A.947.947,0,0,0,6.4-5.5Zm-.037,1.67a.648.648,0,0,1-.645-.674.652.652,0,0,1,.645-.661.632.632,0,0,1,.629.661A.645.645,0,0,1,6.361-3.832ZM8.876-5.5a.792.792,0,0,0-.678.347v-.3H7.843v2.833H8.2V-3.844A.766.766,0,0,0,8.88-3.5a.947.947,0,0,0,.951-1A.956.956,0,0,0,8.876-5.5Zm-.033,1.67A.652.652,0,0,1,8.2-4.493a.648.648,0,0,1,.645-.674.645.645,0,0,1,.629.674A.632.632,0,0,1,8.843-3.832Zm2.984-1.323a.766.766,0,0,0-.682-.347.961.961,0,0,0-.951,1,.965.965,0,0,0,.935,1,.793.793,0,0,0,.7-.388v.339h.355V-5.452h-.355Zm-.645,1.323a.652.652,0,0,1-.629-.669.65.65,0,0,1,.625-.665.667.667,0,0,1,.649.665A.657.657,0,0,1,11.182-3.832Zm1.8-2.086a.243.243,0,0,0,.253-.237.243.243,0,0,0-.253-.237.242.242,0,0,0-.249.237A.242.242,0,0,0,12.978-5.918Zm.18,2.372V-5.452H12.8v1.906Zm1.176.049c.4,0,.739-.225.739-.58,0-.216-.1-.453-.5-.551L14.293-4.7c-.122-.029-.245-.1-.245-.229a.279.279,0,0,1,.306-.265.286.286,0,0,1,.306.245H15a.586.586,0,0,0-.657-.555.6.6,0,0,0-.653.563c0,.306.184.461.5.547l.261.061c.151.033.261.106.261.249s-.143.273-.384.273-.376-.135-.38-.3h-.331A.667.667,0,0,0,14.334-3.5Zm2.719-1.657A.766.766,0,0,0,16.37-5.5a.961.961,0,0,0-.951,1,.965.965,0,0,0,.935,1,.793.793,0,0,0,.7-.388v.339h.355V-5.452h-.355Zm-.645,1.323a.652.652,0,0,1-.629-.669.65.65,0,0,1,.625-.665.667.667,0,0,1,.649.665A.657.657,0,0,1,16.407-3.832Z" transform="translate(20.257 16.473)" fill="#fff"/>
              <g id="Group_47702" data-name="Group 47702" transform="translate(5.002 4.655)">
                <g id="Group_47702-2" data-name="Group 47702" clip-path="url(#clip-path-11)">
                  <path id="Path_44165" data-name="Path 44165" d="M96.359.764c.007-.008.018-.02.027-.034a1.716,1.716,0,0,1,.575-.547A1.359,1.359,0,0,1,97.693,0a1.514,1.514,0,0,1,1.416.989,1.756,1.756,0,0,1,.1,1.087,2.128,2.128,0,0,1-.353.768,4.719,4.719,0,0,1-.789.854c-.5.438-1.009.871-1.514,1.306a.275.275,0,0,1-.392,0c-.477-.408-.956-.813-1.428-1.226a5.643,5.643,0,0,1-.8-.823,2.349,2.349,0,0,1-.395-.738,1.819,1.819,0,0,1-.033-.934,1.691,1.691,0,0,1,.362-.74,1.5,1.5,0,0,1,.779-.491A1.512,1.512,0,0,1,95.377.04a1.368,1.368,0,0,1,.664.365c.111.11.209.235.318.359" transform="translate(-91.705 0)" fill="#f80"/>
                  <path id="Path_44166" data-name="Path 44166" d="M115.01,281.122q0-.787,0-1.574a.086.086,0,0,1,.046-.082,1.847,1.847,0,0,1,1.092-.3,1.819,1.819,0,0,1,1.072.392,2.031,2.031,0,0,0,.243.165.65.65,0,0,0,.326.072c.3,0,.609,0,.914,0a.52.52,0,0,1,.484.28.527.527,0,0,1-.388.773.911.911,0,0,1-.126.008H117.13a.265.265,0,0,0-.051.528c.022,0,.044,0,.066,0h1.977a.839.839,0,0,0,.67-.306c.389-.454.782-.9,1.173-1.357a.529.529,0,0,1,.89.119.579.579,0,0,1,.037.343.946.946,0,0,1-.2.422c-.4.537-.807,1.076-1.211,1.613a1.864,1.864,0,0,1-.858.641,1.807,1.807,0,0,1-.628.114c-.815,0-1.631,0-2.446,0a5.734,5.734,0,0,1-.747-.056c-.256-.036-.508-.1-.761-.153-.012,0-.024-.022-.03-.037a.115.115,0,0,1,0-.042v-1.56" transform="translate(-112.852 -273.927)" fill="#f80"/>
                  <path id="Path_44167" data-name="Path 44167" d="M0,286.381q0-.787,0-1.574a.263.263,0,0,1,.2-.274.3.3,0,0,1,.079-.009c.178,0,.356,0,.534,0a.791.791,0,0,1,.668.343.78.78,0,0,1,.143.462c0,.7,0,1.4,0,2.1a.78.78,0,0,1-.345.661.787.787,0,0,1-.462.142c-.164,0-.328-.007-.492,0A.293.293,0,0,1,0,287.913c.008-.51,0-1.021,0-1.531" transform="translate(0 -279.189)" fill="#f80"/>
                </g>
              </g>
            </g>
            <g id="Group_47705" data-name="Group 47705" transform="translate(111.638 70.728)">
              <g id="Path_44588" data-name="Path 44588" fill="#fff">
                <path d="M 80.08058929443359 16.1168384552002 L 2.338121175765991 16.1168384552002 C 1.186721086502075 16.1168384552002 0.2499988377094269 15.18011665344238 0.2499988377094269 14.02871608734131 L 0.2499988377094269 2.338116407394409 C 0.2499988377094269 1.186727523803711 1.186721086502075 0.2500052452087402 2.338121175765991 0.2500052452087402 L 80.08058929443359 0.2500052452087402 C 81.23198699951172 0.2500052452087402 82.16870880126953 1.186727523803711 82.16870880126953 2.338116407394409 L 82.16870880126953 14.02871608734131 C 82.16870880126953 15.18011665344238 81.23198699951172 16.1168384552002 80.08058929443359 16.1168384552002 Z" stroke="none"/>
                <path d="M 2.338119506835938 0.4999942779541016 C 1.324577331542969 0.4999942779541016 0.5 1.32457160949707 0.5 2.338116645812988 L 0.5 14.02871608734131 C 0.5 15.04224967956543 1.324577331542969 15.8668270111084 2.338119506835938 15.8668270111084 L 80.08057403564453 15.8668270111084 C 81.09413146972656 15.8668270111084 81.91870880126953 15.04224967956543 81.91870880126953 14.02871608734131 L 81.91870880126953 2.338116645812988 C 81.91870880126953 1.32457160949707 81.09413146972656 0.4999942779541016 80.08057403564453 0.4999942779541016 L 2.338119506835938 0.4999942779541016 M 2.338119506835938 -5.7220458984375e-06 L 80.08057403564453 -5.7220458984375e-06 C 81.37190246582031 -5.7220458984375e-06 82.41870880126953 1.046805381774902 82.41870880126953 2.338116645812988 L 82.41870880126953 14.02871608734131 C 82.41870880126953 15.32001686096191 81.37190246582031 16.3668270111084 80.08057403564453 16.3668270111084 L 2.338119506835938 16.3668270111084 C 1.046806335449219 16.3668270111084 0 15.32001686096191 0 14.02871608734131 L 0 2.338116645812988 C 0 1.046805381774902 1.046806335449219 -5.7220458984375e-06 2.338119506835938 -5.7220458984375e-06 Z" stroke="none" fill="#006ceb"/>
              </g>
              <path id="Path_44593" data-name="Path 44593" d="M2.7-7.337a1.89,1.89,0,0,0-1.121.36l.286-1.465H4.087V-9.2H1.2L.732-6.527l.491.385a2.142,2.142,0,0,1,1.277-.5A1.056,1.056,0,0,1,3.629-5.585,1.079,1.079,0,0,1,2.467-4.513a1.338,1.338,0,0,1-1.244-.81L.56-4.947A2.137,2.137,0,0,0,2.508-3.752,1.814,1.814,0,0,0,4.439-5.6,1.656,1.656,0,0,0,2.7-7.337ZM7.221-3.752C8.76-3.752,9.169-5,9.169-6.51c0-1.53-.409-2.758-1.948-2.758S5.274-8.04,5.274-6.51C5.274-5,5.683-3.752,7.221-3.752Zm0-.753c-.908,0-1.146-.925-1.146-2s.237-2,1.146-2,1.137.908,1.137,2S8.13-4.505,7.221-4.505Zm4.828.753C13.588-3.752,14-5,14-6.51c0-1.53-.409-2.758-1.948-2.758S10.1-8.04,10.1-6.51C10.1-5,10.511-3.752,12.05-3.752Zm0-.753c-.908,0-1.146-.925-1.146-2s.237-2,1.146-2,1.137.908,1.137,2S12.958-4.505,12.05-4.505Z" transform="translate(5.613 14.957)" fill="#3c3c3c"/>
              <g id="Ellipse_1618" data-name="Ellipse 1618" transform="translate(67.436 4.946)" fill="#fff" stroke="#5896f8" stroke-width="4">
                <circle cx="4.5" cy="4.5" r="4.5" stroke="none"/>
                <circle cx="4.5" cy="4.5" r="2.5" fill="none"/>
              </g>
            </g>
            <g id="Group_47706" data-name="Group 47706" transform="translate(111.638 95.863)">
              <g id="Path_44589" data-name="Path 44589" transform="translate(0 0)" fill="#fff">
                <path d="M 80.08058929443359 16.1168384552002 L 2.338121175765991 16.1168384552002 C 1.186721086502075 16.1168384552002 0.2499988377094269 15.18011665344238 0.2499988377094269 14.02871608734131 L 0.2499988377094269 2.338116407394409 C 0.2499988377094269 1.186727523803711 1.186721086502075 0.2500052452087402 2.338121175765991 0.2500052452087402 L 80.66512298583984 0.2500052452087402 C 81.90785217285156 0.2500052452087402 82.16870880126953 1.385527491569519 82.16870880126953 2.338116407394409 L 82.16870880126953 14.02871608734131 C 82.16870880126953 15.18011665344238 81.23198699951172 16.1168384552002 80.08058929443359 16.1168384552002 Z" stroke="none"/>
                <path d="M 2.338119506835938 0.4999942779541016 C 1.324577331542969 0.4999942779541016 0.5 1.32457160949707 0.5 2.338116645812988 L 0.5 14.02871608734131 C 0.5 15.04224967956543 1.324577331542969 15.8668270111084 2.338119506835938 15.8668270111084 L 80.08057403564453 15.8668270111084 C 81.09413146972656 15.8668270111084 81.91870880126953 15.04224967956543 81.91870880126953 14.02871608734131 L 81.91870880126953 2.338116645812988 C 81.91870880126953 0.4999942779541016 80.97517395019531 0.4999942779541016 80.66512298583984 0.4999942779541016 L 2.338119506835938 0.4999942779541016 M 2.338119506835938 -5.7220458984375e-06 L 80.66512298583984 -5.7220458984375e-06 C 81.95642852783203 -5.7220458984375e-06 82.41870880126953 1.046805381774902 82.41870880126953 2.338116645812988 L 82.41870880126953 14.02871608734131 C 82.41870880126953 15.32001686096191 81.37190246582031 16.3668270111084 80.08057403564453 16.3668270111084 L 2.338119506835938 16.3668270111084 C 1.046806335449219 16.3668270111084 0 15.32001686096191 0 14.02871608734131 L 0 2.338116645812988 C 0 1.046805381774902 1.046806335449219 -5.7220458984375e-06 2.338119506835938 -5.7220458984375e-06 Z" stroke="none" fill="#006ceb"/>
              </g>
              <path id="Path_44592" data-name="Path 44592" d="M2.7-7.337a1.89,1.89,0,0,0-1.121.36l.286-1.465H4.087V-9.2H1.2L.732-6.527l.491.385a2.142,2.142,0,0,1,1.277-.5A1.056,1.056,0,0,1,3.629-5.585,1.079,1.079,0,0,1,2.467-4.513a1.338,1.338,0,0,1-1.244-.81L.56-4.947A2.137,2.137,0,0,0,2.508-3.752,1.814,1.814,0,0,0,4.439-5.6,1.656,1.656,0,0,0,2.7-7.337ZM7.221-3.752C8.76-3.752,9.169-5,9.169-6.51c0-1.53-.409-2.758-1.948-2.758S5.274-8.04,5.274-6.51C5.274-5,5.683-3.752,7.221-3.752Zm0-.753c-.908,0-1.146-.925-1.146-2s.237-2,1.146-2,1.137.908,1.137,2S8.13-4.505,7.221-4.505Zm4.828.753C13.588-3.752,14-5,14-6.51c0-1.53-.409-2.758-1.948-2.758S10.1-8.04,10.1-6.51C10.1-5,10.511-3.752,12.05-3.752Zm0-.753c-.908,0-1.146-.925-1.146-2s.237-2,1.146-2,1.137.908,1.137,2S12.958-4.505,12.05-4.505Z" transform="translate(5.613 14.957)" fill="#3c3c3c"/>
              <g id="Ellipse_1618-2" data-name="Ellipse 1618" transform="translate(67.436 4.811)" fill="#fff" stroke="#c3c3c3" stroke-width="1">
                <circle cx="4.5" cy="4.5" r="4.5" stroke="none"/>
                <circle cx="4.5" cy="4.5" r="4" fill="none"/>
              </g>
            </g>
            <g id="Group_47707" data-name="Group 47707" transform="translate(111.638 120.998)">
              <g id="Path_44590" data-name="Path 44590" fill="#fff">
                <path d="M 80.08058929443359 16.1168384552002 L 2.338121175765991 16.1168384552002 C 1.186721086502075 16.1168384552002 0.2499988377094269 15.18011665344238 0.2499988377094269 14.02871608734131 L 0.2499988377094269 2.338116407394409 C 0.2499988377094269 1.186727523803711 1.186721086502075 0.2500052452087402 2.338121175765991 0.2500052452087402 L 80.08058929443359 0.2500052452087402 C 81.23198699951172 0.2500052452087402 82.16870880126953 1.186727523803711 82.16870880126953 2.338116407394409 L 82.16870880126953 14.02871608734131 C 82.16870880126953 15.18011665344238 81.23198699951172 16.1168384552002 80.08058929443359 16.1168384552002 Z" stroke="none"/>
                <path d="M 2.338119506835938 0.4999942779541016 C 1.324577331542969 0.4999942779541016 0.5 1.32457160949707 0.5 2.338116645812988 L 0.5 14.02871608734131 C 0.5 15.04224967956543 1.324577331542969 15.8668270111084 2.338119506835938 15.8668270111084 L 80.08057403564453 15.8668270111084 C 81.09413146972656 15.8668270111084 81.91870880126953 15.04224967956543 81.91870880126953 14.02871608734131 L 81.91870880126953 2.338116645812988 C 81.91870880126953 1.32457160949707 81.09413146972656 0.4999942779541016 80.08057403564453 0.4999942779541016 L 2.338119506835938 0.4999942779541016 M 2.338119506835938 -5.7220458984375e-06 L 80.08057403564453 -5.7220458984375e-06 C 81.37190246582031 -5.7220458984375e-06 82.41870880126953 1.046805381774902 82.41870880126953 2.338116645812988 L 82.41870880126953 14.02871608734131 C 82.41870880126953 15.32001686096191 81.37190246582031 16.3668270111084 80.08057403564453 16.3668270111084 L 2.338119506835938 16.3668270111084 C 1.046806335449219 16.3668270111084 0 15.32001686096191 0 14.02871608734131 L 0 2.338116645812988 C 0 1.046805381774902 1.046806335449219 -5.7220458984375e-06 2.338119506835938 -5.7220458984375e-06 Z" stroke="none" fill="#006ceb"/>
              </g>
              <path id="Path_44591" data-name="Path 44591" d="M2.137-6.389H4.354v-.777H2.137v-1.71H4.682v-.769H1.3v5.638H4.755v-.769H2.137ZM7.759-7.927a1.423,1.423,0,0,0-1.244.687v-.589h-.8v3.822h.8V-6.062a1.035,1.035,0,0,1,1.1-1.08.891.891,0,0,1,.867,1v2.136h.8V-6.193C9.3-7.281,8.724-7.927,7.759-7.927Zm3.748.1V-9.261h-.8v1.432h-.687v.671H10.7v3.151h.8V-7.158h.818v-.671Zm5.147,1.89a1.872,1.872,0,0,0-1.915-1.989,1.919,1.919,0,0,0-1.972,2,1.931,1.931,0,0,0,1.972,2.021,1.935,1.935,0,0,0,1.751-.982l-.638-.319a1.246,1.246,0,0,1-1.08.556A1.1,1.1,0,0,1,13.593-5.6h3.044C16.646-5.718,16.654-5.833,16.654-5.939Zm-3.052-.3a1.071,1.071,0,0,1,1.146-.941,1.043,1.043,0,0,1,1.1.941Zm5.876-1.686c-.491,0-.876.286-1.072.957v-.859H17.6v3.822h.81V-5.382c0-1.031.327-1.776,1.023-1.776a1.356,1.356,0,0,1,.565.131l.139-.761A1.472,1.472,0,0,0,19.477-7.927Zm7.529,3.92L24.878-9.646h-.9L21.842-4.008h.884l.524-1.424H25.6l.524,1.424ZM24.428-8.623l.9,2.455H23.52Zm7.733.7a1.409,1.409,0,0,0-1.309.8,1.334,1.334,0,0,0-1.252-.8,1.278,1.278,0,0,0-1.195.7v-.6h-.8v3.822h.8V-6.062a.986.986,0,0,1,1.007-1.1c.475,0,.8.385.8,1.007v2.144h.81V-5.914c0-.8.327-1.252.957-1.244.516,0,.843.385.843,1.007v2.144h.81V-6.193C33.635-7.281,33.119-7.927,32.162-7.927ZM36.54-3.909a1.966,1.966,0,0,0,2.013-2.013,1.959,1.959,0,0,0-2.013-2,1.952,1.952,0,0,0-2,2A1.959,1.959,0,0,0,36.54-3.909Zm0-.753a1.209,1.209,0,0,1-1.2-1.26,1.206,1.206,0,0,1,1.2-1.252,1.213,1.213,0,0,1,1.211,1.252A1.215,1.215,0,0,1,36.54-4.662Zm5.687-1.088a1.042,1.042,0,0,1-1.1,1.088.894.894,0,0,1-.867-1.007v-2.16h-.8v2.185c-.008,1.088.573,1.735,1.538,1.735a1.429,1.429,0,0,0,1.236-.679v.581h.8V-7.829h-.8ZM46.27-7.927a1.423,1.423,0,0,0-1.244.687v-.589h-.8v3.822h.8V-6.062a1.035,1.035,0,0,1,1.1-1.08.891.891,0,0,1,.867,1v2.136h.8V-6.193C47.808-7.281,47.236-7.927,46.27-7.927Zm3.748.1V-9.261h-.8v1.432h-.687v.671h.687v3.151h.8V-7.158h.818v-.671Z" transform="translate(5.304 15.114)" fill="#3c3c3c"/>
            </g>
          </g>
        </g>
        <g id="Group_46450" data-name="Group 46450">
          <g id="Group_46449" data-name="Group 46449" clip-path="url(#clip-path)">
            <path id="Path_44594" data-name="Path 44594" d="M5.553,0h68.4A5.553,5.553,0,0,1,79.5,5.553v4.518a5.553,5.553,0,0,1-5.553,5.553H5.553A5.553,5.553,0,0,1,0,10.071V5.553A5.553,5.553,0,0,1,5.553,0Z" transform="translate(114.677 177.016)" fill="#006ceb"/>
            <path id="Path_44595" data-name="Path 44595" d="M1.3-9.646v5.638H3.5A2.542,2.542,0,0,0,6.048-6.815,2.558,2.558,0,0,0,3.5-9.646Zm.843,4.869v-4.1H3.5c1.129,0,1.71.917,1.71,2.062S4.624-4.777,3.5-4.777Zm6.661.867a1.966,1.966,0,0,0,2.013-2.013,1.959,1.959,0,0,0-2.013-2,1.952,1.952,0,0,0-2,2A1.959,1.959,0,0,0,8.806-3.909Zm0-.753a1.209,1.209,0,0,1-1.2-1.26,1.206,1.206,0,0,1,1.2-1.252,1.213,1.213,0,0,1,1.211,1.252A1.215,1.215,0,0,1,8.806-4.662Zm5.008-3.265a1.423,1.423,0,0,0-1.244.687v-.589h-.8v3.822h.8V-6.062a1.035,1.035,0,0,1,1.1-1.08.891.891,0,0,1,.867,1v2.136h.8V-6.193C15.353-7.281,14.78-7.927,13.814-7.927Zm5.647.671a1.492,1.492,0,0,0-1.326-.671,1.909,1.909,0,0,0-1.89,2A1.916,1.916,0,0,0,18.1-3.909a1.549,1.549,0,0,0,1.358-.745v.646h.8V-7.829h-.8ZM18.242-4.662a1.22,1.22,0,0,1-1.187-1.26,1.216,1.216,0,0,1,1.17-1.252,1.252,1.252,0,0,1,1.228,1.252A1.241,1.241,0,0,1,18.242-4.662Zm4.345-3.167V-9.261h-.8v1.432H21.1v.671h.687v3.151h.8V-7.158h.818v-.671Zm5.147,1.89A1.872,1.872,0,0,0,25.82-7.927a1.919,1.919,0,0,0-1.972,2A1.931,1.931,0,0,0,25.82-3.909a1.935,1.935,0,0,0,1.751-.982l-.638-.319a1.246,1.246,0,0,1-1.08.556A1.1,1.1,0,0,1,24.674-5.6h3.044C27.726-5.718,27.734-5.833,27.734-5.939Zm-3.052-.3a1.071,1.071,0,0,1,1.146-.941,1.043,1.043,0,0,1,1.1.941Z" transform="translate(140.331 191.057)" fill="#fff"/>
          </g>
        </g>
        <g id="Ellipse_1619" data-name="Ellipse 1619" transform="translate(21.081 97.674)" fill="#fff" stroke="#f80" stroke-width="0.5">
          <ellipse cx="37.5" cy="36.5" rx="37.5" ry="36.5" stroke="none"/>
          <ellipse cx="37.5" cy="36.5" rx="37.25" ry="36.25" fill="none"/>
        </g>
        <g id="Group_47708" data-name="Group 47708" transform="translate(37.75 113.499)">
          <g id="Group_47709" data-name="Group 47709" transform="translate(0 34.776)">
            <path id="Path_42200" data-name="Path 42200" d="M314.33,328.81a2.093,2.093,0,0,0-4.08.31,1.681,1.681,0,0,0,1.515,1.653l.806.163c.448.09.7.35.7.684,0,.407-.334.708-.937.708a1.159,1.159,0,0,1-1.262-1.083l-1.042.277a2.106,2.106,0,0,0,2.3,1.808,1.9,1.9,0,0,0,2.085-1.783,1.762,1.762,0,0,0-1.612-1.7l-.806-.155c-.423-.081-.627-.334-.627-.652a.818.818,0,0,1,.9-.733.986.986,0,0,1,1.051.814Z" transform="translate(-310.03 -327.255)" fill="#023677"/>
            <path id="Path_42201" data-name="Path 42201" d="M320.215,334.1h1.034a6.588,6.588,0,0,1-.041-.725V330.1h-1.083v2.329a.723.723,0,0,1-.757.79.713.713,0,0,1-.733-.806V330.1h-1.083v2.533a1.476,1.476,0,0,0,1.523,1.58,1.266,1.266,0,0,0,1.108-.537,2.75,2.75,0,0,0,.033.432" transform="translate(-312.447 -328.15)" fill="#023677"/>
            <path id="Path_42202" data-name="Path 42202" d="M326.277,330.918a.874.874,0,0,1,.888.676l.969-.326a1.834,1.834,0,0,0-1.881-1.352,2.051,2.051,0,0,0-2.077,2.125,2.073,2.073,0,0,0,2.109,2.126,1.86,1.86,0,0,0,1.873-1.352l-.953-.318a.917.917,0,0,1-.92.676,1.032,1.032,0,0,1-1.026-1.132,1.019,1.019,0,0,1,1.018-1.124" transform="translate(-314.576 -328.092)" fill="#023677"/>
            <path id="Path_42203" data-name="Path 42203" d="M332.816,330.918a.874.874,0,0,1,.888.676l.969-.326a1.834,1.834,0,0,0-1.881-1.352,2.051,2.051,0,0,0-2.077,2.125,2.073,2.073,0,0,0,2.109,2.126,1.86,1.86,0,0,0,1.873-1.352l-.953-.318a.917.917,0,0,1-.92.676,1.032,1.032,0,0,1-1.026-1.132,1.019,1.019,0,0,1,1.018-1.124" transform="translate(-316.677 -328.092)" fill="#023677"/>
            <path id="Path_42204" data-name="Path 42204" d="M338.345,331.585a.867.867,0,0,1,.9-.79.806.806,0,0,1,.9.79Zm1.9,1.042a.885.885,0,0,1-.912.611.976.976,0,0,1-1.01-.912h2.867c0-.016.016-.179.016-.334a1.872,1.872,0,0,0-1.979-2.077,2.129,2.129,0,0,0,.1,4.251,1.8,1.8,0,0,0,1.824-1.27Z" transform="translate(-318.778 -328.092)" fill="#023677"/>
            <path id="Path_42205" data-name="Path 42205" d="M343.826,332.929a1.506,1.506,0,0,0,1.669,1.238,1.384,1.384,0,0,0,1.555-1.319c0-.586-.4-1.067-1.189-1.23l-.569-.122c-.22-.041-.366-.163-.366-.358a.46.46,0,0,1,.512-.4.61.61,0,0,1,.66.538l.9-.2a1.575,1.575,0,0,0-3.071.155c0,.562.351,1.026,1.124,1.2l.529.122c.309.065.431.212.431.391,0,.212-.171.4-.529.4a.666.666,0,0,1-.732-.611Z" transform="translate(-320.891 -328.092)" fill="#023677"/>
            <path id="Path_42206" data-name="Path 42206" d="M349.358,332.929a1.506,1.506,0,0,0,1.669,1.238,1.384,1.384,0,0,0,1.555-1.319c0-.586-.4-1.067-1.189-1.23l-.57-.122c-.22-.041-.366-.163-.366-.358a.461.461,0,0,1,.513-.4.611.611,0,0,1,.66.538l.9-.2a1.574,1.574,0,0,0-3.07.155c0,.562.35,1.026,1.124,1.2l.529.122c.309.065.432.212.432.391,0,.212-.171.4-.529.4a.666.666,0,0,1-.733-.611Z" transform="translate(-322.668 -328.092)" fill="#023677"/>
            <path id="Path_42207" data-name="Path 42207" d="M357.03,328.181a1.213,1.213,0,0,1,.342.041v-.912a1.575,1.575,0,0,0-.537-.081,1.381,1.381,0,0,0-1.458,1.49v.456h-.668v.928h.668v3.078h1.091V330.1h.9v-.928h-.9v-.44a.51.51,0,0,1,.562-.554" transform="translate(-324.388 -327.228)" fill="#023677"/>
            <path id="Path_42208" data-name="Path 42208" d="M362.25,334.1h1.034a6.586,6.586,0,0,1-.041-.725V330.1H362.16v2.329a.723.723,0,0,1-.757.79.713.713,0,0,1-.733-.806V330.1h-1.083v2.533a1.476,1.476,0,0,0,1.523,1.58,1.266,1.266,0,0,0,1.108-.537,2.75,2.75,0,0,0,.033.432" transform="translate(-325.955 -328.15)" fill="#023677"/>
            <rect id="Rectangle_27360" data-name="Rectangle 27360" width="1.083" height="5.896" transform="translate(38.444 0.057)" fill="#023677"/>
            <path id="Path_42209" data-name="Path 42209" d="M371.474,327.492h-1.311l.261,4.015h.79Zm-1.295,5.2a.638.638,0,0,0,.635.643.647.647,0,0,0,.652-.643.653.653,0,0,0-.652-.651.645.645,0,0,0-.635.651" transform="translate(-329.354 -327.313)" fill="#023677"/>
          </g>
          <path id="Path_42211" data-name="Path 42211" d="M181.242,383.872A14.277,14.277,0,1,1,166.964,369.6a14.277,14.277,0,0,1,14.277,14.277" transform="translate(-146.888 -367.869)" fill="#b2efaf"/>
          <path id="Path_42212" data-name="Path 42212" d="M169.854,389.449h0a2.255,2.255,0,0,1-1.593-.667l-5.358-5.358a2.256,2.256,0,1,1,3.107-3.272l.083.083L169.854,384l16.785-16.785a2.256,2.256,0,0,1,3.19,3.19l-18.382,18.382a2.258,2.258,0,0,1-1.593.667" transform="translate(-151.006 -366.552)" fill="#10a013"/>
        </g>
      </g>
    </g>
  </g>
</svg>
